<?xml version="1.0" standalone="no"?>
<!DOCTYPE svg PUBLIC "-//W3C//DTD SVG 1.1//EN" "http://www.w3.org/Graphics/SVG/1.1/DTD/svg11.dtd" >
<svg>
<metadata>
Created by FontForge 20090914 at Tue Aug  8 16:16:51 2017
 By www-data
Copyright (c) 2013, 2014, 2015 Eduardo Tunni (http://www.tipo.net.ar)
</metadata>
<defs>
<font id="Kurale-Regular" horiz-adv-x="0" >
  <font-face 
    font-family="Kurale"
    font-weight="400"
    font-stretch="normal"
    units-per-em="1024"
    panose-1="2 11 6 0 0 0 0 0 0 0"
    ascent="819"
    descent="-205"
    x-height="471.998"
    cap-height="665.999"
    bbox="-637 -392 1323 1135"
    underline-thickness="0"
    underline-position="0"
    unicode-range="U+0020-U+FEFF"
  />
<missing-glyph horiz-adv-x="1065" 
d="M200 866h666v-799h-666v799zM932 0v932h-799v-932h799z" />
    <glyph glyph-name="f_f" unicode="ff" horiz-adv-x="573" 
d="M306 684c24.667 0 43.833 -7.16895 57.5 -21.502s20.5 -33.166 20.5 -56.499c-0.666992 -3.33301 -2.5 -10.666 -5.5 -21.999s-5.33301 -20.666 -7 -27.999s-3.16699 -18.833 -4.5 -34.5s-2 -32.834 -2 -51.501v-9h-181c0 68.667 10 123 30 163s50.667 60 92 60z
M178.999 -77.002c3.33301 16.667 4.99902 38.333 4.99902 65v415h181v-298c0 -147.333 -37.667 -221 -113 -221c-29.333 0 -53.666 13 -72.999 39zM162.998 -130.003c24.667 -17.333 54.001 -26.0029 88.001 -26.0029c64 0 112.833 29 146.5 87s50.5 136.667 50.5 236v236
h108c14.667 10.667 22 30 22 58h-130v71c0 101.333 26.667 152 80 152c18.667 0 33.5 -6.16699 44.5 -18.5s16.5 -28.166 16.5 -47.499c0 -15.333 -1.83301 -28.666 -5.5 -39.999s-7.5 -19.666 -11.5 -24.999s-6 -9 -6 -11c0 -6.66699 6 -10 18 -10
c26.667 0 48.667 8.33301 66 25s26 38.334 26 65.001c0 30.667 -13 55.667 -39 75s-59.333 29 -100 29c-41.333 0 -77 -14.333 -107 -43c-24.667 28.667 -62.667 43 -114 43c-62.667 0 -112 -23.5 -148 -70.5s-57.667 -111.833 -65 -194.5l-59 -14
c-9.33301 -2.66699 -15.5 -6.66699 -18.5 -12s-4.5 -16 -4.5 -32h80v-487c0 -32 -6.16699 -56.167 -18.5 -72.5s-27.833 -24.5 -46.5 -24.5c-14.667 0 -26.834 5.5 -36.501 16.5s-14.5 25.833 -14.5 44.5c0 12.667 2.16699 24 6.5 34s8.66602 17.667 12.999 23
s6.5 8.66602 6.5 9.99902c0 6.66699 -5.66699 10 -17 10c-26 0 -47.667 -8 -65 -24s-26 -36 -26 -60c0 -28.667 10.833 -51.5 32.5 -68.5s48.834 -25.5 81.501 -25.5c69.333 0 118 30.333 146 91z" />
    <glyph glyph-name="fi" unicode="fi" horiz-adv-x="572" 
d="M184 -12l0.00195312 414.999h162c12 0 18 -7 18 -21v-297c0 -35.333 5.5 -60.5 16.5 -75.5s29.167 -22.5 54.5 -22.5c33.333 0 68 19.667 104 59l-18 24c-15.333 -13.333 -31 -20 -47 -20c-18 0 -27 10.667 -27 32v362c0 18.667 -9.66699 28 -29 28
c-20.667 -7.33301 -44.667 -11 -72 -11h-162c0 148.667 44 223 132 223c19.333 0 34.5 -6 45.5 -18s16.5 -28 16.5 -48c0 -15.333 -2 -28.666 -6 -39.999s-7.83301 -19.666 -11.5 -24.999s-5.5 -9 -5.5 -11c0 -6.66699 5.66699 -10 17 -10c26 0 47.833 8.5 65.5 25.5
s26.5 38.5 26.5 64.5c0 30.667 -12.833 55.667 -38.5 75s-58.834 29 -99.501 29c-65.333 0 -116.833 -23.5 -154.5 -70.5s-60.5 -111.833 -68.5 -194.5l-62 -14c-10 -2.66699 -16.167 -6.5 -18.5 -11.5s-3.5 -15.833 -3.5 -32.5h82v-487c0 -32 -6.16699 -56.167 -18.5 -72.5
s-27.833 -24.5 -46.5 -24.5c-14.667 0 -26.834 5.5 -36.501 16.5s-14.5 25.833 -14.5 44.5c0 12.667 2.16699 24 6.5 34s8.66602 17.667 12.999 23s6.5 8.66602 6.5 9.99902c0 6.66699 -5.66699 10 -17 10c-26 0 -47.667 -8 -65 -24s-26 -36 -26 -60
c0 -28.667 10.833 -51.5 32.5 -68.5s48.834 -25.5 81.501 -25.5c55.333 0 97 18.667 125 56s42 88.333 42 153z" />
    <glyph glyph-name="fl" unicode="fl" horiz-adv-x="580" 
d="M184 -12l0.000976562 415.002h109c14.667 10.667 22 30 22 58h-131c0 148.667 39.333 223 118 223c30 0 52.5 -9.83301 67.5 -29.5s22.5 -45.834 22.5 -78.501v-491c0 -35.333 5.5 -60.5 16.5 -75.5s29.167 -22.5 54.5 -22.5c34 0 68.333 19.667 103 59l-17 24
c-14 -13.333 -29.333 -20 -46 -20c-19.333 0 -29 10.667 -29 32v610c0 10.667 -1 18.167 -3 22.5s-7 6.5 -15 6.5c-16.667 0 -35.334 -8.33301 -56.001 -25c-25.333 20 -54.333 30 -87 30c-62 0 -110.667 -23.5 -146 -70.5s-56.666 -111.833 -63.999 -194.5l-62 -14
c-10 -2.66699 -16.167 -6.5 -18.5 -11.5s-3.5 -15.833 -3.5 -32.5h82v-487c0 -32 -6.16699 -56.167 -18.5 -72.5s-27.833 -24.5 -46.5 -24.5c-14.667 0 -26.834 5.5 -36.501 16.5s-14.5 25.833 -14.5 44.5c0 12.667 2.16699 24 6.5 34s8.66602 17.667 12.999 23
s6.5 8.66602 6.5 9.99902c0 6.66699 -5.66699 10 -17 10c-26 0 -47.667 -8 -65 -24s-26 -36 -26 -60c0 -28.667 10.833 -51.5 32.5 -68.5s48.834 -25.5 81.501 -25.5c55.333 0 97 18.667 125 56s42 88.333 42 153z" />
    <glyph glyph-name="f_f_i" unicode="ffi" horiz-adv-x="816" 
d="M316 684c24 0 43.6689 -7.16602 59.002 -21.499s24.666 -33.833 27.999 -58.5c-20 -38.667 -32 -86.334 -36 -143.001h-183c0 69.333 10.667 123.833 32 163.5s54.666 59.5 99.999 59.5zM179.002 -76.999c3.33301 16.667 5.00098 38.333 5.00098 65v415h181v-298
c0 -147.333 -39.333 -221 -118 -221c-26.667 0 -49.334 13 -68.001 39zM163.003 -130c24.667 -17.333 54.001 -26.001 88.001 -26.001c66.667 0 116.167 28.667 148.5 86s48.5 136.333 48.5 237v236h161c12.667 0 19 -7 19 -21v-297c0 -35.333 5.33301 -60.5 16 -75.5
s28.667 -22.5 54 -22.5c34 0 69 19.667 105 59l-19 24c-14 -13.333 -29.333 -20 -46 -20c-18 0 -27 10.667 -27 32v362c0 8.66699 -2.66699 15.5 -8 20.5s-12.333 7.5 -21 7.5c-20.667 -7.33301 -45 -11 -73 -11h-161c0 148.667 43.667 223 131 223
c19.333 0 34.333 -6 45 -18s16 -28 16 -48c0 -15.333 -1.66699 -28.666 -5 -39.999s-6.83301 -19.666 -10.5 -24.999s-5.5 -9 -5.5 -11c0 -6.66699 5.66699 -10 17 -10c26 0 47.833 8.5 65.5 25.5s26.5 38.5 26.5 64.5c0 30.667 -13 55.667 -39 75s-59.333 29 -100 29
c-59.333 0 -107.333 -20 -144 -60c-32 40 -71.667 60 -119 60c-65.333 0 -116.833 -23.5 -154.5 -70.5s-60.5 -111.833 -68.5 -194.5l-59 -14c-9.33301 -2.66699 -15.5 -6.66699 -18.5 -12s-4.5 -16 -4.5 -32h80v-487c0 -32 -6.16699 -56.167 -18.5 -72.5
s-27.833 -24.5 -46.5 -24.5c-14.667 0 -26.834 5.5 -36.501 16.5s-14.5 25.833 -14.5 44.5c0 12.667 2.16699 24 6.5 34s8.66602 17.667 12.999 23s6.5 8.66602 6.5 9.99902c0 6.66699 -5.66699 10 -17 10c-26 0 -47.667 -8 -65 -24s-26 -36 -26 -60
c0 -28.667 10.833 -51.5 32.5 -68.5s48.834 -25.5 81.501 -25.5c69.333 0 118 30.333 146 91z" />
    <glyph glyph-name="f_f_l" unicode="ffl" horiz-adv-x="816" 
d="M316 684c23.333 0 42.6689 -7 58.002 -21s24.666 -32.667 27.999 -56c-19.333 -41.333 -31 -90 -35 -146h-183c0 69.333 10.667 123.833 32 163.5s54.666 59.5 99.999 59.5zM179.003 -77c3.33301 16.667 5.00098 38.333 5.00098 65v415h181v-298
c0 -147.333 -39.333 -221 -118 -221c-26.667 0 -49.334 13 -68.001 39zM163.004 -130.001c24.667 -17.333 54.0029 -25.998 88.0029 -25.998c66.667 0 116.167 28.667 148.5 86s48.5 136.333 48.5 237v236h108c14.667 10.667 22 30 22 58h-130c0 148.667 39 223 117 223
c30 0 52.333 -9.83301 67 -29.5s22 -45.834 22 -78.501v-491c0 -34.667 5.83301 -59.667 17.5 -75s30.167 -23 55.5 -23c34 0 68.333 19.667 103 59l-17 24c-15.333 -13.333 -31 -20 -47 -20c-18.667 0 -28 10.667 -28 32l1 610c0 10 -1.16699 17.333 -3.5 22
s-7.5 7 -15.5 7c-16.667 0 -35.334 -8.33301 -56.001 -25c-25.333 20 -54.333 30 -87 30c-54.667 0 -99.334 -19 -134.001 -57c-32 38 -71 57 -117 57c-65.333 0 -116.833 -23.5 -154.5 -70.5s-60.5 -111.833 -68.5 -194.5l-59 -14
c-9.33301 -2.66699 -15.5 -6.66699 -18.5 -12s-4.5 -16 -4.5 -32h80v-487c0 -32 -6.16699 -56.167 -18.5 -72.5s-27.833 -24.5 -46.5 -24.5c-14.667 0 -26.834 5.5 -36.501 16.5s-14.5 25.833 -14.5 44.5c0 12.667 2.16699 24 6.5 34s8.66602 17.667 12.999 23
s6.5 8.66602 6.5 9.99902c0 6.66699 -5.66699 10 -17 10c-26 0 -47.667 -8 -65 -24s-26 -36 -26 -60c0 -28.667 10.833 -51.5 32.5 -68.5s48.834 -25.5 81.501 -25.5c69.333 0 118 30.333 146 91z" />
    <glyph glyph-name="fj" unicode="fj" horiz-adv-x="534" 
d="M447 -49l0.00195312 492.998c0 18.667 -9.66699 28 -29 28c-20.667 -7.33301 -44.667 -11 -72 -11h-162c0 148.667 44 223 132 223c19.333 0 34.5 -6 45.5 -18s16.5 -28 16.5 -48c0 -15.333 -2 -28.666 -6 -39.999s-7.83301 -19.666 -11.5 -24.999s-5.5 -9 -5.5 -11
c0 -6.66699 5.66699 -10 17 -10c26 0 47.833 8.5 65.5 25.5s26.5 38.5 26.5 64.5c0 30.667 -12.833 55.667 -38.5 75s-58.834 29 -99.501 29c-65.333 0 -116.833 -23.5 -154.5 -70.5s-60.5 -111.833 -68.5 -194.5l-62 -14c-10 -2.66699 -16.167 -6.5 -18.5 -11.5
s-3.5 -15.833 -3.5 -32.5h82v-300c0 -24 -2.5 -40.833 -7.5 -50.5s-15.5 -15.834 -31.5 -18.501l-19 -5l10 -29h162l11 14l-11 15c-20.667 26 -31 65.667 -31 119v255h162c12 0 18 -7 18 -21v-503c0 -31.333 -6.16699 -55.333 -18.5 -72s-27.833 -25 -46.5 -25
c-14.667 0 -27 5.66699 -37 17s-15 26.333 -15 45c0 12.667 2.16699 24 6.5 34s8.66602 17.5 12.999 22.5s6.5 8.16699 6.5 9.5c0 6.66699 -5.66699 10 -17 10c-26.667 0 -48.334 -8 -65.001 -24s-25 -36 -25 -60c0 -28.667 10.833 -51.667 32.5 -69s48.834 -26 81.501 -26
c55.333 0 97 18.833 125 56.5s42 88.834 42 153.501z" />
    <glyph glyph-name="ft" unicode="ft" horiz-adv-x="580" 
d="M184 -12v415h62c14.667 10.667 22 30 22 58h-84c0 70 11.833 122.667 35.5 158s56.834 53 99.501 53c36.667 0 63.334 -10.667 80.001 -32s25 -47.333 25 -78c0 -61.333 -30.667 -99.666 -92 -114.999c-9.33301 -3.33301 -15.333 -7.33301 -18 -12s-4 -15.334 -4 -32.001
h82v-326c0 -28 6.83301 -50 20.5 -66s33.167 -24 58.5 -24c19.333 0 40.166 6.33301 62.499 19s41.833 29.334 58.5 50.001l-17 25c-23.333 -20 -44.666 -30 -63.999 -30c-23.333 0 -35 17.333 -35 52v300h100c14 10.667 21 30 21 58h-121v133
c-9.33301 42.667 -28.833 74.5 -58.5 95.5s-62.5 31.5 -98.5 31.5c-60.667 0 -109.834 -22.5 -147.501 -67.5s-60.5 -109.167 -68.5 -192.5l-62 -14c-10 -2.66699 -16.167 -6.5 -18.5 -11.5s-3.5 -15.833 -3.5 -32.5h82v-487c0 -32 -6.16699 -56.167 -18.5 -72.5
s-27.833 -24.5 -46.5 -24.5c-14.667 0 -26.834 5.5 -36.501 16.5s-14.5 25.833 -14.5 44.5c0 12.667 2.16699 24 6.5 34s8.66602 17.667 12.999 23s6.5 8.66602 6.5 9.99902c0 6.66699 -5.66699 10 -17 10c-26 0 -47.667 -8 -65 -24s-26 -36 -26 -60
c0 -28.667 10.833 -51.5 32.5 -68.5s48.834 -25.5 81.501 -25.5c55.333 0 97 18.667 125 56s42 88.333 42 153z" />
    <glyph glyph-name=".notdef" horiz-adv-x="1065" 
d="M200 866h666v-799h-666v799zM932 0v932h-799v-932h799z" />
    <glyph glyph-name="space" unicode=" " horiz-adv-x="316" 
 />
    <glyph glyph-name="exclam" unicode="!" horiz-adv-x="252" 
d="M172 47c0 12.667 -6.66895 26.167 -20.002 40.5s-25.666 21.5 -36.999 21.5s-23.833 -7.16699 -37.5 -21.5s-20.5 -27.833 -20.5 -40.5c0 -11.333 6.83301 -24.166 20.5 -38.499s26.167 -21.5 37.5 -21.5c10.667 0 22.834 7.16699 36.501 21.5s20.5 27.166 20.5 38.499z
M136.998 226c23.333 240 35.001 394 35.001 462c-14.667 16 -33.667 24 -57 24c-25.333 0 -45.333 -8 -60 -24c0 -68 11.667 -222 35 -462c2.66699 -28 11 -42 25 -42c11.333 0 18.666 14 21.999 42z" />
    <glyph glyph-name="quotedbl" unicode="&#x22;" horiz-adv-x="351" 
d="M101 548c19.333 80.667 29.001 146.667 29.001 198c-10.667 18 -26.334 27 -47.001 27s-36.667 -9 -48 -27c0 -51.333 9.66699 -117.333 29 -198c2 -11.333 8.33301 -17 19 -17c8.66699 0 14.667 5.66699 18 17zM254.001 548c19.333 84.667 29.001 150.667 29.001 198
c-11.333 18 -27.333 27 -48 27s-36.334 -9 -47.001 -27c0 -51.333 9.66699 -117.333 29 -198c3.33301 -11.333 9.33301 -17 18 -17c10.667 0 17 5.66699 19 17z" />
    <glyph glyph-name="numbersign" unicode="#" horiz-adv-x="713" 
d="M257 394h164l-33 -125h-166zM147 0l58 209h166l-57 -209h65l58 209h93l17 60h-93l35 125h93l17 60h-93l59 212h-67l-58 -212h-166l59 212h-67l-57 -212h-93l-18 -60h92l-35 -125h-92l-16 -60h92l-57 -209h65z" />
    <glyph glyph-name="dollar" unicode="$" horiz-adv-x="595" 
d="M293 -120l0.000976562 120.997c54.667 4.66699 98 22.834 130 54.501s48 70.5 48 116.5c0 34 -8 63.333 -24 88s-35.833 43.334 -59.5 56.001s-49.5 25.5 -77.5 38.5l-77.5 36.5c-23.667 11.333 -43.5 27.5 -59.5 48.5s-24 46.167 -24 75.5c0 26 9.33301 49.167 28 69.5
s45.334 30.5 80.001 30.5c25.333 0 47.666 -7.5 66.999 -22.5s29 -35.167 29 -60.5c0 -14.667 -2.5 -28 -7.5 -40s-9.83301 -21.333 -14.5 -28s-7 -10.667 -7 -12c0 -5.33301 1.5 -8.66602 4.5 -9.99902s8.5 -2 16.5 -2c28 0 51.5 9.5 70.5 28.5s28.5 42.5 28.5 70.5
c0 34 -14.167 61.833 -42.5 83.5s-64.5 35.5 -108.5 41.5v146c-27.333 0 -47 -8 -59 -24v-120c-55.333 -4.66699 -98 -24.167 -128 -58.5s-45 -73.5 -45 -117.5c0 -42 10.833 -77.333 32.5 -106s48.167 -50.667 79.5 -66s62.5 -29.5 93.5 -42.5s57.333 -29.167 79 -48.5
s32.5 -43 32.5 -71c0 -31.333 -11.167 -56.5 -33.5 -75.5s-48.5 -28.5 -78.5 -28.5c-34.667 0 -64.334 9.33301 -89.001 28s-37 44.334 -37 77.001c0 14.667 2.33301 28 7 40s9.5 21.167 14.5 27.5s7.5 10.5 7.5 12.5c0 5.33301 -1.16699 8.5 -3.5 9.5
s-7.83301 1.5 -16.5 1.5c-28.667 0 -52.334 -9 -71.001 -27s-28 -41.667 -28 -71c0 -43.333 17.5 -77.833 52.5 -103.5s78.833 -40.834 131.5 -45.501v-142c28.667 0 48.334 7 59.001 21z" />
    <glyph glyph-name="percent" unicode="%" horiz-adv-x="1042" 
d="M644 197c0 48 7.5 87.667 22.5 119s36.833 47 65.5 47s50.334 -15.667 65.001 -47s22 -71 22 -119c0 -49.333 -7.33301 -89.333 -22 -120s-36.334 -46 -65.001 -46c-29.333 0 -51.333 15.333 -66 46s-22 70.667 -22 120zM898 210c0 57.333 -14 104.332 -42 140.999
s-67.333 55 -118 55c-52.667 0 -94.5 -19.833 -125.5 -59.5s-46.5 -89.5 -46.5 -149.5c0 -57.333 12.667 -106.666 38 -147.999s65 -62 119 -62s96.667 21.333 128 64s47 95.667 47 159zM124 467.999c0 48 7.5 87.667 22.5 119s37.167 47 66.5 47
c28.667 0 50.334 -15.667 65.001 -47s22 -71 22 -119c0 -49.333 -7.33301 -89.333 -22 -120s-36.334 -46 -65.001 -46c-29.333 0 -51.5 15.333 -66.5 46s-22.5 70.667 -22.5 120zM379 480.999c0 57.333 -14 104.501 -42 141.501s-67.333 55.5 -118 55.5
c-52.667 0 -94.5 -20 -125.5 -60s-46.5 -90 -46.5 -150c0 -57.333 12.667 -106.5 38 -147.5s65 -61.5 119 -61.5s96.667 21.167 128 63.5s47 95.166 47 158.499zM366 0l280 666h-67l-278 -666h65z" />
    <glyph glyph-name="ampersand" unicode="&#x26;" horiz-adv-x="684" 
d="M481 147c0 38.667 -14.999 70.666 -44.999 95.999c122.667 8.66699 184 49.334 184 122.001c0 28.667 -9.66699 51.834 -29 69.501s-42.666 26.5 -69.999 26.5c-26.667 0 -40 -4.66699 -40 -14c0 -2.66699 2.5 -6.33398 7.5 -11.001s10.667 -9.66699 17 -15
s12 -13.5 17 -24.5s7.5 -23.167 7.5 -36.5c0 -24.667 -10.333 -43.167 -31 -55.5s-46 -19.666 -76 -21.999s-59.833 -4.16602 -89.5 -5.49902s-54.834 -6.33301 -75.501 -15s-31 -22.667 -31 -42c0 -7.33301 2 -14.166 6 -20.499s8.33301 -9.5 13 -9.5
c2.66699 0 7 3.5 13 10.5s17 14.5 33 22.5s37 13 63 15c3.33301 0 8.66602 0.166992 15.999 0.5s13.666 0.5 18.999 0.5c15.333 -20 23 -45 23 -75c0 -40.667 -13.333 -72.167 -40 -94.5s-61 -33.5 -103 -33.5c-40.667 0 -73.5 14.333 -98.5 43s-37.5 62 -37.5 100
c0 38.667 12.333 73.5 37 104.5s61.334 52.833 110.001 65.5c8 0 12 6 12 18c0 14 -4.33301 21 -13 21c-32 0 -58.833 11.167 -80.5 33.5s-32.5 54.166 -32.5 95.499c0 32.667 10.333 60.667 31 84s49.334 35 86.001 35c26 0 46.667 -7 62 -21s23 -32.667 23 -56
c0 -12.667 -1.5 -23.667 -4.5 -33s-6.16699 -16.333 -9.5 -21s-5 -7.33398 -5 -8.00098c0 -6.66699 6.33301 -10 19 -10c24.667 0 44.334 7.5 59.001 22.5s22 34.5 22 58.5c0 32.667 -15 59.334 -45 80.001s-67 31 -111 31c-72 0 -128.167 -16.5 -168.5 -49.5
s-60.5 -72.167 -60.5 -117.5c0 -80.667 44 -131.667 132 -153c-54.667 -14.667 -96.334 -37.834 -125.001 -69.501s-43 -68.834 -43 -111.501c0 -60 21.167 -106.833 63.5 -140.5s99.833 -50.5 172.5 -50.5c73.333 0 127.666 16.167 162.999 48.5s53 69.5 53 111.5z" />
    <glyph glyph-name="quotesingle" unicode="'" horiz-adv-x="182" 
d="M101 548c19.333 80.667 29.001 146.667 29.001 198c-10.667 18 -26.334 27 -47.001 27s-36.667 -9 -48 -27c0 -51.333 9.66699 -117.333 29 -198c2 -11.333 8.33301 -17 19 -17c8.66699 0 14.667 5.66699 18 17z" />
    <glyph glyph-name="parenleft" unicode="(" horiz-adv-x="360" 
d="M298 -62c-43.333 28 -78.333 74 -105 138s-40 141 -40 231s13.333 167.167 40 231.5s61.667 110.5 105 138.5v41c-78.667 -33.333 -139.167 -84.5 -181.5 -153.5s-63.5 -154.833 -63.5 -257.5c0 -103.333 21.167 -189.5 63.5 -258.5s102.833 -119.5 181.5 -151.5v41z" />
    <glyph glyph-name="parenright" unicode=")" horiz-adv-x="360" 
d="M273 307c0 102.667 -21 188.499 -63 257.499s-102.333 120.167 -181 153.5v-41c43.333 -28 78.166 -74.167 104.499 -138.5s39.5 -141.5 39.5 -231.5s-13.167 -167 -39.5 -231s-61.166 -110 -104.499 -138v-41c162.667 66.667 244 203.334 244 410.001z" />
    <glyph glyph-name="asterisk" unicode="*" horiz-adv-x="588" 
d="M410 443l-63.499 60.999l-49.5 47c8.66699 1.33301 30.167 4.33301 64.5 9l91.5 12c9.33301 11.333 14 23.666 14 36.999c0 28 -14.667 45.667 -44 53l-139 -75l30 155c-10.667 18.667 -26.667 28 -48 28c-20.667 0 -36.334 -9.33301 -47.001 -28l28 -155l-138 76
c-13.333 -3.33301 -24 -10 -32 -20s-12 -22 -12 -36c0 -11.333 5 -23 15 -35l87 -12c34 -4.66699 56.667 -7.66699 68 -9c-6 -5.33301 -21.5 -20.166 -46.5 -44.499l-66.5 -63.5c0 -16 4.5 -30.167 13.5 -42.5s21.5 -18.5 37.5 -18.5c8.66699 0 16.667 2 24 6l37.5 77
l31.5 65c4 -9.33301 13.667 -29.666 29 -60.999l39 -82c9.33301 -4 17.666 -6 24.999 -6c14.667 0 26.834 5.83301 36.501 17.5s14.5 26.5 14.5 44.5z" />
    <glyph glyph-name="plus" unicode="+" horiz-adv-x="636" 
d="M322 135v162h162v69h-162v163h-69v-163h-162v-69h162v-162h69z" />
    <glyph glyph-name="comma" unicode="," horiz-adv-x="196" 
d="M70 -76c26 28 45.167 51.333 57.5 70s18.5 36.667 18.5 54c0 41.333 -20.333 62 -61 62c-14.667 0 -31.667 -3.66699 -51 -11l-17 -6l4 -22l18 -12c14 -10 21 -21 21 -33c0 -10 -3.66699 -23 -11 -39l-43 -84l28 -18z" />
    <glyph glyph-name="hyphen" unicode="-" horiz-adv-x="364" 
d="M274 243c16.667 14 25 36 25 66l-245 -10c-15.333 -13.333 -23 -35 -23 -65z" />
    <glyph glyph-name="period" unicode="." horiz-adv-x="196" 
d="M146 47c0 12.667 -7 26.167 -21 40.5s-26.667 21.5 -38 21.5s-23.5 -7.16699 -36.5 -21.5s-19.5 -27.833 -19.5 -40.5c0 -11.333 6.66699 -24.166 20 -38.499s25.333 -21.5 36 -21.5c11.333 0 24 7.16699 38 21.5s21 27.166 21 38.499z" />
    <glyph glyph-name="slash" unicode="/" horiz-adv-x="380" 
d="M65 -59l280 784h-67l-278 -784h65z" />
    <glyph glyph-name="zero" unicode="0" horiz-adv-x="710" 
d="M153 332c0 86 14.333 156.667 43 212s70.334 83 125.001 83c54 0 95.333 -27.833 124 -83.5s43 -126.167 43 -211.5c0 -84.667 -14.333 -154.5 -43 -209.5s-70 -82.5 -124 -82.5c-54.667 0 -96.334 27.333 -125.001 82s-43 124.667 -43 210zM587 353
c0 95.333 -22.167 173.497 -66.5 234.497s-106.833 91.5 -187.5 91.5c-84 0 -151.333 -33 -202 -99s-76 -148 -76 -246c0 -43.333 4.66699 -84.666 14 -123.999s23.5 -76.166 42.5 -110.499s45.5 -61.666 79.5 -81.999s73.667 -30.5 119 -30.5
c85.333 0 152.833 35 202.5 105s74.5 157 74.5 261z" />
    <glyph glyph-name="one" unicode="1" horiz-adv-x="428" 
d="M312 0l10.999 15l-11 17c-15.333 20 -26.166 41.167 -32.499 63.5s-9.5 52.5 -9.5 90.5v445l24 15c-9.33301 20 -21.666 31.667 -36.999 35l-257 -120c17.333 -37.333 38.666 -58.333 63.999 -63l114 73v-448c0 -28.667 -3.83301 -48 -11.5 -58s-23.5 -18 -47.5 -24
l-40 -9l11 -32h222z" />
    <glyph glyph-name="two" unicode="2" horiz-adv-x="610" 
d="M484 0c20.667 16.667 30.999 44.6689 30.999 84.002h-350c50.667 41.333 93.167 77.666 127.5 108.999s68.5 65.833 102.5 103.5s59.667 73.834 77 108.501s26 68 26 100c0 55.333 -20.333 98.166 -61 128.499s-96 45.5 -166 45.5c-59.333 0 -110 -14.167 -152 -42.5
s-63 -68.5 -63 -120.5c0 -28 9.5 -51.333 28.5 -70s42.5 -28 70.5 -28c8 0 13.5 0.5 16.5 1.5s4.5 4.16699 4.5 9.5l-14 25c-10 17.333 -15 35.666 -15 54.999c0 37.333 12.333 66.5 37 87.5s53.667 31.5 87 31.5c32.667 0 61 -10.667 85 -32s36 -51.333 36 -90
c0 -40.667 -8.66699 -79.167 -26 -115.5s-52.166 -82.333 -104.499 -138s-127.833 -124.167 -226.5 -205.5l24 -47h425z" />
    <glyph glyph-name="three" unicode="3" horiz-adv-x="610" 
d="M502 171c0 43.333 -13.3281 80.9961 -39.9951 112.996s-65.334 53.667 -116.001 65c91.333 34.667 137 91 137 169c0 51.333 -21.667 91 -65 119s-94 42 -152 42c-54 0 -100 -12.167 -138 -36.5s-57 -58.833 -57 -103.5c0 -29.333 9.33301 -53.166 28 -71.499
s42.334 -27.5 71.001 -27.5c12.667 0 19 4 19 12c0 1.33301 -2.16699 5.33301 -6.5 12s-8.83301 16 -13.5 28s-7 25.333 -7 40c0 30.667 10 54.334 30 71.001s44.333 25 73 25c30.667 0 57.667 -10 81 -30s35 -48.333 35 -85c0 -12 -1 -23.167 -3 -33.5
s-6.5 -22.166 -13.5 -35.499s-16.5 -25.333 -28.5 -36s-29.167 -20.834 -51.5 -30.501s-48.833 -17.5 -79.5 -23.5c-22.667 -4 -37 -8.16699 -43 -12.5s-9 -10.5 -9 -18.5c0 -10.667 4.66699 -16 14 -16c1.33301 0 5.16602 0.833008 11.499 2.5s15.166 3.16699 26.499 4.5
s23.666 2 36.999 2c32.667 0 60.167 -4.66699 82.5 -14s38.666 -21.833 48.999 -37.5s17.5 -30.334 21.5 -44.001s6 -28.167 6 -43.5c0 -42 -13.333 -74.333 -40 -97s-58.334 -34 -95.001 -34c-34 0 -62.833 8.83301 -86.5 26.5s-35.5 41.834 -35.5 72.501
c0 14.667 2.33301 27.834 7 39.501s9.33398 20.667 14.001 27s7 10.5 7 12.5c0 5.33301 -1.33301 8.5 -4 9.5s-8 1.5 -16 1.5c-28.667 0 -52.334 -9 -71.001 -27s-28 -41.667 -28 -71c0 -47.333 21.167 -84.166 63.5 -110.499s92.833 -39.5 151.5 -39.5c72 0 129 16 171 48
s63 77.333 63 136z" />
    <glyph glyph-name="four" unicode="4" horiz-adv-x="623" 
d="M492 0l11 15l-11 17c-25.333 32.667 -39 72 -41 118h64c14 11.333 21 31.333 21 60h-86v235l-102 -11l-12 -15c14 -22 21 -50.333 21 -85v-124h-238l200 441l-17 15h-59l-214 -516h328v-27c0 -29.333 -3.5 -48.833 -10.5 -58.5s-22.833 -17.5 -47.5 -23.5l-39 -9l10 -32
h222z" />
    <glyph glyph-name="five" unicode="5" horiz-adv-x="610" 
d="M502 179c0 58 -19.667 106.833 -59 146.5s-98 59.5 -176 59.5c-39.333 0 -77.666 -4.33301 -114.999 -13l13 210h272c20.667 17.333 31 45.333 31 84h-361l-17 -309l20 -35c42 8 75 12 99 12c32 0 60 -3.5 84 -10.5s42.667 -15.833 56 -26.5
s24.166 -23.334 32.499 -38.001s13.666 -28.334 15.999 -41.001s3.5 -25.667 3.5 -39c0 -42 -13.5 -74.667 -40.5 -98s-58.5 -35 -94.5 -35c-34 0 -62.833 8.83301 -86.5 26.5s-35.5 41.834 -35.5 72.501c0 14.667 2.33301 27.834 7 39.501s9.33398 20.667 14.001 27
s7 10.5 7 12.5c0 5.33301 -1.33301 8.5 -4 9.5s-8 1.5 -16 1.5c-28.667 0 -52.334 -9 -71.001 -27s-28 -41.667 -28 -71c0 -47.333 21.167 -84.166 63.5 -110.499s92.833 -39.5 151.5 -39.5c70.667 0 127.334 17.167 170.001 51.5s64 81.166 64 140.499z" />
    <glyph glyph-name="six" unicode="6" horiz-adv-x="662" 
d="M190 181c0 40.667 10.668 75 32.001 103s51 42 89 42c36.667 0 64 -12.833 82 -38.5s27 -58.834 27 -99.501c0 -42.667 -10.667 -77 -32 -103s-51.333 -39 -90 -39c-36.667 0 -63.834 12.333 -81.501 37s-26.5 57.334 -26.5 98.001zM533.001 202
c0 54.667 -16.166 99.501 -48.499 134.501s-78.833 52.5 -139.5 52.5c-50 0 -91.333 -11.833 -124 -35.5s-55 -54.834 -67 -93.501c-0.666992 8.66699 -1 23 -1 43c0 38.667 3.16699 76.167 9.5 112.5s16.166 70.833 29.499 103.5s32.166 58.834 56.499 78.501
s52.833 29.5 85.5 29.5c28.667 0 51.667 -8.5 69 -25.5s26 -39.833 26 -68.5c0 -17.333 -4.33301 -34.333 -13 -51l-14 -26c0 -6.66699 6.33301 -10 19 -10c28.667 0 52.334 10 71.001 30s28 45.667 28 77c0 37.333 -17 67.666 -51 90.999s-78.333 35 -133 35
c-60.667 0 -112.834 -17.333 -156.501 -52s-75.667 -79.667 -96 -135s-30.5 -118 -30.5 -188c0 -90 22.5 -165.333 67.5 -226s108.5 -91 190.5 -91c70.667 0 125.334 20.333 164.001 61s58 92 58 154z" />
    <glyph glyph-name="seven" unicode="7" horiz-adv-x="508" 
d="M245 0l17.999 15l-9 17c-9.33301 16 -14 34.667 -14 56c0 28.667 7.66699 61 23 97l189 481h-450c0 -39.333 10.667 -67.333 32 -84h319l-175 -453c-11.333 -28 -23.666 -48.667 -36.999 -62s-32.333 -23.333 -57 -30l-21 -5l11 -32h171z" />
    <glyph glyph-name="eight" unicode="8" horiz-adv-x="631" 
d="M284 396c-44.667 19.333 -76 38.668 -94 58.001s-27 41.666 -27 66.999c0 29.333 11 54.833 33 76.5s49.667 32.5 83 32.5c39.333 0 70 -10.833 92 -32.5s33 -50.167 33 -85.5c0 -48 -20.333 -95.667 -61 -143zM148 156.002c0 51.333 23.332 101.669 69.999 151.002
l99 -43c36.667 -16.667 62.834 -33.667 78.501 -51s23.5 -41.333 23.5 -72c0 -32.667 -13 -58.334 -39 -77.001s-59.667 -28 -101 -28c-40.667 0 -72.667 11.167 -96 33.5s-35 51.166 -35 86.499zM520.999 166.005c0 75.333 -43.6641 135.666 -130.997 180.999
c76 45.333 114 100 114 164c0 58 -20.833 101 -62.5 129s-95.834 42 -162.501 42c-68.667 0 -121.334 -18.333 -158.001 -55s-55 -81 -55 -133c0 -38.667 8.83301 -71 26.5 -97s44.5 -49 80.5 -69c-82 -48.667 -123 -107 -123 -175c0 -57.333 21 -99.666 63 -126.999
s97 -41 165 -41c75.333 0 134.666 16.333 177.999 49s65 76.667 65 132z" />
    <glyph glyph-name="nine" unicode="9" horiz-adv-x="662" 
d="M183 470c0 40.667 10.5 75.666 31.5 104.999s51.167 44 90.5 44c36 0 64.333 -15 85 -45s31 -65 31 -105c0 -39.333 -11 -73.666 -33 -102.999s-52.667 -44 -92 -44c-36 0 -63.833 14.667 -83.5 44s-29.5 64 -29.5 104zM533 315.999
c0 68.667 -7.66895 129.5 -23.002 182.5s-41.166 96.333 -77.499 130s-81.166 50.5 -134.499 50.5c-70.667 0 -126 -23 -166 -69s-60 -99.333 -60 -160c0 -53.333 16 -99 48 -137s76.333 -57 133 -57c42 0 78.667 9.66699 110 29s55 45.333 71 78
c0.666992 -10.667 1 -27.334 1 -50.001c0 -48.667 -4.66699 -92.334 -14 -131.001s-26.833 -72 -52.5 -100s-58.5 -42 -98.5 -42c-27.333 0 -49.666 7.5 -66.999 22.5s-26 34.833 -26 59.5c0 15.333 3.66699 30.333 11 45s11 22.334 11 23.001c0 7.33301 -6.66699 11 -20 11
c-26.667 0 -48.834 -7.66699 -66.501 -23s-26.5 -35.666 -26.5 -60.999c0 -38 17.333 -69.167 52 -93.5s79 -36.5 133 -36.5c85.333 0 150.333 30.667 195 92s67 140.333 67 237z" />
    <glyph glyph-name="colon" unicode=":" horiz-adv-x="196" 
d="M146 47c0 12.667 -7 26.167 -21 40.5s-26.667 21.5 -38 21.5s-23.5 -7.16699 -36.5 -21.5s-19.5 -27.833 -19.5 -40.5c0 -11.333 6.66699 -24.166 20 -38.499s25.333 -21.5 36 -21.5c11.333 0 24 7.16699 38 21.5s21 27.166 21 38.499zM146 381
c0 12.667 -7 26.167 -21 40.5s-26.667 21.5 -38 21.5s-23.5 -7.16699 -36.5 -21.5s-19.5 -27.833 -19.5 -40.5c0 -11.333 6.66699 -24.166 20 -38.499s25.333 -21.5 36 -21.5c11.333 0 24 7.16699 38 21.5s21 27.166 21 38.499z" />
    <glyph glyph-name="semicolon" unicode=";" horiz-adv-x="196" 
d="M146 381c0 12.667 -7 26.167 -21 40.5s-26.667 21.5 -38 21.5s-23.5 -7.16699 -36.5 -21.5s-19.5 -27.833 -19.5 -40.5c0 -11.333 6.66699 -24.166 20 -38.499s25.333 -21.5 36 -21.5c11.333 0 24 7.16699 38 21.5s21 27.166 21 38.499zM70 -76
c26 28 45.167 51.333 57.5 70s18.5 36.667 18.5 54c0 41.333 -20.333 62 -61 62c-14.667 0 -31.667 -3.66699 -51 -11l-17 -6l4 -22l18 -12c14 -10 21 -21 21 -33c0 -10 -3.66699 -23 -11 -39l-43 -84l28 -18z" />
    <glyph glyph-name="less" unicode="&#x3c;" horiz-adv-x="636" 
d="M484 209l-313 122l313 123v72l-393 -160v-69l393 -160v72z" />
    <glyph glyph-name="equal" unicode="=" horiz-adv-x="636" 
d="M484 397v69h-393v-69h393zM484 196v70h-393v-70h393z" />
    <glyph glyph-name="greater" unicode="&#x3e;" horiz-adv-x="636" 
d="M484 297v69l-393 160v-72l314 -123l-314 -122v-72z" />
    <glyph glyph-name="question" unicode="?" horiz-adv-x="551" 
d="M274 47c0 12.667 -6.83301 26.167 -20.5 40.5s-26.167 21.5 -37.5 21.5s-23.5 -7.16699 -36.5 -21.5s-19.5 -27.833 -19.5 -40.5c0 -11.333 6.66699 -24.166 20 -38.499s25.333 -21.5 36 -21.5c11.333 0 23.833 7.16699 37.5 21.5s20.5 27.166 20.5 38.499zM228 200
l3.99902 18.001c5.33301 17.333 13.5 32.666 24.5 45.999s28.833 31.333 53.5 54c86.667 84.667 130 159.334 130 224.001c0 50 -18.833 89.5 -56.5 118.5s-84.5 43.5 -140.5 43.5c-57.333 0 -104.333 -11.833 -141 -35.5s-55 -54.5 -55 -92.5
c0 -26.667 8.5 -48.667 25.5 -66s38.833 -26 65.5 -26c11.333 0 17 3.66699 17 11c0 2 -1.83301 5.66699 -5.5 11s-7.16699 13.666 -10.5 24.999s-5 24.666 -5 39.999c0 24.667 7.83301 44.167 23.5 58.5s36.834 21.5 63.501 21.5c34.667 0 62.167 -9.66699 82.5 -29
s30.5 -48 30.5 -86c0 -38.667 -11.833 -78.667 -35.5 -120s-72.5 -93.666 -146.5 -156.999l58 -59h18z" />
    <glyph glyph-name="at" unicode="@" horiz-adv-x="913" 
d="M307 261c0 41.333 9.83203 78 29.499 110s47.167 48 82.5 48c22.667 0 42.667 -7 60 -21l-16 -185c-27.333 -39.333 -55.666 -59 -84.999 -59c-20 0 -36.833 10 -50.5 30s-20.5 45.667 -20.5 77zM577.999 -47l-22.998 40c-45.333 -28 -100.666 -42 -165.999 -42
c-77.333 0 -138.166 26 -182.499 78s-66.5 119 -66.5 201c0 96.667 28.167 178 84.5 244s128.166 99 215.499 99c76 0 136 -25.833 180 -77.5s66 -118.167 66 -199.5c0 -67.333 -10.5 -119.833 -31.5 -157.5s-42.5 -56.5 -64.5 -56.5c-14 0 -25.5 6.5 -34.5 19.5
s-13.5 31.5 -13.5 55.5c0 8 6.66699 89.667 20 245c0.666992 7.33301 4.33398 16 11.001 26l9 16l-7 10c-10 0.666992 -34 3.83398 -72 9.50098s-65.667 8.5 -83 8.5c-60.667 0 -109.834 -21.167 -147.501 -63.5s-56.5 -99.5 -56.5 -171.5
c0 -48.667 10.833 -86.334 32.5 -113.001s49.167 -40 82.5 -40c49.333 0 93.666 23.667 132.999 71c0 -38.667 10.333 -68.5 31 -89.5s48 -31.5 82 -31.5c42 0 78.667 13.833 110 41.5s54.166 60.667 68.499 99s21.5 77.5 21.5 117.5c0 95.333 -30.667 175 -92 239
s-141.333 96 -240 96c-109.333 0 -202.333 -38.833 -279 -116.5s-115 -170.5 -115 -278.5c0 -95.333 30.667 -174.833 92 -238.5s141.666 -95.5 240.999 -95.5c67.333 0 132 18.333 194 55z" />
    <glyph glyph-name="A" unicode="A" horiz-adv-x="654" 
d="M313 571l89 -260h-175zM167 0l17.001 15.001l-7 17c-8.66699 14.667 -13 33.334 -13 56.001s6.66699 55 20 97l23 68h214l44 -130c7.33301 -24.667 11 -39.334 11 -44.001c0 -21.333 -13.667 -35.333 -41 -42l-22 -5l10 -32h210l12 15
c-22.667 17.333 -39.834 33.333 -51.501 48s-22.5 36.667 -32.5 66l-187 537h-178l-12 -32l22 -5c27.333 -6 41 -19.667 41 -41c0 -8.66699 -3.33301 -23.667 -10 -45l-146 -420c-9.33301 -28.667 -19.5 -48.334 -30.5 -59.001s-29.167 -19.667 -54.5 -27l-21 -5l12 -32h170
z" />
    <glyph glyph-name="B" unicode="B" horiz-adv-x="603" 
d="M215 170l0.000976562 414.001c0 29.333 20.667 44 62 44c47.333 0 84.166 -12.333 110.499 -37s39.5 -56.667 39.5 -96c0 -40.667 -11.667 -73.334 -35 -98.001s-56 -37 -98 -37c-10.667 0 -20.834 0.833008 -30.501 2.5s-15.167 2.5 -16.5 2.5
c-8.66699 0 -13 -5.33301 -13 -16c0 -9.33301 4.66699 -16.333 14 -21c18.667 -8 39.334 -12 62.001 -12c44 0 79.333 -12.5 106 -37.5s40 -55.5 40 -91.5c0 -41.333 -12.333 -74.833 -37 -100.5s-58.667 -38.5 -102 -38.5c-12 0 -22.667 1 -32 3s-20 6.5 -32 13.5
s-21.333 19.5 -28 37.5s-10 40.667 -10 68zM312.001 0.000976562c160 0 239.998 61.001 239.998 183.001c0 33.333 -11.667 63.833 -35 91.5s-55.333 48.5 -96 62.5c64.667 30.667 97 84 97 160c0 54 -20.5 97.833 -61.5 131.5s-104.167 50.5 -189.5 50.5
c-39.333 0 -80.666 -4.16699 -123.999 -12.5s-78.666 -17.833 -105.999 -28.5l11 -35h54c13.333 0 20 -7 20 -21v-459c0 -28.667 -3.83301 -48.334 -11.5 -59.001s-23.5 -19.667 -47.5 -27l-22 -5l12 -32h259z" />
    <glyph glyph-name="C" unicode="C" horiz-adv-x="572" 
d="M546 104c1.33301 4 2.00098 6.66895 2.00098 8.00195c0 6 -3.33301 11.833 -10 17.5s-13.334 8.5 -20.001 8.5c-2 0 -4 -1.33301 -6 -4c-37.333 -55.333 -95.666 -83 -174.999 -83c-60 0 -108.333 27 -145 81s-55 120.667 -55 200c0 36.667 3.5 71.667 10.5 105
s17.667 64.833 32 94.5s34.666 53.167 60.999 70.5s56.833 26 91.5 26c35.333 0 63.833 -9.16699 85.5 -27.5s32.5 -41.833 32.5 -70.5c0 -14.667 -2.33301 -28.334 -7 -41.001s-9.5 -22.5 -14.5 -29.5s-7.5 -11.5 -7.5 -13.5c0 -7.33301 7 -11 21 -11c28 0 51.333 10 70 30
s28 46 28 78c0 40.667 -19.333 73.5 -58 98.5s-88.667 37.5 -150 37.5c-97.333 0 -171.5 -32.5 -222.5 -97.5s-76.5 -148.167 -76.5 -249.5c0 -65.333 10.5 -123.333 31.5 -174s54.167 -91.834 99.5 -123.501s100.333 -47.5 165 -47.5c90 0 162.333 39 217 117z" />
    <glyph glyph-name="D" unicode="D" horiz-adv-x="679" 
d="M210 163v421c0 29.333 30.333 44 91 44c54 0 100.167 -14.333 138.5 -43s65.833 -64.667 82.5 -108s25 -91 25 -143c0 -191.333 -79 -287 -237 -287c-30 0 -54.167 8.16699 -72.5 24.5s-27.5 46.833 -27.5 91.5zM339 0c99.333 0 175.5 31 228.5 93s79.5 141.667 79.5 239
c0 38.667 -3.66699 74.334 -11 107.001s-19.833 64 -37.5 94s-40 55.667 -67 77s-61.5 38.166 -103.5 50.499s-90 18.5 -144 18.5c-90 0 -173.667 -13.667 -251 -41l11 -35h53c14 0 21 -7 21 -21v-469c0 -23.333 -5 -40.333 -15 -51s-24.667 -19 -44 -25l-22 -5l11 -32h291z
" />
    <glyph glyph-name="E" unicode="E" horiz-adv-x="564" 
d="M507 -13v158.999l-31 10l-6 -21c-8.66699 -32.667 -19.5 -54.5 -32.5 -65.5s-35.833 -16.5 -68.5 -16.5h-100c-24 0 -39.833 4.33301 -47.5 13s-11.5 27.667 -11.5 57v189h78c34 0 58 -3.33301 72 -10s24 -20.667 30 -42l6 -23l31 11v159l-18 10l-8 -10
c-19.333 -28 -43.666 -42 -72.999 -42h-118v178c0 28.667 3.83301 47.667 11.5 57s23.5 14 47.5 14h91c32 0 54.5 -5.5 67.5 -16.5s23.833 -33.167 32.5 -66.5l5 -22l32 11v165l-14 12l-18 -12c-16 -12.667 -51 -19 -105 -19h-283l-13 -15l13 -17
c27.333 -36.667 41 -88 41 -154v-363c0 -27.333 -3.83301 -46.166 -11.5 -56.499s-22.834 -18.833 -45.501 -25.5l-20 -5l11 -30h391c18 0 31 -4.33301 39 -13l7 -10z" />
    <glyph glyph-name="F" unicode="F" horiz-adv-x="507" 
d="M257 0l10.999 31.9971l-22 5c-24 7.33301 -39.833 16.333 -47.5 27s-11.5 30.334 -11.5 59.001v180h70c33.333 0 57.166 -3.66699 71.499 -11s24.5 -21.666 30.5 -42.999l5 -21l32 11v159l-19 11l-8 -11c-19.333 -28.667 -43.333 -43 -72 -43h-110v188
c0 28.667 3.83301 47.667 11.5 57s23.5 14 47.5 14h82c32.667 0 55.334 -5.5 68.001 -16.5s23.334 -33.167 32.001 -66.5l7 -22l30 11v165l-14 12l-16 -12c-18 -12.667 -53.667 -19 -107 -19h-275l-12 -15l12 -17c28.667 -36.667 43 -88 43 -154v-294
c0 -37.333 -3.16699 -67.166 -9.5 -89.499s-17.5 -43.833 -33.5 -64.5l-12 -17l12 -15h204z" />
    <glyph glyph-name="G" unicode="G" horiz-adv-x="640" 
d="M566 15l-0.000976562 106.995c0 66 14.333 118 43 156l12 16l-12 16h-195l-11 -32l20 -7c24 -6.66699 40.167 -15.667 48.5 -27s12.5 -31 12.5 -59v-47c-41.333 -41.333 -93.333 -62 -156 -62c-58.667 0 -105.834 26.5 -141.501 79.5s-53.5 118.833 -53.5 197.5
c0 32 3.66699 63.167 11 93.5s18.5 59.5 33.5 87.5s36.5 50.667 64.5 68s60.333 26 97 26c40 0 72 -10 96 -30s36 -46 36 -78c0 -15.333 -2.16699 -29.166 -6.5 -41.499s-8.66602 -22 -12.999 -29s-6.5 -11.5 -6.5 -13.5c0 -5.33301 0.833008 -8.66602 2.5 -9.99902
s7.16699 -2 16.5 -2c28 0 51.5 10.333 70.5 31s28.5 47 28.5 79c0 42.667 -20.833 77.5 -62.5 104.5s-95.5 40.5 -161.5 40.5c-98 0 -173.5 -31.667 -226.5 -95s-79.5 -141.666 -79.5 -234.999c0 -97.333 24.667 -177.333 74 -240s120.333 -94 213 -94
c59.333 0 114 20.667 164 62v-88c0 -70.667 -10.167 -121.5 -30.5 -152.5s-50.833 -46.5 -91.5 -46.5c-29.333 0 -52.5 8.33301 -69.5 25s-25.5 37.334 -25.5 62.001c0 20 3.83301 37.333 11.5 52s15.334 25.834 23.001 33.501s11.5 12.5 11.5 14.5
c0 6.66699 -5.66699 10 -17 10c-37.333 0 -66.333 -11 -87 -33s-31 -48.667 -31 -80c0 -36 14.667 -67.167 44 -93.5s71 -39.5 125 -39.5c146 0 219 91.333 219 274z" />
    <glyph glyph-name="H" unicode="H" horiz-adv-x="722" 
d="M276 0l9 30.002l-19 5c-22.667 6.66699 -37.667 15.167 -45 25.5s-11 29.166 -11 56.499v193h303v-187c0 -28.667 -4 -48.334 -12 -59.001s-24 -19.667 -48 -27l-20 -5l11 -32h227l10 30l-19 5c-23.333 6.66699 -38.833 15.334 -46.5 26.001s-11.5 29.334 -11.5 56.001
v363c0 65.333 14 116.666 42 153.999l14 17l-14 15h-202l-11 -32l20 -5c24 -6.66699 40 -15.667 48 -27s12 -31 12 -59v-177h-303v114c0 66.667 14 118 42 154l12 17l-12 15h-204l-11 -32l22 -5c23.333 -6.66699 39 -15.667 47 -27s12 -31 12 -59v-420
c0 -28.667 -3.83301 -48.334 -11.5 -59.001s-23.5 -19.667 -47.5 -27l-22 -5l11 -32h228z" />
    <glyph glyph-name="I" unicode="I" horiz-adv-x="327" 
d="M276 0l9 30.002l-19 5c-22.667 6.66699 -37.667 15.167 -45 25.5s-11 29.166 -11 56.499v363c0 66.667 14 118 42 154l12 17l-12 15h-204l-11 -32l22 -5c23.333 -6.66699 39 -15.667 47 -27s12 -31 12 -59v-420c0 -28.667 -3.83301 -48.334 -11.5 -59.001
s-23.5 -19.667 -47.5 -27l-22 -5l11 -32h228z" />
    <glyph glyph-name="J" unicode="J" horiz-adv-x="435" 
d="M345 219l0.00195312 260.998c0 67.333 13.333 118.666 40 153.999l13 17l-13 15h-202l-11 -32l21 -5c24 -6.66699 40 -15.667 48 -27s12 -31 12 -59v-380c0 -85.333 -32.333 -128 -97 -128c-26 0 -46.5 8.33301 -61.5 25s-22.5 37.334 -22.5 62.001
c0 19.333 3.66699 36.333 11 51s14.833 25.834 22.5 33.501s11.5 12.834 11.5 15.501c0 6.66699 -6 10 -18 10c-36.667 0 -65.334 -11 -86.001 -33s-31 -48.333 -31 -79c0 -36 14.667 -67.167 44 -93.5s70.666 -39.5 123.999 -39.5c130 0 195 77.333 195 232z" />
    <glyph glyph-name="K" unicode="K" horiz-adv-x="620" 
d="M276 0l9 30.002l-19 5c-22.667 6.66699 -37.667 15.167 -45 25.5s-11 29.166 -11 56.499v363c0 66.667 14 118 42 154l12 17l-12 15h-204l-11 -32l22 -5c23.333 -6.66699 39 -15.667 47 -27s12 -31 12 -59v-420c0 -28.667 -3.83301 -48.334 -11.5 -59.001
s-23.5 -19.667 -47.5 -27l-22 -5l11 -32h228zM603 24.002l-15.002 26.999c-11.333 -8.66699 -23.333 -13 -36 -13c-11.333 0 -23.333 9.33301 -36 28l-118 212c-15.333 26.667 -36.666 46.334 -63.999 59.001l167 242c18.667 26.667 42.667 43.334 72 50.001l22 5l-11 32
h-169l-17 -15l8 -17c8 -20 12 -33.667 12 -41c0 -14.667 -6.33301 -32.334 -19 -53.001l-127 -187h-21c-12.667 0 -19 -7.33301 -19 -22c0 -6 1.33301 -9.33301 4 -10c22 -10.667 38 -24.667 48 -42l111 -201c16.667 -30.667 34.334 -53.5 53.001 -68.5s42 -22.5 70 -22.5
c32.667 0 61 12.333 85 37z" />
    <glyph glyph-name="L" unicode="L" horiz-adv-x="509" 
d="M488 -13l0.000976562 158.999l-32 10l-5 -21c-8.66699 -32.667 -19.667 -54.5 -33 -65.5s-36 -16.5 -68 -16.5h-81c-24 0 -39.833 4.33301 -47.5 13s-11.5 27.667 -11.5 57v357c0 66.667 14 118 42 154l12 17l-12 15h-204l-11 -32l22 -5
c23.333 -6.66699 39 -15.667 47 -27s12 -31 12 -59v-426c0 -27.333 -3.83301 -46.166 -11.5 -56.499s-22.834 -18.833 -45.501 -25.5l-20 -5l11 -30h370c20.667 0 34 -4.33301 40 -13l7 -10z" />
    <glyph glyph-name="M" unicode="M" horiz-adv-x="854" 
d="M198 0l15.001 15.0039l-12 17c-22 31.333 -33 70 -33 116c0 7.33301 1.66699 37.666 5 90.999l21 287l194 -460h50l194 460l28 -388c0 -3.33301 0.166992 -9.33301 0.5 -18s0.5 -14.334 0.5 -17.001c0 -18.667 -4 -32.834 -12 -42.501s-22 -17.5 -42 -23.5l-21 -5l11 -32
h204l12 15c-37.333 37.333 -59 92.333 -65 165l-18 255c-2.66699 34.667 -4 62 -4 82c0 46.667 11.333 85.667 34 117l10 17l-14 15h-134l-196 -467l-192 467h-169l-10 -32l23 -5c20 -5.33301 33.833 -12.5 41.5 -21.5s11.5 -24.167 11.5 -45.5
c0 -29.333 -1.33301 -53.333 -4 -72l-26 -367c-2 -28.667 -7.33301 -48.334 -16 -59.001s-25.334 -19.667 -50.001 -27l-21 -5l10 -32h174z" />
    <glyph glyph-name="N" unicode="N" horiz-adv-x="722" 
d="M219 0l12 15.001l-12 17c-15.333 20 -26 41.167 -32 63.5s-9 52.5 -9 90.5v339l353 -525h94l11 15l-11 17c-9.33301 13.333 -14 30 -14 50v398c0 66 13.667 117.333 41 154l14 17l-14 15h-174l-13 -32l22 -5c24 -6.66699 40 -15.667 48 -27s12 -31 12 -59v-403l-355 526
h-149l-11 -32l21 -5c23.333 -6.66699 39 -15.667 47 -27s12 -31 12 -59v-420c0 -28.667 -3.83301 -48.334 -11.5 -59.001s-23.5 -19.667 -47.5 -27l-21 -5l11 -32h176z" />
    <glyph glyph-name="O" unicode="O" horiz-adv-x="679" 
d="M133 324c0 86 19 157.999 57 215.999s89.667 87 155 87c37.333 0 69.833 -9.83301 97.5 -29.5s48.667 -45.167 63 -76.5s24.833 -63.166 31.5 -95.499s10 -64.5 10 -96.5c0 -82 -19 -150.5 -57 -205.5s-89.667 -82.5 -155 -82.5c-64.667 0 -114.5 26.667 -149.5 80
s-52.5 121 -52.5 203zM647 331.999c0 101.333 -26.5 184.5 -79.5 249.5s-129.167 97.5 -228.5 97.5s-175.166 -32.5 -227.499 -97.5s-78.5 -148.167 -78.5 -249.5s26.167 -184.166 78.5 -248.499s128.166 -96.5 227.499 -96.5s175.5 32.167 228.5 96.5
s79.5 147.166 79.5 248.499z" />
    <glyph glyph-name="P" unicode="P" horiz-adv-x="552" 
d="M252 0l11.998 15l-12 17c-16 20 -27 41.167 -33 63.5s-9 52.5 -9 90.5v398c0 29.333 23.333 44 70 44c50 0 88.833 -16.167 116.5 -48.5s41.5 -73.833 41.5 -124.5c0 -50 -13 -90 -39 -120s-62.333 -45 -109 -45c-10.667 0 -20.5 1.16699 -29.5 3.5
s-14.167 3.5 -15.5 3.5c-10 0 -15 -7.66699 -15 -23c0 -10 8.16699 -17.833 24.5 -23.5s35.5 -8.5 57.5 -8.5c72.667 0 127.834 20.667 165.501 62s56.5 93 56.5 155c0 64.667 -22.167 117.5 -66.5 158.5s-112.166 61.5 -203.499 61.5c-82.667 0 -159.667 -13.667 -231 -41
l11 -35h53c14 0 21 -7 21 -21v-459c0 -28 -4 -47.833 -12 -59.5s-23.667 -20.5 -47 -26.5l-22 -5l11 -32h204z" />
    <glyph glyph-name="Q" unicode="Q" horiz-adv-x="679" 
d="M303 235c-36 0 -64.501 -8.83105 -85.501 -26.498s-31.5 -41.834 -31.5 -72.501c0 -9.33301 0.666992 -15.333 2 -18c-36.667 50 -55 118.667 -55 206c0 89.333 19.667 162.166 59 218.499s90.333 84.5 153 84.5c58.667 0 107 -27.833 145 -83.5s57 -127.167 57 -214.5
c0 -86 -21 -156.667 -63 -212c-49.333 78.667 -109.666 118 -180.999 118zM226.999 123.002c0 18 5.50195 32.334 16.502 43.001s25.5 16 43.5 16c24.667 0 49.167 -10.333 73.5 -31s45.5 -49.334 63.5 -86.001c-26.667 -16 -56.334 -24 -89.001 -24
s-58.834 7.5 -78.501 22.5s-29.5 34.833 -29.5 59.5zM727.001 -128.997c0 6 -3.00098 9 -9.00098 9c-0.666992 0 -6.5 -2 -17.5 -6s-22.167 -6 -33.5 -6c-44.667 0 -77 24 -97 72l-47 103c82.667 62 124 158.333 124 289c0 106.667 -27.667 191.167 -83 253.5
s-130.333 93.5 -225 93.5c-94 0 -168.5 -31.167 -223.5 -93.5s-82.5 -146.833 -82.5 -253.5c0 -106 27.333 -190 82 -252s129.334 -93 224.001 -93c41.333 0 79 5.66699 113 17l36 -78c39.333 -88 90 -132 152 -132c24 0 44.5 7.33301 61.5 22s25.5 33 25.5 55z" />
    <glyph glyph-name="R" unicode="R" horiz-adv-x="593" 
d="M577 24l-17 27c-11.333 -8.66699 -23 -13 -35 -13c-15.333 0 -27.333 9.33301 -36 28l-86 176c-8.66699 17.333 -21.334 32.333 -38.001 45c47.333 11.333 84.166 33.5 110.499 66.5s39.5 73.833 39.5 122.5c0 64 -23.667 113.833 -71 149.5s-113.666 53.5 -198.999 53.5
c-36 0 -76 -4 -120 -12s-81 -17.667 -111 -29l12 -35h53c13.333 0 20 -7 20 -21v-459c0 -28 -4 -47.833 -12 -59.5s-23.667 -20.5 -47 -26.5l-22 -5l12 -32h203l12 15l-12 17c-16 22 -27.167 44 -33.5 66s-9.5 51.333 -9.5 88v398c0 29.333 24 44 72 44
s86.167 -14.167 114.5 -42.5s42.5 -66.166 42.5 -113.499c0 -44.667 -13.333 -79.834 -40 -105.501s-62.667 -38.5 -108 -38.5c-11.333 0 -21.333 1 -30 3s-13.334 3 -14.001 3c-10 0 -15 -7 -15 -21c0 -9.33301 5.66699 -17 17 -23
c21.333 -7.33301 35.833 -13.833 43.5 -19.5s14.167 -14.167 19.5 -25.5l71 -149c18.667 -40.667 37.334 -69 56.001 -85s42.334 -24 71.001 -24c30 0 59 12.333 87 37z" />
    <glyph glyph-name="S" unicode="S" horiz-adv-x="530" 
d="M484 168c0 42.667 -11.668 78.8369 -35.001 108.504s-51.5 52.667 -84.5 69s-66.167 31.666 -99.5 45.999s-61.666 32 -84.999 53s-35 46.167 -35 75.5c0 30 10 55.5 30 76.5s48.333 31.5 85 31.5c34.667 0 62.834 -9.16699 84.501 -27.5s32.5 -41.833 32.5 -70.5
c0 -14.667 -2.33301 -28.334 -7 -41.001s-9.33398 -22.5 -14.001 -29.5s-7 -11.5 -7 -13.5c0 -7.33301 6.33301 -11 19 -11c28 0 51.5 10.167 70.5 30.5s28.5 46.166 28.5 77.499c0 40 -19.333 72.667 -58 98s-88.334 38 -149.001 38
c-64.667 0 -114.834 -17.667 -150.501 -53s-53.5 -77.666 -53.5 -126.999c0 -30.667 6.16699 -57.834 18.5 -81.501s28.333 -42.667 48 -57s41.334 -27.333 65.001 -39l71 -33.5c23.667 -10.667 45.334 -22 65.001 -34s35.667 -27.167 48 -45.5s18.5 -39.833 18.5 -64.5
c0 -32.667 -11 -58.334 -33 -77.001s-50.667 -28 -86 -28c-40 0 -72.333 10.167 -97 30.5s-37 46.833 -37 79.5c0 15.333 2.5 29.333 7.5 42s10 22.5 15 29.5s7.5 11.5 7.5 13.5c0 7.33301 -6.66699 11 -20 11c-30 0 -55.167 -10.167 -75.5 -30.5s-30.5 -46.5 -30.5 -78.5
c0 -44 21.5 -79.833 64.5 -107.5s98.167 -41.5 165.5 -41.5c68 0 120.5 16.333 157.5 49s55.5 76.667 55.5 132z" />
    <glyph glyph-name="T" unicode="T" horiz-adv-x="552" 
d="M392 0l10.998 31.999l-22 5c-24 7.33301 -40 16.333 -48 27s-12 30.334 -12 59.001v420c0 28.667 2.16699 47.667 6.5 57s12.833 14 25.5 14h43c32 0 54.5 -5.5 67.5 -16.5s24.167 -33.167 33.5 -66.5l5 -22l32 11v165l-16 12l-16 -12c-16 -12.667 -51 -19 -105 -19h-242
c-52.667 0 -87.667 6.33301 -105 19l-16 12l-16 -12v-165l32 -11l5 22c9.33301 33.333 20.333 55.5 33 66.5s35.334 16.5 68.001 16.5h42c13.333 0 22 -4.66699 26 -14s6 -28.333 6 -57v-357c0 -38 -3.16699 -68.167 -9.5 -90.5s-17.166 -43.5 -32.499 -63.5l-11 -17l11 -15
h204z" />
    <glyph glyph-name="U" unicode="U" horiz-adv-x="685" 
d="M586 203l0.000976562 277.001c0 66.667 14 118 42 154l12 17l-12 15h-176l-12 -32l22 -5c24 -6.66699 39.833 -15.667 47.5 -27s11.5 -31 11.5 -59v-340c0 -48.667 -15.333 -87 -46 -115s-69.334 -42 -116.001 -42c-47.333 0 -86.5 14 -117.5 42s-46.5 66.333 -46.5 115
v277c0 66 13.667 117.333 41 154l12 17l-12 15h-202l-13 -32l23 -5c24 -6.66699 39.833 -15.667 47.5 -27s11.5 -31 11.5 -59v-340c0 -72.667 22.5 -126.834 67.5 -162.501s103.833 -53.5 176.5 -53.5c71.333 0 129 18 173 54s66 90 66 162z" />
    <glyph glyph-name="V" unicode="V" horiz-adv-x="633" 
d="M374 0l179.001 541.998c11.333 32.667 28.333 63.334 51 92.001l15 17l-13 15h-176l-11 -32l21 -5c27.333 -6 41.666 -27 42.999 -63c0 -19.333 -6 -47.666 -18 -84.999l-131 -403l-150 465c-7.33301 23.333 -11 38.333 -11 45c0 21.333 14.333 35 43 41l20 5l-10 32
h-210l-12 -15c22 -16.667 39 -32.5 51 -47.5s23 -36.833 33 -65.5l181 -538h105z" />
    <glyph glyph-name="W" unicode="W" horiz-adv-x="1008" 
d="M374 0l135.002 404l136 -404h106l178 542c11.333 33.333 28.666 64 51.999 92l14 17l-12 15h-177l-10 -32l20 -5c27.333 -6 41.666 -27 42.999 -63c0 -20.667 -6.33301 -49 -19 -85l-129 -403l-152 465c-6.66699 21.333 -10 36.333 -10 45c0 22 13.667 35.667 41 41l22 5
l-11 32h-208l-13 -15c22.667 -16.667 40 -32.667 52 -48s22.667 -37 32 -65l8 -29l-138 -431l-150 465c-7.33301 23.333 -11 38.333 -11 45c0 21.333 14.333 35 43 41l20 5l-10 32h-210l-12 -15c22 -16.667 39 -32.5 51 -47.5s23 -36.833 33 -65.5l181 -538h105z" />
    <glyph glyph-name="X" unicode="X" horiz-adv-x="630" 
d="M190 0l20 15l-10 17c-8 20 -12 33.667 -12 41c0 14 7 31.667 21 53l97 147l101 -141c14 -22 21 -40 21 -54c0 -21.333 -12 -35 -36 -41l-22 -5l11 -32h220l13 15c-28 23.333 -55 54 -81 92l-168 238l164 234c17.333 26.667 41 43.334 71 50.001l22 5l-12 32h-170l-19 -15
l9 -17c8.66699 -17.333 13 -31 13 -41c0 -15.333 -7 -33 -21 -53l-94 -142l-96 136c-13.333 18.667 -20 37 -20 55c0 21.333 11.667 34.666 35 39.999l22 5l-10 32h-221l-11 -15c27.333 -24 55 -57 83 -99l159 -224l-166 -241c-16.667 -25.333 -40.667 -42 -72 -50l-21 -5
l10 -32h170z" />
    <glyph glyph-name="Y" unicode="Y" horiz-adv-x="580" 
d="M405 0l11 32l-20 5c-24 6 -40.333 14.833 -49 26.5s-13 31.5 -13 59.5v158l145 255c19.333 36 41 68.667 65 98l13 17l-11 15h-177l-10 -32l20 -5c26 -6.66699 39 -23 39 -49c0 -10.667 -3.66699 -23.334 -11 -38.001l-104 -188l-101 176c-19.333 30 -29 49.333 -29 58
c0 21.333 14.333 35 43 41l20 5l-10 32h-210l-12 -15c30.667 -22.667 61.667 -61.667 93 -117l149 -261v-87c0 -36.667 -3.33301 -66.167 -10 -88.5s-18 -44.166 -34 -65.499l-12 -17l12 -15h203z" />
    <glyph glyph-name="Z" unicode="Z" horiz-adv-x="546" 
d="M510 -13l-0.000976562 159l-31 10l-7 -21c-8.66699 -33.333 -19.5 -55.333 -32.5 -66s-35.833 -16 -68.5 -16h-208l366 613h-339c-53.333 0 -88.666 6.33301 -105.999 19l-17 12l-14 -12v-165l31 -11l6 22c8.66699 33.333 19.5 55.5 32.5 66.5s35.5 16.5 67.5 16.5h197
l-369 -614h428c20 0 32.667 -4.33301 38 -13l8 -10z" />
    <glyph glyph-name="bracketleft" unicode="[" horiz-adv-x="396" 
d="M334 -103v43.998l-74 11c-18 2.66699 -30.833 7.33398 -38.5 14.001s-11.5 18.334 -11.5 35.001v613c0 16 3.83301 27.333 11.5 34s20.5 11.667 38.5 15l74 10v45h-217v-821h217z" />
    <glyph glyph-name="backslash" unicode="\" horiz-adv-x="380" 
d="M345 -59l-279 784h-66l278 -784h67z" />
    <glyph glyph-name="bracketright" unicode="]" horiz-adv-x="396" 
d="M243 -103v821.002h-217v-45l74 -10c18 -3.33301 30.833 -8.33301 38.5 -15s11.5 -18 11.5 -34v-613c0 -16.667 -3.83301 -28.334 -11.5 -35.001s-20.5 -11.334 -38.5 -14.001l-74 -11v-44h217z" />
    <glyph glyph-name="asciicircum" unicode="^" horiz-adv-x="636" 
d="M165 369l121 236l125 -236h75l-158 297h-81l-158 -297h76z" />
    <glyph glyph-name="underscore" unicode="_" horiz-adv-x="364" 
d="M329 -79c16 12.667 24 34.667 24 66h-353c-16 -14 -24 -36 -24 -66h353z" />
    <glyph glyph-name="grave" unicode="`" horiz-adv-x="295" 
d="M234 560l-145 145.001c-26 -12.667 -39 -32.334 -39 -59.001c0 -27.333 17.333 -49.333 52 -66l105 -51z" />
    <glyph glyph-name="a" unicode="a" horiz-adv-x="559" 
d="M139 230c0 60.667 12.333 107.668 37 141.001s59.667 50 105 50c33.333 0 63.333 -9 90 -27v-251c-32 -56 -74 -84 -126 -84c-30 0 -55.167 13.667 -75.5 41s-30.5 70.666 -30.5 129.999zM371 85.001c0 -34.667 5.83105 -59.667 17.498 -75s30.167 -23 55.5 -23
c32.667 0 67 19.667 103 59l-18 24c-15.333 -11.333 -30.666 -17 -45.999 -17c-19.333 0 -29 9.66699 -29 29v302c0 10.667 4 23 12 37l13 17l-12 12c-18.667 1.33301 -49 5.33301 -91 12s-73.333 10 -94 10c-74 0 -132.667 -23.167 -176 -69.5s-65 -109.5 -65 -189.5
c0 -72 16.333 -127.667 49 -167s72.334 -59 119.001 -59c62.667 0 116.667 32.667 162 98z" />
    <glyph glyph-name="b" unicode="b" horiz-adv-x="546" 
d="M505 248c0 66 -18.3379 119.835 -55.0049 161.502s-83.667 62.5 -141 62.5c-34.667 0 -66 -8.33301 -94 -25c-6 -4.66699 -9 -10.667 -9 -18c0 -4.66699 1.5 -9 4.5 -13s6.16699 -6 9.5 -6c0.666992 0 6.83398 1.83301 18.501 5.5s25.167 5.5 40.5 5.5
c38.667 0 69.667 -17.5 93 -52.5s35 -81.167 35 -138.5c0 -58.667 -12.167 -105.167 -36.5 -139.5s-57.166 -51.5 -98.499 -51.5c-37.333 0 -69.333 10 -96 30v627c0 9.33301 -2.66699 16.666 -8 21.999s-12.666 8 -21.999 8c-18 0 -38.667 -5.33301 -62 -16
s-43.666 -24 -60.999 -40l9 -24h40c12 0 18 -6.66699 18 -20v-580c40.667 -39.333 99 -59 175 -59c68.667 0 125.834 24.667 171.501 74s68.5 111.666 68.5 186.999z" />
    <glyph glyph-name="c" unicode="c" horiz-adv-x="471" 
d="M433 64c1.33301 0.666992 2.00098 3.33105 2.00098 7.99805c0 6 -2.5 11.833 -7.5 17.5s-10.167 8.5 -15.5 8.5c-4.66699 0 -7.66699 -0.666992 -9 -2c-37.333 -31.333 -78 -47 -122 -47s-78.833 16.833 -104.5 50.5s-38.5 79.167 -38.5 136.5
c0 56.667 10.833 102.167 32.5 136.5s50.167 51.5 85.5 51.5c26.667 0 48 -7.16699 64 -21.5s24 -33.5 24 -57.5c0 -15.333 -2 -28.666 -6 -39.999s-7.83301 -19.833 -11.5 -25.5s-5.5 -9.5 -5.5 -11.5c0 -6 5.66699 -9 17 -9c26.667 0 48.5 8.33301 65.5 25
s25.5 38.334 25.5 65.001c0 36 -15.167 65.5 -45.5 88.5s-69.5 34.5 -117.5 34.5c-68 0 -122.5 -22 -163.5 -66s-61.5 -103 -61.5 -177c0 -70 21.167 -127.833 63.5 -173.5s96.166 -68.5 161.499 -68.5c66 0 121.667 25.667 167 77z" />
    <glyph glyph-name="d" unicode="d" horiz-adv-x="559" 
d="M139 230c0 60.667 12.333 107.668 37 141.001s59.667 50 105 50c33.333 0 63.333 -9 90 -27v-251c-32 -56 -74 -84 -126 -84c-30 0 -55.167 13.667 -75.5 41s-30.5 70.666 -30.5 129.999zM371 85.001c0 -34.667 5.83008 -59.666 17.4971 -74.999s30.167 -23 55.5 -23
c32.667 0 67 19.667 103 59l-18 24c-15.333 -11.333 -30.666 -17 -45.999 -17c-19.333 0 -29 9.66699 -29 29v614c0 9.33301 -2.66699 16.666 -8 21.999s-12.666 8 -21.999 8c-17.333 0 -37.5 -5.33301 -60.5 -16s-43.167 -24 -60.5 -40l8 -24h41c12 0 18 -6.66699 18 -20
v-165c-22.667 7.33301 -52 11 -88 11c-74 0 -132.667 -23.167 -176 -69.5s-65 -109.5 -65 -189.5c0 -72 16.333 -127.667 49 -167s72.334 -59 119.001 -59c62.667 0 116.667 32.667 162 98z" />
    <glyph glyph-name="e" unicode="e" horiz-adv-x="490" 
d="M439 70c2.66699 5.33301 4 8.33496 4 9.00195c0 6 -2.83301 11.667 -8.5 17s-11.167 8 -16.5 8c-3.33301 0 -6 -1 -8 -3c-36 -35.333 -81.333 -53 -136 -53c-44.667 0 -78.667 15.5 -102 46.5s-35 74.167 -35 129.5c0 65.333 11.167 115.5 33.5 150.5
s53.5 52.5 93.5 52.5c27.333 0 48.833 -8.83301 64.5 -26.5s23.5 -38.834 23.5 -63.501c0 -28.667 -10.333 -53.334 -31 -74.001s-49.667 -31 -87 -31c-14.667 0 -28 2 -40 6s-18.667 6 -20 6c-8.66699 0 -13 -7 -13 -21c0 -14.667 11.833 -25.5 35.5 -32.5
s45.834 -10.5 66.501 -10.5c54 0 97 15.667 129 47s48 67.666 48 108.999c0 38 -13.667 70.167 -41 96.5s-66.333 39.5 -117 39.5c-72.667 0 -131 -22.667 -175 -68s-66 -105.333 -66 -180c0 -71.333 19.5 -128.666 58.5 -171.999s90.833 -65 155.5 -65
c75.333 0 136.666 27.667 183.999 83z" />
    <glyph glyph-name="f" unicode="f" horiz-adv-x="309" 
d="M184 -12l0.000976562 414.999h109c14.667 10.667 22 30 22 58h-131v71c0 101.333 26.667 152 80 152c18.667 0 33.667 -6 45 -18s17 -28 17 -48c0 -15.333 -2 -28.666 -6 -39.999s-7.83301 -19.666 -11.5 -24.999s-5.5 -9 -5.5 -11c0 -6.66699 6 -10 18 -10
c26 0 47.667 8.5 65 25.5s26 38.5 26 64.5c0 30.667 -13 55.667 -39 75s-59.333 29 -100 29c-56.667 0 -99.5 -23.333 -128.5 -70s-43.5 -111.667 -43.5 -195l-60 -14c-10 -2.66699 -16.167 -6.5 -18.5 -11.5s-3.5 -15.833 -3.5 -32.5h82v-487
c0 -32 -6.16699 -56.167 -18.5 -72.5s-27.833 -24.5 -46.5 -24.5c-14.667 0 -26.834 5.5 -36.501 16.5s-14.5 25.833 -14.5 44.5c0 12.667 2.16699 24 6.5 34s8.66602 17.667 12.999 23s6.5 8.66602 6.5 9.99902c0 6.66699 -5.66699 10 -17 10c-26 0 -47.667 -8 -65 -24
s-26 -36 -26 -60c0 -28.667 10.833 -51.5 32.5 -68.5s48.834 -25.5 81.501 -25.5c55.333 0 97 18.667 125 56s42 88.333 42 153z" />
    <glyph glyph-name="g" unicode="g" horiz-adv-x="558" 
d="M152 230c0 60.667 12.666 107.667 37.999 141s60.666 50 105.999 50c32.667 0 62.334 -9 89.001 -27v-224c-31.333 -56.667 -73 -85 -125 -85c-31.333 0 -57.166 11.833 -77.499 35.5s-30.5 60.167 -30.5 109.5zM467.999 -20v403.999c0 13.333 4.33301 25.666 13 36.999
l11 17l-10 12c-19.333 1.33301 -50 5.33301 -92 12s-73 10 -93 10c-74.667 0 -133.667 -23.167 -177 -69.5s-65 -109.5 -65 -189.5c0 -63.333 16.167 -112.333 48.5 -147s71.833 -52 118.5 -52c62 0 116.333 32.667 163 98v-147c0 -53.333 -9 -95.833 -27 -127.5
s-46 -47.5 -84 -47.5c-24.667 0 -44.167 8.33301 -58.5 25s-21.5 37.334 -21.5 62.001c0 20 3.66699 37.333 11 52s14.833 25.834 22.5 33.501s11.5 12.5 11.5 14.5c0 6.66699 -5.66699 10 -17 10c-37.333 0 -66.5 -11 -87.5 -33s-31.5 -48.667 -31.5 -80
c0 -36 13.833 -67.167 41.5 -93.5s67.167 -39.5 118.5 -39.5c64 0 114.167 20.833 150.5 62.5s54.5 100.5 54.5 176.5z" />
    <glyph glyph-name="h" unicode="h" horiz-adv-x="592" 
d="M575 44l-19.002 23.0029c-15.333 -12.667 -30.666 -19 -45.999 -19c-18 0 -27 10.667 -27 32v224c0 59.333 -9.33301 102.166 -28 128.499s-50.667 39.5 -96 39.5c-35.333 0 -69.333 -12.833 -102 -38.5s-57 -58.834 -73 -99.501v362
c0 9.33301 -2.66699 16.666 -8 21.999s-12.666 8 -21.999 8c-16.667 0 -36.5 -5.33301 -59.5 -16s-43.5 -24 -61.5 -40l7 -24h42c12 0 18 -6.66699 18 -20v-523c0 -24 -2.5 -40.833 -7.5 -50.5s-15.5 -15.834 -31.5 -18.501l-20 -5l11 -29h163l11 14l-11 15
c-20.667 28 -31 67.667 -31 119c0 75.333 12.5 136.333 37.5 183s57.5 70 97.5 70c28.667 0 49.167 -8 61.5 -24s18.5 -40.333 18.5 -73v-220c0 -35.333 5.5 -60.666 16.5 -75.999s29.167 -23 54.5 -23c34 0 69 19.667 105 59z" />
    <glyph glyph-name="i" unicode="i" horiz-adv-x="289" 
d="M200 610c0 12 -6.83301 25.167 -20.5 39.5s-26.5 21.5 -38.5 21.5c-10.667 0 -22.667 -7.16699 -36 -21.5s-20 -27.5 -20 -39.5c0 -11.333 6.83301 -24.166 20.5 -38.499s25.5 -21.5 35.5 -21.5c12 0 24.833 7.16699 38.5 21.5s20.5 27.166 20.5 38.499zM276 46l-17 24
c-16 -13.333 -31.667 -20 -47 -20c-18.667 0 -28 10.667 -28 32v362c0 8.66699 -2.66699 15.5 -8 20.5s-12.666 7.5 -21.999 7.5c-17.333 0 -37.333 -5.16699 -60 -15.5s-43 -23.5 -61 -39.5l7 -23h42c12 0 18 -7.33301 18 -22v-287c0 -34.667 5.66699 -59.667 17 -75
s29.666 -23 54.999 -23c33.333 0 68 19.667 104 59z" />
    <glyph glyph-name="j" unicode="j" horiz-adv-x="270" 
d="M196 610c0 12 -7 25.167 -21 39.5s-26.667 21.5 -38 21.5c-10.667 0 -22.667 -7.16699 -36 -21.5s-20 -27.5 -20 -39.5c0 -11.333 6.66699 -24.166 20 -38.499s25.333 -21.5 36 -21.5c11.333 0 24 7.16699 38 21.5s21 27.166 21 38.499zM180 -49l0.000976562 492.999
c0 8.66699 -2.66699 15.5 -8 20.5s-12.666 7.5 -21.999 7.5c-17.333 0 -37.5 -5.16699 -60.5 -15.5s-43.167 -23.5 -60.5 -39.5l7 -23h42c12 0 18 -7.33301 18 -22v-493c0 -31.333 -6.16699 -55.333 -18.5 -72s-27.833 -25 -46.5 -25c-14.667 0 -26.834 5.5 -36.501 16.5
s-14.5 26.167 -14.5 45.5c0 12.667 2 24 6 34s8.16699 17.5 12.5 22.5s6.5 8.16699 6.5 9.5c0 6.66699 -5.66699 10 -17 10c-26.667 0 -48.5 -8 -65.5 -24s-25.5 -36 -25.5 -60c0 -28.667 10.833 -51.667 32.5 -69s49.167 -26 82.5 -26c55.333 0 97.166 18.833 125.499 56.5
s42.5 88.834 42.5 153.501z" />
    <glyph glyph-name="k" unicode="k" horiz-adv-x="541" 
d="M523 46l-20 24.002c-14 -16 -30.333 -24 -49 -24c-16.667 0 -29.667 8.66699 -39 26l-71 138c42.667 4.66699 76.167 20.834 100.5 48.501s36.5 58.834 36.5 93.501c0 34 -11.167 62.5 -33.5 85.5s-53.833 34.5 -94.5 34.5c-34 0 -66.667 -12.833 -98 -38.5
s-55 -58.834 -71 -99.501v362c0 9.33301 -2.66699 16.666 -8 21.999s-12.666 8 -21.999 8c-16.667 0 -36.5 -5.33301 -59.5 -16s-43.5 -24 -61.5 -40l7 -24h42c12 0 18 -6.66699 18 -20v-523c0 -24 -2.5 -40.833 -7.5 -50.5s-15.5 -15.834 -31.5 -18.501l-20 -5l11 -29h163
l11 14l-11 15c-20.667 26 -31 65.667 -31 119c0 78.667 13.5 142 40.5 190s63.5 72 109.5 72c20 0 35.5 -6.33301 46.5 -19s16.5 -28.334 16.5 -47.001c0 -24.667 -9.5 -47 -28.5 -67s-45.167 -30 -78.5 -30c-14.667 0 -27.834 1.5 -39.501 4.5s-18.167 4.5 -19.5 4.5
c-9.33301 0 -14 -6 -14 -18c0 -10 5.66699 -16.333 17 -19l9 -3l69 -131c10.667 -20 18.667 -34.333 24 -43s12.5 -18.167 21.5 -28.5s18.5 -17.333 28.5 -21s22.333 -5.5 37 -5.5c38 0 71.333 19.667 100 59z" />
    <glyph glyph-name="l" unicode="l" horiz-adv-x="279" 
d="M266 46l-18.002 24.001c-14 -13.333 -29.333 -20 -46 -20c-18.667 0 -28 10.667 -28 32l2 614c0 9.33301 -2.66699 16.666 -8 21.999s-12.666 8 -21.999 8c-18 0 -38.667 -5.33301 -62 -16s-43.666 -24 -60.999 -40l9 -24h40c12 0 18 -6.66699 18 -20v-541
c0 -34.667 5.66699 -59.667 17 -75s30 -23 56 -23c34 0 68.333 19.667 103 59z" />
    <glyph glyph-name="m" unicode="m" horiz-adv-x="872" 
d="M854 46l-18.0029 24.0049c-15.333 -13.333 -31 -20 -47 -20c-17.333 0 -26 10.667 -26 32v224c0 57.333 -9.5 99.333 -28.5 126s-49.167 40 -90.5 40c-33.333 0 -65.666 -12.833 -96.999 -38.5s-55 -58.834 -71 -99.501c-2.66699 48 -13.667 83 -33 105s-48 33 -86 33
c-34 0 -66.5 -12.833 -97.5 -38.5s-54.5 -58.834 -70.5 -99.501v101c0 8.66699 -2.66699 15.667 -8 21s-12.333 8 -21 8c-17.333 0 -37.666 -5.16699 -60.999 -15.5s-44 -23.5 -62 -39.5l9 -25h40c12 0 18 -6.66699 18 -20v-261c0 -24 -2.5 -40.833 -7.5 -50.5
s-15.5 -15.834 -31.5 -18.501l-18 -5l9 -29h163l11 14l-11 15c-20 28 -30 67.667 -30 119c0 75.333 12.333 136.333 37 183s57 70 97 70c46.667 0 70 -31.667 70 -95v-306h112l11 14c-16 19.333 -26.667 38.666 -32 57.999s-8 44.666 -8 75.999v12
c1.33301 72 14.333 130.167 39 174.5s56.334 66.5 95.001 66.5c46 0 69 -31.667 69 -95v-221c0 -35.333 5.5 -60.5 16.5 -75.5s29.5 -22.5 55.5 -22.5c32.667 0 67 19.667 103 59z" />
    <glyph glyph-name="n" unicode="n" horiz-adv-x="596" 
d="M579 46l-18.0029 24.002c-15.333 -13.333 -30.666 -20 -45.999 -20c-18.667 0 -28 10.667 -28 32v224c0 57.333 -10 99.333 -30 126s-51.333 40 -94 40c-35.333 0 -69.166 -12.833 -101.499 -38.5s-56.5 -58.834 -72.5 -99.501v101c0 8.66699 -2.66699 15.667 -8 21
s-12.333 8 -21 8c-17.333 0 -37.666 -5.16699 -60.999 -15.5s-44 -23.5 -62 -39.5l9 -25h40c12 0 18 -6.66699 18 -20v-261c0 -24 -2.5 -40.833 -7.5 -50.5s-15.5 -15.834 -31.5 -18.501l-18 -5l9 -29h163l11 14l-11 15c-20 28 -30 67.667 -30 119
c0 75.333 12.333 136.333 37 183s57 70 97 70c53.333 0 80 -31.667 80 -95v-221c0 -35.333 5.5 -60.5 16.5 -75.5s29.167 -22.5 54.5 -22.5c35.333 0 70.333 19.667 105 59z" />
    <glyph glyph-name="o" unicode="o" horiz-adv-x="536" 
d="M138 229c0 58.667 12.167 105.832 36.5 141.499s56.5 53.5 96.5 53.5c30 0 55.167 -11.5 75.5 -34.5s33.833 -48.333 40.5 -76s10 -56.167 10 -85.5c0 -57.333 -12.167 -103.5 -36.5 -138.5s-55.833 -52.5 -94.5 -52.5c-39.333 0 -70.5 17.333 -93.5 52
s-34.5 81.334 -34.5 140.001zM495 229.998c0 74 -20.5 132.833 -61.5 176.5s-96.167 65.5 -165.5 65.5s-124.5 -21.667 -165.5 -65s-61.5 -102.333 -61.5 -177c0 -74 20.5 -133 61.5 -177s96.167 -66 165.5 -66s124.5 22 165.5 66s61.5 103 61.5 177z" />
    <glyph glyph-name="p" unicode="p" horiz-adv-x="552" 
d="M228 -246l8.99707 27.998l-19 4c-16 3.33301 -26.5 9.83301 -31.5 19.5s-7.5 26.5 -7.5 50.5v520c30.667 24 65.334 36 104.001 36s69.834 -16.833 93.501 -50.5s35.5 -77.5 35.5 -131.5c0 -56 -11.833 -102.167 -35.5 -138.5s-54.5 -54.5 -92.5 -54.5
c-16 0 -30.667 2.5 -44 7.5s-20.333 7.5 -21 7.5c-9.33301 0 -14 -7.66699 -14 -23c0 -8 3 -13.667 9 -17c25.333 -16.667 56 -25 92 -25c58.667 0 107.334 24.833 146.001 74.5s58 111.834 58 186.501c0 66 -18.5 119.833 -55.5 161.5s-84.167 62.5 -141.5 62.5
c-50 0 -94.667 -19 -134 -57v4c0 28.667 -7.66699 43 -23 43c-20 0 -43.833 -4.16699 -71.5 -12.5s-46.167 -16.833 -55.5 -25.5v-29l48 -11c12.667 -3.33301 19 -13.666 19 -30.999v-451c0 -51.333 -10.333 -91.333 -31 -120l-11 -15l11 -13h163z" />
    <glyph glyph-name="q" unicode="q" horiz-adv-x="546" 
d="M139 230c0 60.667 12.333 107.668 37 141.001s59.667 50 105 50c33.333 0 63.333 -9 90 -27v-251c-32 -56 -74 -84 -126 -84c-30 0 -55.167 13.667 -75.5 41s-30.5 70.666 -30.5 129.999zM478 -245.999l9.99902 13l-9 15c-15.333 22 -23 58.333 -23 109v493
c0 8.66699 4 21 12 37l12 17l-11 12c-18 1.33301 -48.5 5.33301 -91.5 12s-74.833 10 -95.5 10c-74 0 -132.667 -23.167 -176 -69.5s-65 -109.5 -65 -189.5c0 -72 16.333 -127.667 49 -167s72.334 -59 119.001 -59c62.667 0 116.667 32.667 162 98v-220
c0 -20 -2.66699 -34.667 -8 -44s-15.333 -17 -30 -23l-29 -14v-30h174z" />
    <glyph glyph-name="r" unicode="r" horiz-adv-x="405" 
d="M219 0l11 14.001l-11 15c-20 27.333 -30 66 -30 116c0 46 3.5 86.667 10.5 122s16 62.5 27 81.5s22 33.167 33 42.5s21.833 14 32.5 14c9.33301 0 16.666 -3.33301 21.999 -10s8 -15.334 8 -26.001c0 -14 -4.16699 -28 -12.5 -42s-12.5 -21.333 -12.5 -22
c0 -6 6 -9 18 -9c26 0 47.5 7.83301 64.5 23.5s25.5 35.167 25.5 58.5c0 29.333 -8.33301 52.333 -25 69s-38 25 -64 25s-50 -12.667 -72 -38s-38.333 -58.666 -49 -99.999h-6v101c0 8.66699 -2.66699 15.667 -8 21s-12.333 8 -21 8
c-17.333 0 -37.666 -5.16699 -60.999 -15.5s-44 -23.5 -62 -39.5l9 -25h40c12 0 18 -6.66699 18 -20v-261c0 -24 -2.5 -40.833 -7.5 -50.5s-15.5 -15.834 -31.5 -18.501l-18 -5l9 -29h163z" />
    <glyph glyph-name="s" unicode="s" horiz-adv-x="446" 
d="M396 127c0 14 -3.16504 27.3359 -9.49805 40.0029s-13.333 23 -21 31s-19.334 16.667 -35.001 26s-28.167 16.166 -37.5 20.499s-23.333 10.5 -42 18.5c-35.333 13.333 -62.5 27.166 -81.5 41.499s-28.5 33.166 -28.5 56.499c0 20 7.33301 36.167 22 48.5
s34.667 18.5 60 18.5c20 0 37.833 -5.5 53.5 -16.5s23.5 -27.833 23.5 -50.5c0 -11.333 -2.5 -22.166 -7.5 -32.499s-7.5 -16.5 -7.5 -18.5c0 -8.66699 6.66699 -13 20 -13c22.667 0 41.334 7.66699 56.001 23s22 34.666 22 57.999c0 29.333 -14.333 52.333 -43 69
s-65.334 25 -110.001 25c-48.667 0 -89 -11.5 -121 -34.5s-48 -52.833 -48 -89.5c0 -20.667 4.16699 -39.334 12.5 -56.001s21 -31.167 38 -43.5s32.167 -21.833 45.5 -28.5s31 -14.667 53 -24c21.333 -9.33301 38.166 -17.166 50.499 -23.499s23.833 -15.333 34.5 -27
s16 -24.5 16 -38.5c0 -22 -8.16699 -39.833 -24.5 -53.5s-37.5 -20.5 -63.5 -20.5c-22.667 0 -43 6.66699 -61 20s-27 33 -27 59c0 12 2 23.5 6 34.5s6 17.167 6 18.5c0 7.33301 -6.33301 11 -19 11c-22.667 0 -41.334 -7 -56.001 -21s-22 -31.333 -22 -52
c0 -34.667 15.333 -62.667 46 -84s69.334 -32 116.001 -32c55.333 0 99.833 12.667 133.5 38s50.5 59.333 50.5 102z" />
    <glyph glyph-name="t" unicode="t" horiz-adv-x="315" 
d="M292 56l-17.998 24.998c-22 -20 -42.667 -30 -62 -30c-12.667 0 -21.667 3.83301 -27 11.5s-8 21.167 -8 40.5v300h99c14 10.667 21 30 21 58h-120v125c-18 0 -29.5 -1.16699 -34.5 -3.5s-8.16699 -8.5 -9.5 -18.5c-6.66699 -31.333 -17 -56.666 -31 -75.999
s-37 -33 -69 -41c-10 -2.66699 -16.333 -6.5 -19 -11.5s-4 -15.833 -4 -32.5h81v-326c0 -28 7.16699 -50 21.5 -66s34.166 -24 59.499 -24c19.333 0 40.166 6.33301 62.499 19s41.5 29.334 57.5 50.001z" />
    <glyph glyph-name="u" unicode="u" horiz-adv-x="586" 
d="M395 77c0 -31.333 5.49707 -54.166 16.4971 -68.499s28.833 -21.5 53.5 -21.5c36.667 0 71 19.667 103 59l-18 24c-14 -11.333 -29.333 -17 -46 -17s-25 9.66699 -25 29v390l-114 -11l-12 -14l12 -14c14 -24.667 23.5 -49.667 28.5 -75s7.5 -60.666 7.5 -105.999
c0 -63.333 -11.667 -113 -35 -149s-55.666 -54 -96.999 -54c-59.333 0 -89 38 -89 114v281c0 8.66699 -2.66699 15.5 -8 20.5s-12.666 7.5 -21.999 7.5c-19.333 0 -40.5 -5.16699 -63.5 -15.5s-42.167 -23.5 -57.5 -39.5l7 -23h42c12 0 18 -7.33301 18 -22v-232
c0 -48.667 12.333 -86.334 37 -113.001s59.334 -40 104.001 -40c34 0 65.167 8.16699 93.5 24.5s49.833 38.166 64.5 65.499z" />
    <glyph glyph-name="v" unicode="v" horiz-adv-x="512" 
d="M453 374c0 28.667 -1.66602 61.334 -4.99902 98.001l-111 -12l-10 -12l8 -14c28 -43.333 42 -97.333 42 -162c0 -62 -9.83301 -115 -29.5 -159s-48.834 -66 -87.501 -66c-20 0 -35.667 8.33301 -47 25s-19.666 43.667 -24.999 81l-41 291
c-3.33301 18.667 -13.333 28 -30 28c-17.333 0 -37 -5.16699 -59 -15.5s-41.333 -23.5 -58 -39.5l9 -23h40c6 0 10.167 -1.5 12.5 -4.5s4.16602 -8.83301 5.49902 -17.5l30 -195c10 -71.333 25.833 -120.833 47.5 -148.5s56.167 -41.5 103.5 -41.5
c56.667 0 105 34.167 145 102.5s60 163.166 60 284.499z" />
    <glyph glyph-name="w" unicode="w" horiz-adv-x="754" 
d="M385 103c11.333 -42 27.166 -71.832 47.499 -89.499s48.166 -26.5 83.499 -26.5c50.667 0 93.667 34.167 129 102.5s53 163.166 53 284.499c0 21.333 -1.33301 54 -4 98l-109 -11l-10 -12l9 -14c27.333 -45.333 41 -99.333 41 -162c0 -60 -9.5 -112.667 -28.5 -158
s-43.5 -68 -73.5 -68c-21.333 0 -37.666 8.16699 -48.999 24.5s-19.666 43.5 -24.999 81.5l-20 131c4 28.667 6 58.667 6 90c0 32 -2 64.667 -6 98l-108 -11l-11 -12l9 -14c27.333 -44 41 -98 41 -162c0 -60 -9.16699 -112.667 -27.5 -158s-42.5 -68 -72.5 -68
c-20 0 -35.667 8.33301 -47 25s-19.666 43.667 -24.999 81l-41 291c-3.33301 18.667 -13.333 28 -30 28c-17.333 0 -37 -5.16699 -59 -15.5s-41.333 -23.5 -58 -39.5l9 -23h40c6 0 10.167 -1.5 12.5 -4.5s4.16602 -8.83301 5.49902 -17.5l30 -195
c10 -71.333 25.833 -120.833 47.5 -148.5s56.167 -41.5 103.5 -41.5c58 0 103.667 38.667 137 116z" />
    <glyph glyph-name="x" unicode="x" horiz-adv-x="512" 
d="M495 30l-22.002 27c-11.333 -7.33301 -22.666 -11 -33.999 -11c-16 0 -29 8.66699 -39 26l-103 175c31.333 34 95 99 191 195l-9 19h-145l-12 -14l20 -14c11.333 -11.333 17 -21.333 17 -30c0 -19.333 -27.333 -59.666 -82 -120.999l-74 127
c-22.667 42 -55.667 63 -99 63c-31.333 0 -60 -14 -86 -42l21 -27c14.667 8 26.334 12 35.001 12c15.333 0 28.333 -8.66699 39 -26l102 -174l-194 -196l12 -19h144l10 14l-17 15c-12 10 -18 20 -18 30c0 19.333 27.333 59.666 82 120.999l76 -128
c23.333 -43.333 56.333 -65 99 -65c29.333 0 58 14.333 86 43z" />
    <glyph glyph-name="y" unicode="y" horiz-adv-x="564" 
d="M476 -20l-0.000976562 493l-113 -11l-11 -14l11 -14c16 -20.667 26 -43.334 30 -68.001s6 -62.334 6 -113.001c0 -56 -11.667 -99.333 -35 -130s-55.666 -46 -96.999 -46c-58 0 -87 37.333 -87 112v256c0 8.66699 -2.66699 15.5 -8 20.5s-12.666 7.5 -21.999 7.5
c-19.333 0 -40.5 -5.16699 -63.5 -15.5s-42.167 -23.5 -57.5 -39.5l7 -23h42c12 0 18 -7.33301 18 -22v-205c0 -48.667 12.167 -86.5 36.5 -113.5s58.5 -40.5 102.5 -40.5c34.667 0 66.167 7.83301 94.5 23.5s49.833 37.167 64.5 64.5v-137
c0 -53.333 -9.16699 -95.833 -27.5 -127.5s-46.5 -47.5 -84.5 -47.5c-24.667 0 -44.334 8.33301 -59.001 25s-22 37.334 -22 62.001c0 20 3.66699 37.333 11 52s14.833 25.834 22.5 33.501s11.5 12.5 11.5 14.5c0 6.66699 -5.66699 10 -17 10c-36.667 0 -65.5 -11 -86.5 -33
s-31.5 -48.667 -31.5 -80c0 -35.333 14 -66.333 42 -93s67 -40 117 -40c64 0 114.333 20.833 151 62.5s55 100.5 55 176.5z" />
    <glyph glyph-name="z" unicode="z" horiz-adv-x="444" 
d="M400 -11v143l-29 9l-11 -48c-2.66699 -15.333 -9.16699 -25.833 -19.5 -31.5s-27.166 -8.5 -50.499 -8.5h-145l244 353l25 15c0 16.667 -6 30 -18 40h-231c-52 0 -89.333 7.66699 -112 23l-10 -13v-142l29 -10l11 49c3.33301 16 9.66602 26.5 18.999 31.5s26 7.5 50 7.5
h138l-259 -378l9 -29h238c50.667 0 87.667 -7 111 -21z" />
    <glyph glyph-name="braceleft" unicode="{" horiz-adv-x="324" 
d="M268 -62c-32 7.33301 -55.833 30.1611 -71.5 68.4941s-23.5 85.5 -23.5 141.5c0 92.667 -33.667 145.667 -101 159c67.333 14.667 101 67.334 101 158.001c0 56.667 7.83301 104.334 23.5 143.001s39.5 61.667 71.5 69l-6 41c-66 -8 -114.333 -34.833 -145 -80.5
s-46 -103.167 -46 -172.5c0 -48 -5.16699 -82.167 -15.5 -102.5s-28.833 -33.166 -55.5 -38.499v-35c26.667 -5.33301 45.167 -18.166 55.5 -38.499s15.5 -54.5 15.5 -102.5c0 -44.667 6 -84.167 18 -118.5s32.667 -63.666 62 -87.999s66.333 -39.166 111 -44.499z" />
    <glyph glyph-name="bar" unicode="|" horiz-adv-x="359" 
d="M210 -77v767h-93v-767h93z" />
    <glyph glyph-name="braceright" unicode="}" horiz-adv-x="324" 
d="M221 148c0 48 5.33301 82.1719 16 102.505s29.334 33.166 56.001 38.499v35c-26.667 5.33301 -45.334 18.166 -56.001 38.499s-16 54.5 -16 102.5c0 69.333 -15.167 126.833 -45.5 172.5s-78.5 72.5 -144.5 80.5l-7 -41c32 -7.33301 55.833 -30.333 71.5 -69
s23.5 -86.334 23.5 -143.001c0 -90.667 33.667 -143.334 101 -158.001c-67.333 -13.333 -101 -66.333 -101 -159c0 -56 -7.83301 -103.167 -23.5 -141.5s-39.5 -61.166 -71.5 -68.499l7 -41c44.667 5.33301 81.5 20.166 110.5 44.499s49.5 53.666 61.5 87.999
s18 73.833 18 118.5z" />
    <glyph glyph-name="asciitilde" unicode="~" horiz-adv-x="636" 
d="M390 329c33.333 0 64.6699 -10 94.0029 -30v70c-24.667 20 -54.334 30 -89.001 30c-26.667 0 -61.834 -10 -105.501 -30s-78.5 -30 -104.5 -30c-32 0 -63.333 10 -94 30v-70c24.667 -20 55 -30 91 -30c26.667 0 61.667 10 105 30s77.666 30 102.999 30z" />
    <glyph glyph-name="nbspace" unicode="&#xa0;" horiz-adv-x="316" 
 />
    <glyph glyph-name="exclamdown" unicode="&#xa1;" horiz-adv-x="227" 
d="M170 414c0 11.333 -6.66699 24 -20 38s-25.666 21 -36.999 21s-23.833 -7 -37.5 -21s-20.5 -26.667 -20.5 -38c0 -12.667 6.83301 -26.167 20.5 -40.5s26.167 -21.5 37.5 -21.5s23.666 7.16699 36.999 21.5s20 27.833 20 40.5zM172 -228c0 68.667 -11.667 223 -35 463
c-3.33301 28 -11.333 42 -24 42s-20.334 -14 -23.001 -42c-23.333 -240 -35 -394.333 -35 -463c14.667 -15.333 34 -23 58 -23c24.667 0 44.334 7.66699 59.001 23z" />
    <glyph glyph-name="cent" unicode="&#xa2;" horiz-adv-x="498" 
d="M279 -54l-0.000976562 147.003c55.333 6 102 31 140 75c1.33301 1.33301 2 4.33301 2 9c0 6 -2.33301 11.667 -7 17s-9.66699 8 -15 8c-4 0 -7 -1 -9 -3c-37.333 -31.333 -77.666 -47 -120.999 -47c-40.667 0 -73 16.5 -97 49.5s-36 77.167 -36 132.5
c0 58 10.833 105 32.5 141s50.167 54 85.5 54c26.667 0 48 -7.33301 64 -22s24 -34.334 24 -59.001c0 -14.667 -2 -27.834 -6 -39.501s-7.83301 -20.334 -11.5 -26.001s-5.5 -9.5 -5.5 -11.5c0 -6 5.66699 -9 17 -9c27.333 0 49.5 8.5 66.5 25.5s25.5 38.833 25.5 65.5
c0 34 -14 62.667 -42 86s-63.667 36 -107 38v167c-26.667 0 -46 -7.66699 -58 -23v-148c-56 -10 -100.167 -36.5 -132.5 -79.5s-48.5 -96.833 -48.5 -161.5s16.5 -118.667 49.5 -162s76.833 -69 131.5 -77v-171c28 0 47.333 8 58 24z" />
    <glyph glyph-name="sterling" unicode="&#xa3;" horiz-adv-x="552" 
d="M484 0c20.667 16.667 31.001 44.666 31.001 83.999h-368c44.667 58 67 123.333 67 196h174c14.667 12 22 31.333 22 58h-201c-12.667 56 -19 96.667 -19 122c0 112 42 168 126 168c26 0 48.5 -7.5 67.5 -22.5s28.5 -35.167 28.5 -60.5c0 -14.667 -2.33301 -28 -7 -40
s-9.33398 -21.333 -14.001 -28s-7 -10.667 -7 -12c0 -5.33301 1.33301 -8.66602 4 -9.99902s7.66699 -2 15 -2c28 0 51.667 9.5 71 28.5s29 42.5 29 70.5c0 40 -18.333 71.167 -55 93.5s-80.667 33.5 -132 33.5c-76 0 -132.5 -18.833 -169.5 -56.5s-55.5 -87.5 -55.5 -149.5
c0 -24.667 9 -69.667 27 -135h-69c-13.333 -10 -20 -29.333 -20 -58h103c2.66699 -22.667 4 -39.667 4 -51c0 -33.333 -9.5 -67.5 -28.5 -102.5s-45.167 -63.833 -78.5 -86.5l23 -40h432z" />
    <glyph glyph-name="currency" unicode="&#xa4;" horiz-adv-x="590" 
d="M195 333c0 46.667 9.49805 83.501 28.498 110.501s44.167 40.5 75.5 40.5c28.667 0 51.334 -12.833 68.001 -38.5s25 -61.5 25 -107.5c0 -46.667 -9.66699 -83.334 -29 -110.001s-44.666 -40 -75.999 -40c-28.667 0 -51.167 12.667 -67.5 38s-24.5 61 -24.5 107z
M175.998 174.001c32.667 -24 71.666 -35.999 116.999 -35.999c49.333 0 90 13 122 39l91 -93c18.667 0 37.334 8.66699 56.001 26l-109 110c20.667 36.667 31 75 31 115c0 41.333 -10.333 80.333 -31 117l94 95c0 21.333 -8.66699 39.666 -26 54.999l-106 -106
c-35.333 25.333 -76 38 -122 38c-45.333 0 -85 -12.333 -119 -37l-90 91c-22 0 -40.333 -8.33301 -55 -25l106 -109c-21.333 -36 -32 -75.667 -32 -119s10.667 -83 32 -119l-91 -92c0 -20.667 8.66699 -39 26 -55z" />
    <glyph glyph-name="yen" unicode="&#xa5;" horiz-adv-x="580" 
d="M414 0l10 32.0029l-20 5c-24 6 -40.167 14.833 -48.5 26.5s-12.5 31.5 -12.5 59.5v93h172c14.667 11.333 22 30.666 22 57.999h-194v7l47 85h125c14.667 11.333 22 30.666 22 57.999h-114l64 112c19.333 36 41 68.667 65 98l14 17l-12 15h-176l-11 -32l20 -5
c10.667 -2.66699 20 -8.33398 28 -17.001s12 -19.334 12 -32.001c0 -10.667 -3.66699 -23.334 -11 -38.001l-104 -188l-101 176c-19.333 30 -29 49.333 -29 58c0 22 14 35.667 42 41l21 5l-11 32h-210l-11 -15c18.667 -14 34.167 -29.167 46.5 -45.5
s27.5 -40.166 45.5 -71.499l63 -110h-85c-14.667 -10 -22 -29.333 -22 -58h140l52 -92h-170c-14.667 -10 -22 -29.333 -22 -58h193v-30c0 -37.333 -3.33301 -67.166 -10 -89.499s-17.667 -43.833 -33 -64.5l-12 -17l12 -15h203z" />
    <glyph glyph-name="brokenbar" unicode="&#xa6;" horiz-adv-x="325" 
d="M210 420v270h-93v-270h93zM210 -77v272h-93v-272h93z" />
    <glyph glyph-name="section" unicode="&#xa7;" horiz-adv-x="407" 
d="M297 206c0 50.667 -27.3311 108.663 -81.998 173.996c-32 38.667 -54.333 70.334 -67 95.001s-19 48.334 -19 71.001c0 28 8.5 50 25.5 66s38.5 24 64.5 24c20 0 36.667 -6.16699 50 -18.5s20 -27.833 20 -46.5c0 -15.333 -1.83301 -28.666 -5.5 -39.999
s-7.33398 -19.666 -11.001 -24.999s-5.5 -9 -5.5 -11c0 -7.33301 5.66699 -11 17 -11c26 0 47.833 8.66699 65.5 26s26.5 39.333 26.5 66c0 30 -13 54.5 -39 73.5s-59.333 28.5 -100 28.5c-58.667 0 -101.834 -16.5 -129.501 -49.5s-41.5 -72.833 -41.5 -119.5
c0 -54 27 -113.667 81 -179l142 -170c5.33301 20 8 35.333 8 46zM342.002 -69.0039c0 54.667 -27.002 114.333 -81.002 179l-143 172c-4.66699 -14.667 -7 -30.667 -7 -48c0 -50 27.333 -108 82 -174c32 -37.333 54.333 -68.333 67 -93s19 -48.334 19 -71.001
c0 -28.667 -8.66699 -51.167 -26 -67.5s-39 -24.5 -65 -24.5c-20 0 -36.667 6 -50 18s-20 28 -20 48c0 14.667 1.83301 27.834 5.5 39.501s7.33398 20.334 11.001 26.001s5.5 9.5 5.5 11.5c0 6 -6 9 -18 9c-26 0 -47.5 -8.5 -64.5 -25.5s-25.5 -38.5 -25.5 -64.5
c0 -30.667 12.833 -55.5 38.5 -74.5s58.834 -28.5 99.501 -28.5c58.667 0 102 16.667 130 50s42 72.666 42 117.999z" />
    <glyph glyph-name="dieresis" unicode="&#xa8;" horiz-adv-x="390" 
d="M166 610c0 12 -7.16699 25.167 -21.5 39.5s-27.166 21.5 -38.499 21.5s-23.5 -7.16699 -36.5 -21.5s-19.5 -27.5 -19.5 -39.5c0 -11.333 6.66699 -24.166 20 -38.499s25.333 -21.5 36 -21.5c11.333 0 24.166 7.16699 38.499 21.5s21.5 27.166 21.5 38.499zM342 610
c0 12 -7.16699 25.167 -21.5 39.5s-27.166 21.5 -38.499 21.5s-23.5 -7.16699 -36.5 -21.5s-19.5 -27.5 -19.5 -39.5c0 -11.333 6.66699 -24.166 20 -38.499s25.333 -21.5 36 -21.5c11.333 0 24.166 7.16699 38.499 21.5s21.5 27.166 21.5 38.499z" />
    <glyph glyph-name="copyright" unicode="&#xa9;" horiz-adv-x="721" 
d="M117 462c0 67.333 23.833 124.833 71.5 172.5s105.167 71.5 172.5 71.5s124.666 -23.833 171.999 -71.5s71 -105.167 71 -172.5s-23.667 -124.833 -71 -172.5s-104.666 -71.5 -171.999 -71.5s-124.833 24 -172.5 72s-71.5 105.333 -71.5 172zM487 347l-24.001 20
c-21.333 -33.333 -53 -50 -95 -50c-31.333 0 -56.333 14 -75 42s-28 63.333 -28 106c0 42 8 78 24 108s41.333 45 76 45c27.333 0 50.666 -12.333 69.999 -37l12 -48c16 0 26.667 4.33301 32 13v100h-24l-8 -16c-23.333 14.667 -50.666 22 -81.999 22
c-53.333 0 -94.166 -17.667 -122.499 -53s-42.5 -80 -42.5 -134c0 -54.667 14.167 -99.667 42.5 -135s69.166 -53 122.499 -53c50.667 0 91.334 23.333 122.001 70zM628.999 462c0 73.333 -26.167 136.333 -78.5 189s-115.5 79 -189.5 79
c-73.333 0 -136.333 -26.333 -189 -79s-79 -115.667 -79 -189s26.333 -136.333 79 -189s115.667 -79 189 -79c74 0 137.167 26.333 189.5 79s78.5 115.667 78.5 189z" />
    <glyph glyph-name="ordfeminine" unicode="&#xaa;" horiz-adv-x="369" 
d="M117 428c0 37.333 24.332 56 72.999 56c20 0 32.333 -1 37 -3c-0.666992 -28 -7.16699 -51 -19.5 -69s-28.166 -27 -47.499 -27c-28.667 0 -43 14.333 -43 43zM227.999 384c4 -33.333 21.667 -49.999 53 -49.999c22.667 0 49 15 79 45l-17 24
c-14.667 -8.66699 -25.667 -13 -33 -13c-8.66699 0 -13 5 -13 15v154c0 41.333 -9.16699 71.5 -27.5 90.5s-47.5 28.5 -87.5 28.5c-33.333 0 -62.166 -8.66699 -86.499 -26s-36.5 -38 -36.5 -62c0 -10.667 3.5 -19.334 10.5 -26.001s15.5 -10 25.5 -10c14.667 0 27 5 37 15
c0 46.667 16.667 70 50 70c30 0 45 -22.667 45 -68v-54c-12.667 2.66699 -29.334 4 -50.001 4c-42 0 -75.167 -9 -99.5 -27s-36.5 -43 -36.5 -75c0 -24.667 8.66699 -45 26 -61s39 -24 65 -24c42.667 0 74.667 16.667 96 50z" />
    <glyph glyph-name="guillemotleft" unicode="&#xab;" horiz-adv-x="469" 
d="M229 109c-14 25.333 -56.333 75.666 -127 150.999c71.333 74.667 113.666 124.334 126.999 149.001c-20 25.333 -46.667 39.333 -80 42c-41.333 -68 -68.666 -114.333 -81.999 -139s-20 -42 -20 -52c0 -16.667 31.333 -76.667 94 -180l8 -14c34 4 60.667 18.333 80 43z
M422 109c-15.333 28.667 -57.001 79 -125.001 151c68.667 71.333 110.334 121 125.001 149c-19.333 25.333 -45.333 39.333 -78 42c-42.667 -69.333 -70.667 -116 -84 -140s-20 -41 -20 -51c0 -16 29.667 -72.333 89 -169c6.66699 -10.667 11.667 -19 15 -25
c33.333 4.66699 59.333 19 78 43z" />
    <glyph glyph-name="logicalnot" unicode="&#xac;" horiz-adv-x="576" 
d="M484 155v211h-393v-69h330v-142h63z" />
    <glyph glyph-name="registered" unicode="&#xae;" horiz-adv-x="721" 
d="M316 594c0 10 8.66699 15 26 15c50.667 0 76 -21.667 76 -65c0 -22 -6 -40.167 -18 -54.5s-30.333 -21.5 -55 -21.5h-29v126zM333 283c9.33301 6.66699 14 17 14 31l-31 9v112h28c15.333 0 26 -6.66699 32 -20l43 -83c0.666992 -2 1.66699 -4.16699 3 -6.5
s2.33301 -4.16602 3 -5.49902s1 -2.66602 1 -3.99902s-1.66699 -7 -5 -17l-4 -7l9 -9h80c8 5.33301 12 14.666 12 27.999l-28 10l-56 105c-1.33301 2 -3 4.33301 -5 7s-4.5 5.5 -7.5 8.5l-6.5 6.5c22 9.33301 38.667 23 50 41s17 37.333 17 58
c0 29.333 -11.167 53.166 -33.5 71.499s-57.833 27.5 -106.5 27.5h-103c-8.66699 -5.33301 -13 -15.333 -13 -30l30 -12v-272c0 -6.66699 -3 -11.667 -9 -15l-21 -12v-22h107zM117 462c0 67.333 23.833 124.833 71.5 172.5s105.167 71.5 172.5 71.5
s124.666 -23.833 171.999 -71.5s71 -105.167 71 -172.5s-23.667 -124.833 -71 -172.5s-104.666 -71.5 -171.999 -71.5s-124.833 24 -172.5 72s-71.5 105.333 -71.5 172zM629 462c0 73.333 -26.167 136.333 -78.5 189s-115.5 79 -189.5 79
c-73.333 0 -136.333 -26.333 -189 -79s-79 -115.667 -79 -189s26.333 -136.333 79 -189s115.667 -79 189 -79c74 0 137.167 26.333 189.5 79s78.5 115.667 78.5 189z" />
    <glyph glyph-name="macron" unicode="&#xaf;" horiz-adv-x="377" 
d="M302 572c16 14 24 38.667 24 74h-249c-16.667 -14 -25 -38.667 -25 -74h250z" />
    <glyph glyph-name="degree" unicode="&#xb0;" horiz-adv-x="403" 
d="M116 503c0 40.667 8.33105 72.667 24.998 96s38.334 35 65.001 35c24.667 0 44.167 -10.667 58.5 -32s21.5 -52.333 21.5 -93c0 -40 -8.33301 -71.833 -25 -95.5s-38 -35.5 -64 -35.5c-25.333 0 -45.166 10.833 -59.499 32.5s-21.5 52.5 -21.5 92.5zM365.998 506
c0 52 -14.833 93.667 -44.5 125s-69.834 47 -120.501 47c-50 0 -89.833 -15.667 -119.5 -47s-44.5 -73 -44.5 -125s14.833 -93.667 44.5 -125s69.5 -47 119.5 -47c50.667 0 90.834 15.667 120.501 47s44.5 73 44.5 125z" />
    <glyph glyph-name="plusminus" unicode="&#xb1;" horiz-adv-x="576" 
d="M484 0v69h-393v-69h393zM322 135v162h162v69h-162v163h-69v-163h-162v-69h162v-162h69z" />
    <glyph glyph-name="twosuperior" unicode="&#xb2;" horiz-adv-x="359" 
d="M305 267c16 13.333 23.999 34.3301 23.999 62.9971h-197c58.667 48 104.334 91.333 137.001 130s49 75.334 49 110.001s-12.667 61.5 -38 80.5s-60 28.5 -104 28.5c-38 0 -70.333 -9 -97 -27s-40 -43 -40 -75c0 -18.667 6.5 -34 19.5 -46s29.167 -18 48.5 -18
c14.667 0 22 3.33301 22 10c0 2.66699 -2.83301 9.66699 -8.5 21s-8.5 21 -8.5 29c0 19.333 6.16699 34.5 18.5 45.5s26.833 16.5 43.5 16.5s31 -5.5 43 -16.5s18 -26.833 18 -47.5c0 -35.333 -13.667 -71.666 -41 -108.999s-83.333 -90.666 -168 -159.999l17 -35h262z" />
    <glyph glyph-name="threesuperior" unicode="&#xb3;" horiz-adv-x="359" 
d="M321 374c0 24 -7.16699 45.6689 -21.5 65.002s-34.5 33.666 -60.5 42.999c47.333 20.667 71 52.667 71 96c0 32 -13.833 56.833 -41.5 74.5s-59.834 26.5 -96.501 26.5c-34.667 0 -64.167 -7.83301 -88.5 -23.5s-36.5 -37.834 -36.5 -66.501
c0 -18 6.5 -32.833 19.5 -44.5s29.5 -17.5 49.5 -17.5c13.333 0 20 4 20 12c-2 4.66699 -3.66699 8 -5 10c-6.66699 13.333 -10 25.666 -10 36.999c0 16 4.83301 28.333 14.5 37s21.5 13 35.5 13c16 0 29.833 -5.16699 41.5 -15.5s17.5 -24.833 17.5 -43.5
c0 -46.667 -32 -76 -96 -88c-17.333 -2.66699 -27.833 -5.66699 -31.5 -9s-5.5 -8.66602 -5.5 -15.999c0 -10 6 -15 18 -15c4 0 6.33301 0.333008 7 1c18.667 2.66699 31.334 4 38.001 4c21.333 0 38.5 -4.66699 51.5 -14s21 -19 24 -29s4.5 -21 4.5 -33
c0 -22.667 -6.66699 -40.167 -20 -52.5s-29.333 -18.5 -48 -18.5c-16.667 0 -31.167 4.83301 -43.5 14.5s-18.5 22.5 -18.5 38.5c0 9.33301 3.66699 21.333 11 36c2 6.66699 4 10 6 10c0 6 -1.5 9.66699 -4.5 11s-9.16699 2 -18.5 2c-19.333 0 -35.5 -6 -48.5 -18
s-19.5 -27.333 -19.5 -46c0 -30 13.333 -53.167 40 -69.5s58.667 -24.5 96 -24.5c46 0 82.333 9.83301 109 29.5s40 47.5 40 83.5z" />
    <glyph glyph-name="acute" unicode="&#xb4;" horiz-adv-x="267" 
d="M190 580c34.667 16.667 52 38.667 52 66c0 26 -13.333 45.667 -40 59l-143 -145l26 -31z" />
    <glyph glyph-name="mu" unicode="&#xb5;" horiz-adv-x="570" 
d="M172 18c21.333 -20.667 48.334 -31.001 81.001 -31.001c27.333 0 53.666 8.5 78.999 25.5s44.666 38.5 57.999 64.5c0 -60 24.333 -90 73 -90l10 13v462l-95 -12l-12 -12l12 -17c8 -12 12 -26 12 -42v-176c0 -44.667 -11.667 -81.5 -35 -110.5s-53 -43.5 -89 -43.5
c-62.667 0 -94 38 -94 114v256c0 28.667 -7.33301 43 -22 43c-19.333 0 -43.166 -4.16699 -71.499 -12.5s-47.833 -16.833 -58.5 -25.5v-29l49 -11c13.333 -3.33301 20 -13.666 20 -30.999v-458c0 -20 -4 -35.667 -12 -47l-12 -18l12 -12l95 -12v212z" />
    <glyph glyph-name="paragraph" unicode="&#xb6;" horiz-adv-x="572" 
d="M227 332c-62 72 -93 137 -93 195c0 31.333 9.66699 56 29 74s42 27 68 27c46 0 80.5 -15 103.5 -45s34.5 -70.667 34.5 -122v-294zM454 -18l-0.00195312 608.001c0 10 4 22.333 12 37l13 16l-12 11c-13.333 1.33301 -43.833 5.83301 -91.5 13.5s-86.5 11.5 -116.5 11.5
c-58 0 -105.333 -16.333 -142 -49s-55 -75.334 -55 -128.001c0 -70.667 32.667 -144 98 -220l147 -172c58 -66.667 87 -121.334 87 -164.001c0 -28.667 -8.66699 -51.167 -26 -67.5s-39 -24.5 -65 -24.5c-20.667 0 -37.667 6 -51 18s-20 28 -20 48
c0 14.667 1.83301 27.834 5.5 39.501s7.33398 20.334 11.001 26.001s5.5 9.5 5.5 11.5c0 6 -6 9 -18 9c-26 0 -47.5 -8.33301 -64.5 -25s-25.5 -38.334 -25.5 -65.001c0 -30.667 12.833 -55.5 38.5 -74.5s58.834 -28.5 99.501 -28.5c58.667 0 101.667 16.667 129 50
s41 73 41 119z" />
    <glyph glyph-name="periodcentered" unicode="&#xb7;" horiz-adv-x="177" 
d="M146 298c0 12.667 -7 26.167 -21 40.5s-26.667 21.5 -38 21.5s-23.5 -7.16699 -36.5 -21.5s-19.5 -27.833 -19.5 -40.5c0 -11.333 6.66699 -24.166 20 -38.499s25.333 -21.5 36 -21.5c11.333 0 24 7.16699 38 21.5s21 27.166 21 38.499z" />
    <glyph glyph-name="cedilla" unicode="&#xb8;" horiz-adv-x="324" 
d="M278 -166c0 33.333 -10.167 59.1641 -30.5 77.4971s-45.166 27.5 -74.499 27.5c-12.667 0 -24.334 -1.33301 -35.001 -4l73 94h-38l-94 -124l18 -16c17.333 10 34 15 50 15c20 0 35.5 -6.66699 46.5 -20s16.5 -29.666 16.5 -48.999c0 -18 -5.33301 -34 -16 -48
s-25 -21 -43 -21c-10 0 -18.833 3.33301 -26.5 10s-11.5 15.334 -11.5 26.001s2.33301 19.834 7 27.501s7 12.167 7 13.5c0 6 -5.66699 9 -17 9c-16 0 -29.833 -5 -41.5 -15s-17.5 -23 -17.5 -39c0 -22 10 -39.333 30 -52s43.667 -19 71 -19c36 0 66 10.333 90 31
s36 46 36 76z" />
    <glyph glyph-name="onesuperior" unicode="&#xb9;" horiz-adv-x="296" 
d="M215 273l12 15.001l-11 14c-15.333 16.667 -23 46 -23 88v253l17 9c-10 16.667 -21.333 26.667 -34 30l-163 -75c12.667 -26.667 30 -42.334 52 -47.001l55 35v-243c0 -14.667 -1.83301 -24.5 -5.5 -29.5s-11.5 -8.83301 -23.5 -11.5l-31 -9l11 -29h144z" />
    <glyph glyph-name="ordmasculine" unicode="&#xba;" horiz-adv-x="403" 
d="M116 506c0 40 7.16699 71.667 21.5 95s33.833 35 58.5 35c26.667 0 48.334 -12.5 65.001 -37.5s25 -57.5 25 -97.5c0 -38 -7.16699 -68 -21.5 -90s-33.833 -33 -58.5 -33c-26.667 0 -48.334 11.667 -65.001 35s-25 54.333 -25 93zM366 506c0 52 -14.833 93.667 -44.5 125
s-69.834 47 -120.501 47c-50 0 -89.833 -15.667 -119.5 -47s-44.5 -73 -44.5 -125s14.833 -93.667 44.5 -125s69.5 -47 119.5 -47c50.667 0 90.834 15.667 120.501 47s44.5 73 44.5 125z" />
    <glyph glyph-name="guillemotright" unicode="&#xbb;" horiz-adv-x="469" 
d="M229 260c0 10 -6.66797 27.332 -20.001 51.999s-40.666 71 -81.999 139c-33.333 -2.66699 -60 -16.667 -80 -42c12.667 -24.667 54.667 -74.334 126 -149.001c-70.667 -75.333 -112.667 -125.666 -126 -150.999c19.333 -24.667 46 -39 80 -43
c59.333 98.667 92.333 157.334 99 176.001c2 6.66699 3 12.667 3 18zM421.999 259.999c0 16.667 -34 80.333 -102 191c-33.333 -2.66699 -60 -16.667 -80 -42c13.333 -24.667 55.666 -74.334 126.999 -149.001c-70.667 -75.333 -113 -125.666 -127 -150.999
c19.333 -24 46 -38.333 80 -43c40.667 66.667 67.834 112.667 81.501 138s20.5 44 20.5 56z" />
    <glyph glyph-name="onequarter" unicode="&#xbc;" horiz-adv-x="944" 
d="M819 0l10.999 14.999l-10 14c-12 12.667 -19.333 32.334 -22 59.001h32c12.667 10 19 25.667 19 47h-51v139l-76 -8l-12 -13c8.66699 -12 13 -28.667 13 -50v-68h-117l116 255l-17 14h-46l-132 -316h196v-9c0 -14.667 -1.66699 -24.667 -5 -30
s-10.666 -9.33301 -21.999 -12l-32 -8l12 -29h143zM273.999 272.999l12 15.001l-10 14c-16 18 -24 47.333 -24 88v253l17 9c-10 16.667 -21.333 26.667 -34 30l-163 -75c12.667 -26.667 30 -42.334 52 -47.001l56 35v-243c0 -14.667 -1.83301 -24.5 -5.5 -29.5
s-11.5 -8.83301 -23.5 -11.5l-32 -9l12 -29h143zM336.999 0l280 666h-67l-278 -666h65z" />
    <glyph glyph-name="onehalf" unicode="&#xbd;" horiz-adv-x="944" 
d="M818 0c16 13.333 24 34.3301 24 62.9971h-197c58.667 48 104.334 91.333 137.001 130s49 75.334 49 110.001s-12.833 61.5 -38.5 80.5s-60.5 28.5 -104.5 28.5c-37.333 0 -69.333 -9 -96 -27s-40 -43 -40 -75c0 -18.667 6.5 -34 19.5 -46s29.167 -18 48.5 -18
c14.667 0 22 3.33301 22 10c0 2.66699 -2.83301 9.66699 -8.5 21s-8.5 21 -8.5 29c0 19.333 6.16699 34.5 18.5 45.5s26.833 16.5 43.5 16.5s31 -5.5 43 -16.5s18 -26.833 18 -47.5c0 -35.333 -13.833 -71.666 -41.5 -108.999s-83.834 -90.666 -168.501 -159.999l17 -35h263
zM274 272.997l12 15.001l-10 14c-16 18 -24 47.333 -24 88v253l17 9c-10 16.667 -21.333 26.667 -34 30l-163 -75c12.667 -26.667 30 -42.334 52 -47.001l56 35v-243c0 -14.667 -1.83301 -24.5 -5.5 -29.5s-11.5 -8.83301 -23.5 -11.5l-32 -9l12 -29h143zM319 -0.00195312
l280 666h-67l-278 -666h65z" />
    <glyph glyph-name="threequarters" unicode="&#xbe;" horiz-adv-x="944" 
d="M819 0l10.999 14.999l-10 14c-12 12.667 -19.333 32.334 -22 59.001h32c12.667 10 19 25.667 19 47h-51v139l-76 -8l-12 -13c8.66699 -12 13 -28.667 13 -50v-68h-117l116 255l-17 14h-46l-132 -316h196v-9c0 -14.667 -1.66699 -24.667 -5 -30
s-10.666 -9.33301 -21.999 -12l-32 -8l12 -29h143zM350.999 373.999c0 24 -7.16699 45.6689 -21.5 65.002s-34.5 33.666 -60.5 42.999c46.667 20.667 70 52.667 70 96c0 32 -13.667 56.833 -41 74.5s-59.333 26.5 -96 26.5c-34.667 0 -64.167 -7.83301 -88.5 -23.5
s-36.5 -37.834 -36.5 -66.501c0 -18 6.5 -32.833 19.5 -44.5s29.5 -17.5 49.5 -17.5c13.333 0 20 4 20 12c-2 4.66699 -3.66699 8 -5 10c-6.66699 13.333 -10 25.666 -10 36.999c0 16 4.83301 28.333 14.5 37s21.5 13 35.5 13c16 0 29.833 -5.16699 41.5 -15.5
s17.5 -24.833 17.5 -43.5c0 -46.667 -32 -76 -96 -88c-17.333 -2.66699 -27.833 -5.66699 -31.5 -9s-5.5 -8.66602 -5.5 -15.999c0 -10 6 -15 18 -15c4 0 6.33301 0.333008 7 1c18.667 2.66699 31 4 37 4c30.667 0 51.834 -7.83301 63.501 -23.5s17.5 -33.167 17.5 -52.5
c0 -22.667 -6.66699 -40.167 -20 -52.5s-29.333 -18.5 -48 -18.5c-16.667 0 -31.334 4.83301 -44.001 14.5s-19 22.5 -19 38.5c0 8 4 20 12 36c2 6.66699 3.66699 10 5 10c0 6 -1.33301 9.66699 -4 11s-8.66699 2 -18 2c-19.333 0 -35.5 -6 -48.5 -18
s-19.5 -27.333 -19.5 -46c0 -30 13.333 -53.167 40 -69.5s58.667 -24.5 96 -24.5c46 0 82.333 9.83301 109 29.5s40 47.5 40 83.5zM365.999 0.000976562l280 666h-67l-278 -666h65z" />
    <glyph glyph-name="questiondown" unicode="&#xbf;" horiz-adv-x="498" 
d="M339 414c0 11.333 -6.66699 24 -20 38s-25.333 21 -36 21c-11.333 0 -24 -7 -38 -21s-21 -26.667 -21 -38c0 -12.667 6.83301 -26.167 20.5 -40.5s26.5 -21.5 38.5 -21.5c11.333 0 23.5 7.16699 36.5 21.5s19.5 27.833 19.5 40.5zM452 -115
c0 26.667 -8.49902 48.666 -25.499 65.999s-38.833 26 -65.5 26c-11.333 0 -17 -3.66699 -17 -11c0 -2 1.66699 -5.83301 5 -11.5s6.83301 -14.167 10.5 -25.5s5.5 -24.666 5.5 -39.999c0 -24.667 -7.83301 -44 -23.5 -58s-36.834 -21 -63.501 -21
c-34.667 0 -62.167 9.66699 -82.5 29s-30.5 47.666 -30.5 84.999c0 38.667 11.833 78.834 35.5 120.501s72.5 94.167 146.5 157.5l-58 59h-18l-4 -18c-5.33301 -17.333 -13.5 -32.666 -24.5 -45.999s-28.833 -31.333 -53.5 -54c-86.667 -84.667 -130 -159.334 -130 -224.001
c0 -50 18.833 -89.667 56.5 -119s84.5 -44 140.5 -44c57.333 0 104.333 12 141 36s55 55 55 93z" />
    <glyph glyph-name="Agrave" unicode="&#xc0;" horiz-adv-x="654" 
d="M419 765l-145 146c-26 -12.667 -39 -32.667 -39 -60s17.333 -49.333 52 -66l106 -51zM313 571l89 -260h-175zM167 0l17.001 15.001l-7 17c-8.66699 14.667 -13 33.334 -13 56.001s6.66699 55 20 97l23 68h214l44 -130c7.33301 -24.667 11 -39.334 11 -44.001
c0 -21.333 -13.667 -35.333 -41 -42l-22 -5l10 -32h210l12 15c-22.667 17.333 -39.834 33.333 -51.501 48s-22.5 36.667 -32.5 66l-187 537h-178l-12 -32l22 -5c27.333 -6 41 -19.667 41 -41c0 -8.66699 -3.33301 -23.667 -10 -45l-146 -420
c-9.33301 -28.667 -19.5 -48.334 -30.5 -59.001s-29.167 -19.667 -54.5 -27l-21 -5l12 -32h170z" />
    <glyph glyph-name="Aacute" unicode="&#xc1;" horiz-adv-x="654" 
d="M368 785c34 16.667 51 38.667 51 66s-13 47.333 -39 60l-144 -146l27 -31zM313 571l89 -260h-175zM167 0l17.001 15.001l-7 17c-8.66699 14.667 -13 33.334 -13 56.001s6.66699 55 20 97l23 68h214l44 -130c7.33301 -24.667 11 -39.334 11 -44.001
c0 -21.333 -13.667 -35.333 -41 -42l-22 -5l10 -32h210l12 15c-22.667 17.333 -39.834 33.333 -51.501 48s-22.5 36.667 -32.5 66l-187 537h-178l-12 -32l22 -5c27.333 -6 41 -19.667 41 -41c0 -8.66699 -3.33301 -23.667 -10 -45l-146 -420
c-9.33301 -28.667 -19.5 -48.334 -30.5 -59.001s-29.167 -19.667 -54.5 -27l-21 -5l12 -32h170z" />
    <glyph glyph-name="Acircumflex" unicode="&#xc2;" horiz-adv-x="654" 
d="M327 810l96.999 -76l30 25c-19.333 34 -40.5 65.167 -63.5 93.5s-40.167 45.833 -51.5 52.5h-24c-12.667 -7.33301 -30.167 -25 -52.5 -53s-43.166 -59 -62.499 -93l31 -25zM312.999 571l89 -260h-175zM166.999 0l17.001 15.001l-7 17
c-8.66699 14.667 -13 33.334 -13 56.001s6.66699 55 20 97l23 68h214l44 -130c7.33301 -24.667 11 -39.334 11 -44.001c0 -21.333 -13.667 -35.333 -41 -42l-22 -5l10 -32h210l12 15c-22.667 17.333 -39.834 33.333 -51.501 48s-22.5 36.667 -32.5 66l-187 537h-178l-12 -32
l22 -5c27.333 -6 41 -19.667 41 -41c0 -8.66699 -3.33301 -23.667 -10 -45l-146 -420c-9.33301 -28.667 -19.5 -48.334 -30.5 -59.001s-29.167 -19.667 -54.5 -27l-21 -5l12 -32h170z" />
    <glyph glyph-name="Atilde" unicode="&#xc3;" horiz-adv-x="654" 
d="M270 789c8.66699 0 21.834 -5.33203 39.501 -15.999s34.167 -16 49.5 -16c17.333 0 36.5 8.16699 57.5 24.5s41.167 38.166 60.5 65.499l-31 30c-26 -25.333 -47.333 -38 -64 -38c-8.66699 0 -21.834 5.5 -39.501 16.5s-33.5 16.5 -47.5 16.5
c-35.333 0 -75 -29.667 -119 -89l33 -30c22 24 42.333 36 61 36zM313 571.001l89 -260h-175zM167 0.000976562l17.001 15.001l-7 17c-8.66699 14.667 -13 33.334 -13 56.001s6.66699 55 20 97l23 68h214l44 -130c7.33301 -24.667 11 -39.334 11 -44.001
c0 -21.333 -13.667 -35.333 -41 -42l-22 -5l10 -32h210l12 15c-22.667 17.333 -39.834 33.333 -51.501 48s-22.5 36.667 -32.5 66l-187 537h-178l-12 -32l22 -5c27.333 -6 41 -19.667 41 -41c0 -8.66699 -3.33301 -23.667 -10 -45l-146 -420
c-9.33301 -28.667 -19.5 -48.334 -30.5 -59.001s-29.167 -19.667 -54.5 -27l-21 -5l12 -32h170z" />
    <glyph glyph-name="Adieresis" unicode="&#xc4;" horiz-adv-x="654" 
d="M473 815c0 12 -7.00195 25.333 -21.002 40s-26.667 22 -38 22s-23.666 -7.33301 -36.999 -22s-20 -28 -20 -40c0 -11.333 6.83301 -24.166 20.5 -38.499s25.834 -21.5 36.501 -21.5c11.333 0 24 7.16699 38 21.5s21 27.166 21 38.499zM297.998 815
c0 12 -7.16699 25.333 -21.5 40s-27.166 22 -38.499 22c-10.667 0 -22.667 -7.33301 -36 -22s-20 -28 -20 -40c0 -11.333 6.66699 -24.166 20 -38.499s25.333 -21.5 36 -21.5c11.333 0 24.166 7.16699 38.499 21.5s21.5 27.166 21.5 38.499zM312.998 571l89 -260h-175z
M166.998 0l17.001 15.001l-7 17c-8.66699 14.667 -13 33.334 -13 56.001s6.66699 55 20 97l23 68h214l44 -130c7.33301 -24.667 11 -39.334 11 -44.001c0 -21.333 -13.667 -35.333 -41 -42l-22 -5l10 -32h210l12 15c-22.667 17.333 -39.834 33.333 -51.501 48
s-22.5 36.667 -32.5 66l-187 537h-178l-12 -32l22 -5c27.333 -6 41 -19.667 41 -41c0 -8.66699 -3.33301 -23.667 -10 -45l-146 -420c-9.33301 -28.667 -19.5 -48.334 -30.5 -59.001s-29.167 -19.667 -54.5 -27l-21 -5l12 -32h170z" />
    <glyph glyph-name="Aring" unicode="&#xc5;" horiz-adv-x="654" 
d="M286 815c0 16 3.66699 29.167 11 39.5s17 15.5 29 15.5c12.667 0 22.5 -5.16699 29.5 -15.5s10.5 -23.5 10.5 -39.5c0 -15.333 -3.5 -28 -10.5 -38s-16.833 -15 -29.5 -15c-12 0 -21.667 5.16699 -29 15.5s-11 22.833 -11 37.5zM433 815c0 29.333 -9.33301 53.333 -28 72
s-45 28 -79 28c-32.667 0 -58.334 -9.33301 -77.001 -28s-28 -42.667 -28 -72c0 -28.667 9.33301 -52.167 28 -70.5s44.334 -27.5 77.001 -27.5c34 0 60.333 9.16699 79 27.5s28 41.833 28 70.5zM313 571l89 -260h-175zM167 0l17.001 15.001l-7 17
c-8.66699 14.667 -13 33.334 -13 56.001s6.66699 55 20 97l23 68h214l44 -130c7.33301 -24.667 11 -39.334 11 -44.001c0 -21.333 -13.667 -35.333 -41 -42l-22 -5l10 -32h210l12 15c-22.667 17.333 -39.834 33.333 -51.501 48s-22.5 36.667 -32.5 66l-187 537h-178l-12 -32
l22 -5c27.333 -6 41 -19.667 41 -41c0 -8.66699 -3.33301 -23.667 -10 -45l-146 -420c-9.33301 -28.667 -19.5 -48.334 -30.5 -59.001s-29.167 -19.667 -54.5 -27l-21 -5l12 -32h170z" />
    <glyph glyph-name="AE" unicode="&#xc6;" horiz-adv-x="894" 
d="M447 617v-281h-155zM835 -13l0.000976562 159l-31 10l-5 -21c-9.33301 -33.333 -20.5 -55.333 -33.5 -66s-35.833 -16 -68.5 -16h-100c-24 0 -39.833 4.33301 -47.5 13s-11.5 27.667 -11.5 57v161h79c34 0 58 -3.5 72 -10.5s23.667 -21.167 29 -42.5l5 -21l32 11v158
l-19 11l-7 -11c-20 -28.667 -44.667 -43 -74 -43h-117v207c0 28.667 3.83301 47.667 11.5 57s23.5 14 47.5 14h90c32.667 0 55.5 -5.5 68.5 -16.5s23.833 -33.167 32.5 -66.5l6 -22l32 11v165l-15 12l-17 -12c-16 -12.667 -51.333 -19 -106 -19h-285l-322 -579
c-14.667 -24.667 -38.667 -41.334 -72 -50.001l-22 -5l11 -32h171l17 15l-8 17c-8 20 -12 33.667 -12 41c0 22.667 6.33301 46 19 70l78 141h184v-167c0 -27.333 -3.83301 -46.166 -11.5 -56.499s-22.834 -18.833 -45.501 -25.5l-20 -5l10 -30h391
c20.667 0 33.667 -4.33301 39 -13l7 -10z" />
    <glyph glyph-name="Ccedilla" unicode="&#xc7;" horiz-adv-x="572" 
d="M401 -166c0 33.333 -9.99707 59.165 -29.9971 77.498s-44.667 27.5 -74 27.5c-12.667 0 -24.334 -1.33301 -35.001 -4l40 53c2.66699 0 7 -0.166992 13 -0.5s10.667 -0.5 14 -0.5c90 0 162.333 39 217 117c1.33301 4 2 6.66699 2 8c0 6 -3.33301 11.833 -10 17.5
s-13.334 8.5 -20.001 8.5c-2 0 -4 -1.33301 -6 -4c-37.333 -55.333 -95.666 -83 -174.999 -83c-60 0 -108.333 27 -145 81s-55 120.667 -55 200c0 36.667 3.5 71.667 10.5 105s17.667 64.833 32 94.5s34.666 53.167 60.999 70.5s56.833 26 91.5 26
c35.333 0 63.833 -9.16699 85.5 -27.5s32.5 -41.833 32.5 -70.5c0 -14.667 -2.33301 -28.334 -7 -41.001s-9.5 -22.5 -14.5 -29.5s-7.5 -11.5 -7.5 -13.5c0 -7.33301 7 -11 21 -11c28 0 51.333 10 70 30s28 46 28 78c0 40.667 -19.333 73.5 -58 98.5s-88.667 37.5 -150 37.5
c-97.333 0 -171.5 -32.5 -222.5 -97.5s-76.5 -148.167 -76.5 -249.5c0 -88.667 20 -164 60 -226s98.333 -99.667 175 -113l-66 -88l18 -16c17.333 10 34 15 50 15c20 0 35.5 -6.66699 46.5 -20s16.5 -29.666 16.5 -48.999c0 -18 -5.33301 -34 -16 -48s-25 -21 -43 -21
c-10 0 -18.833 3.33301 -26.5 10s-11.5 15.334 -11.5 26.001s2.33301 19.834 7 27.501s7 12.167 7 13.5c0 6 -5.66699 9 -17 9c-16 0 -29.833 -5 -41.5 -15s-17.5 -23 -17.5 -39c0 -22 10.167 -39.333 30.5 -52s44.166 -19 71.499 -19c35.333 0 65 10.333 89 31s36 46 36 76
z" />
    <glyph glyph-name="Egrave" unicode="&#xc8;" horiz-adv-x="564" 
d="M379 765l-145 146c-26 -12.667 -39 -32.667 -39 -60s17.333 -49.333 52 -66l105 -51zM507 -13v158.999l-31 10l-6 -21c-8.66699 -32.667 -19.5 -54.5 -32.5 -65.5s-35.833 -16.5 -68.5 -16.5h-100c-24 0 -39.833 4.33301 -47.5 13s-11.5 27.667 -11.5 57v189h78
c34 0 58 -3.33301 72 -10s24 -20.667 30 -42l6 -23l31 11v159l-18 10l-8 -10c-19.333 -28 -43.666 -42 -72.999 -42h-118v178c0 28.667 3.83301 47.667 11.5 57s23.5 14 47.5 14h91c32 0 54.5 -5.5 67.5 -16.5s23.833 -33.167 32.5 -66.5l5 -22l32 11v165l-14 12l-18 -12
c-16 -12.667 -51 -19 -105 -19h-283l-13 -15l13 -17c27.333 -36.667 41 -88 41 -154v-363c0 -27.333 -3.83301 -46.166 -11.5 -56.499s-22.834 -18.833 -45.501 -25.5l-20 -5l11 -30h391c18 0 31 -4.33301 39 -13l7 -10z" />
    <glyph glyph-name="Eacute" unicode="&#xc9;" horiz-adv-x="564" 
d="M355 785c34 16.667 51 38.667 51 66s-13 47.333 -39 60l-144 -146l27 -31zM507 -13v158.999l-31 10l-6 -21c-8.66699 -32.667 -19.5 -54.5 -32.5 -65.5s-35.833 -16.5 -68.5 -16.5h-100c-24 0 -39.833 4.33301 -47.5 13s-11.5 27.667 -11.5 57v189h78
c34 0 58 -3.33301 72 -10s24 -20.667 30 -42l6 -23l31 11v159l-18 10l-8 -10c-19.333 -28 -43.666 -42 -72.999 -42h-118v178c0 28.667 3.83301 47.667 11.5 57s23.5 14 47.5 14h91c32 0 54.5 -5.5 67.5 -16.5s23.833 -33.167 32.5 -66.5l5 -22l32 11v165l-14 12l-18 -12
c-16 -12.667 -51 -19 -105 -19h-283l-13 -15l13 -17c27.333 -36.667 41 -88 41 -154v-363c0 -27.333 -3.83301 -46.166 -11.5 -56.499s-22.834 -18.833 -45.501 -25.5l-20 -5l11 -30h391c18 0 31 -4.33301 39 -13l7 -10z" />
    <glyph glyph-name="Ecircumflex" unicode="&#xca;" horiz-adv-x="564" 
d="M296 810l97.999 -76l29 25c-19.333 34.667 -40.333 66 -63 94s-39.667 45.333 -51 52h-25c-12.667 -7.33301 -30.167 -25 -52.5 -53s-43.166 -59 -62.499 -93l31 -25zM506.999 -13v158.999l-31 10l-6 -21c-8.66699 -32.667 -19.5 -54.5 -32.5 -65.5
s-35.833 -16.5 -68.5 -16.5h-100c-24 0 -39.833 4.33301 -47.5 13s-11.5 27.667 -11.5 57v189h78c34 0 58 -3.33301 72 -10s24 -20.667 30 -42l6 -23l31 11v159l-18 10l-8 -10c-19.333 -28 -43.666 -42 -72.999 -42h-118v178c0 28.667 3.83301 47.667 11.5 57
s23.5 14 47.5 14h91c32 0 54.5 -5.5 67.5 -16.5s23.833 -33.167 32.5 -66.5l5 -22l32 11v165l-14 12l-18 -12c-16 -12.667 -51 -19 -105 -19h-283l-13 -15l13 -17c27.333 -36.667 41 -88 41 -154v-363c0 -27.333 -3.83301 -46.166 -11.5 -56.499
s-22.834 -18.833 -45.501 -25.5l-20 -5l11 -30h391c18 0 31 -4.33301 39 -13l7 -10z" />
    <glyph glyph-name="Edieresis" unicode="&#xcb;" horiz-adv-x="564" 
d="M442 815c0 12 -7.16699 25.333 -21.5 40s-27.166 22 -38.499 22c-10.667 0 -22.667 -7.33301 -36 -22s-20 -28 -20 -40c0 -11.333 6.66699 -24.166 20 -38.499s25.333 -21.5 36 -21.5c11.333 0 24.166 7.16699 38.499 21.5s21.5 27.166 21.5 38.499zM266 815
c0 12 -7.16699 25.333 -21.5 40s-27.166 22 -38.499 22c-10.667 0 -22.667 -7.33301 -36 -22s-20 -28 -20 -40c0 -11.333 6.66699 -24.166 20 -38.499s25.333 -21.5 36 -21.5c11.333 0 24.166 7.16699 38.499 21.5s21.5 27.166 21.5 38.499zM507 -13v158.999l-31 10l-6 -21
c-8.66699 -32.667 -19.5 -54.5 -32.5 -65.5s-35.833 -16.5 -68.5 -16.5h-100c-24 0 -39.833 4.33301 -47.5 13s-11.5 27.667 -11.5 57v189h78c34 0 58 -3.33301 72 -10s24 -20.667 30 -42l6 -23l31 11v159l-18 10l-8 -10c-19.333 -28 -43.666 -42 -72.999 -42h-118v178
c0 28.667 3.83301 47.667 11.5 57s23.5 14 47.5 14h91c32 0 54.5 -5.5 67.5 -16.5s23.833 -33.167 32.5 -66.5l5 -22l32 11v165l-14 12l-18 -12c-16 -12.667 -51 -19 -105 -19h-283l-13 -15l13 -17c27.333 -36.667 41 -88 41 -154v-363
c0 -27.333 -3.83301 -46.166 -11.5 -56.499s-22.834 -18.833 -45.501 -25.5l-20 -5l11 -30h391c18 0 31 -4.33301 39 -13l7 -10z" />
    <glyph glyph-name="Igrave" unicode="&#xcc;" horiz-adv-x="327" 
d="M255 765l-144 146c-26.667 -13.333 -40 -33.333 -40 -60c0 -27.333 17.333 -49.333 52 -66l106 -51zM276 0l9 30.002l-19 5c-22.667 6.66699 -37.667 15.167 -45 25.5s-11 29.166 -11 56.499v363c0 66.667 14 118 42 154l12 17l-12 15h-204l-11 -32l22 -5
c23.333 -6.66699 39 -15.667 47 -27s12 -31 12 -59v-420c0 -28.667 -3.83301 -48.334 -11.5 -59.001s-23.5 -19.667 -47.5 -27l-22 -5l11 -32h228z" />
    <glyph glyph-name="Iacute" unicode="&#xcd;" horiz-adv-x="327" 
d="M212 785c34 16.667 51 38.667 51 66c0 26.667 -13.333 46.667 -40 60l-143 -146l26 -31zM276 0l9 30.002l-19 5c-22.667 6.66699 -37.667 15.167 -45 25.5s-11 29.166 -11 56.499v363c0 66.667 14 118 42 154l12 17l-12 15h-204l-11 -32l22 -5
c23.333 -6.66699 39 -15.667 47 -27s12 -31 12 -59v-420c0 -28.667 -3.83301 -48.334 -11.5 -59.001s-23.5 -19.667 -47.5 -27l-22 -5l11 -32h228z" />
    <glyph glyph-name="Icircumflex" unicode="&#xce;" horiz-adv-x="327" 
d="M164 810l97.999 -76l30 25c-19.333 34 -40.5 65.167 -63.5 93.5s-40.167 45.833 -51.5 52.5h-25c-12.667 -7.33301 -30.167 -25 -52.5 -53s-43.166 -59 -62.499 -93l31 -25zM275.999 0l9 30.002l-19 5c-22.667 6.66699 -37.667 15.167 -45 25.5s-11 29.166 -11 56.499
v363c0 66.667 14 118 42 154l12 17l-12 15h-204l-11 -32l22 -5c23.333 -6.66699 39 -15.667 47 -27s12 -31 12 -59v-420c0 -28.667 -3.83301 -48.334 -11.5 -59.001s-23.5 -19.667 -47.5 -27l-22 -5l11 -32h228z" />
    <glyph glyph-name="Idieresis" unicode="&#xcf;" horiz-adv-x="327" 
d="M310 815c0 12 -7.16699 25.333 -21.5 40s-27.166 22 -38.499 22c-10.667 0 -22.667 -7.33301 -36 -22s-20 -28 -20 -40c0 -11.333 6.66699 -24.166 20 -38.499s25.333 -21.5 36 -21.5c11.333 0 24.166 7.16699 38.499 21.5s21.5 27.166 21.5 38.499zM134 815
c0 12 -7.16699 25.333 -21.5 40s-27.166 22 -38.499 22c-10.667 0 -22.667 -7.33301 -36 -22s-20 -28 -20 -40c0 -11.333 6.66699 -24.166 20 -38.499s25.333 -21.5 36 -21.5c11.333 0 24.166 7.16699 38.499 21.5s21.5 27.166 21.5 38.499zM276 0l9 30.002l-19 5
c-22.667 6.66699 -37.667 15.167 -45 25.5s-11 29.166 -11 56.499v363c0 66.667 14 118 42 154l12 17l-12 15h-204l-11 -32l22 -5c23.333 -6.66699 39 -15.667 47 -27s12 -31 12 -59v-420c0 -28.667 -3.83301 -48.334 -11.5 -59.001s-23.5 -19.667 -47.5 -27l-22 -5l11 -32
h228z" />
    <glyph glyph-name="Eth" unicode="&#xd0;" horiz-adv-x="679" 
d="M210 163v146h159c14 11.333 21 30.333 21 57h-180v218c0 29.333 30.333 44 91 44c54 0 100.167 -14.333 138.5 -43s65.833 -64.667 82.5 -108s25 -91 25 -143c0 -191.333 -79 -287 -237 -287c-30 0 -54.167 8.16699 -72.5 24.5s-27.5 46.833 -27.5 91.5zM339 0
c99.333 0 175.5 31 228.5 93s79.5 141.667 79.5 239c0 38.667 -3.66699 74.334 -11 107.001s-19.833 64 -37.5 94s-40 55.667 -67 77s-61.5 38.166 -103.5 50.499s-90 18.5 -144 18.5c-90 0 -173.667 -13.667 -251 -41l11 -35h53c14 0 21 -7 21 -21v-216h-87
c-14 -10 -21 -29 -21 -57h108v-196c0 -23.333 -5 -40.333 -15 -51s-24.667 -19 -44 -25l-22 -5l11 -32h291z" />
    <glyph glyph-name="Ntilde" unicode="&#xd1;" horiz-adv-x="722" 
d="M313 789c8.66699 0 21.6689 -5.33203 39.002 -15.999s33.666 -16 48.999 -16c17.333 0 36.5 8.16699 57.5 24.5s41.167 38.166 60.5 65.499l-31 30c-26 -25.333 -47.333 -38 -64 -38c-8.66699 0 -21.834 5.5 -39.501 16.5s-33.5 16.5 -47.5 16.5
c-35.333 0 -75 -29.667 -119 -89l33 -30c22 24 42.667 36 62 36zM219.002 0.000976562l12 15.001l-12 17c-15.333 20 -26 41.167 -32 63.5s-9 52.5 -9 90.5v339l353 -525h94l11 15l-11 17c-9.33301 13.333 -14 30 -14 50v398c0 66 13.667 117.333 41 154l14 17l-14 15h-174
l-13 -32l22 -5c24 -6.66699 40 -15.667 48 -27s12 -31 12 -59v-403l-355 526h-149l-11 -32l21 -5c23.333 -6.66699 39 -15.667 47 -27s12 -31 12 -59v-420c0 -28.667 -3.83301 -48.334 -11.5 -59.001s-23.5 -19.667 -47.5 -27l-21 -5l11 -32h176z" />
    <glyph glyph-name="Ograve" unicode="&#xd2;" horiz-adv-x="679" 
d="M431 765l-145 146c-26 -12.667 -39 -32.667 -39 -60s17.333 -49.333 52 -66l105 -51zM133 324c0 86 19 157.999 57 215.999s89.667 87 155 87c37.333 0 69.833 -9.83301 97.5 -29.5s48.667 -45.167 63 -76.5s24.833 -63.166 31.5 -95.499s10 -64.5 10 -96.5
c0 -82 -19 -150.5 -57 -205.5s-89.667 -82.5 -155 -82.5c-64.667 0 -114.5 26.667 -149.5 80s-52.5 121 -52.5 203zM647 331.999c0 101.333 -26.5 184.5 -79.5 249.5s-129.167 97.5 -228.5 97.5s-175.166 -32.5 -227.499 -97.5s-78.5 -148.167 -78.5 -249.5
s26.167 -184.166 78.5 -248.499s128.166 -96.5 227.499 -96.5s175.5 32.167 228.5 96.5s79.5 147.166 79.5 248.499z" />
    <glyph glyph-name="Oacute" unicode="&#xd3;" horiz-adv-x="679" 
d="M380 785c34 16.667 51 38.667 51 66s-13 47.333 -39 60l-144 -146l26 -31zM133 324c0 86 19 157.999 57 215.999s89.667 87 155 87c37.333 0 69.833 -9.83301 97.5 -29.5s48.667 -45.167 63 -76.5s24.833 -63.166 31.5 -95.499s10 -64.5 10 -96.5
c0 -82 -19 -150.5 -57 -205.5s-89.667 -82.5 -155 -82.5c-64.667 0 -114.5 26.667 -149.5 80s-52.5 121 -52.5 203zM647 331.999c0 101.333 -26.5 184.5 -79.5 249.5s-129.167 97.5 -228.5 97.5s-175.166 -32.5 -227.499 -97.5s-78.5 -148.167 -78.5 -249.5
s26.167 -184.166 78.5 -248.499s128.166 -96.5 227.499 -96.5s175.5 32.167 228.5 96.5s79.5 147.166 79.5 248.499z" />
    <glyph glyph-name="Ocircumflex" unicode="&#xd4;" horiz-adv-x="679" 
d="M339 810l97.999 -76l30 25c-19.333 34 -40.5 65.167 -63.5 93.5s-40.167 45.833 -51.5 52.5h-24c-12.667 -7.33301 -30.167 -25 -52.5 -53s-43.166 -59 -62.499 -93l31 -25zM132.999 324c0 86 19 157.999 57 215.999s89.667 87 155 87
c37.333 0 69.833 -9.83301 97.5 -29.5s48.667 -45.167 63 -76.5s24.833 -63.166 31.5 -95.499s10 -64.5 10 -96.5c0 -82 -19 -150.5 -57 -205.5s-89.667 -82.5 -155 -82.5c-64.667 0 -114.5 26.667 -149.5 80s-52.5 121 -52.5 203zM646.999 331.999
c0 101.333 -26.5 184.5 -79.5 249.5s-129.167 97.5 -228.5 97.5s-175.166 -32.5 -227.499 -97.5s-78.5 -148.167 -78.5 -249.5s26.167 -184.166 78.5 -248.499s128.166 -96.5 227.499 -96.5s175.5 32.167 228.5 96.5s79.5 147.166 79.5 248.499z" />
    <glyph glyph-name="Otilde" unicode="&#xd5;" horiz-adv-x="679" 
d="M284 789c8.66699 0 21.6689 -5.33203 39.002 -15.999s33.666 -16 48.999 -16c17.333 0 36.5 8.16699 57.5 24.5s41.167 38.166 60.5 65.499l-30 30c-26 -25.333 -47.333 -38 -64 -38c-8.66699 0 -21.834 5.5 -39.501 16.5s-33.5 16.5 -47.5 16.5
c-36 0 -76 -29.667 -120 -89l33 -30c22 24 42.667 36 62 36zM133.002 324.001c0 86 19 157.999 57 215.999s89.667 87 155 87c37.333 0 69.833 -9.83301 97.5 -29.5s48.667 -45.167 63 -76.5s24.833 -63.166 31.5 -95.499s10 -64.5 10 -96.5c0 -82 -19 -150.5 -57 -205.5
s-89.667 -82.5 -155 -82.5c-64.667 0 -114.5 26.667 -149.5 80s-52.5 121 -52.5 203zM647.002 332c0 101.333 -26.5 184.5 -79.5 249.5s-129.167 97.5 -228.5 97.5s-175.166 -32.5 -227.499 -97.5s-78.5 -148.167 -78.5 -249.5s26.167 -184.166 78.5 -248.499
s128.166 -96.5 227.499 -96.5s175.5 32.167 228.5 96.5s79.5 147.166 79.5 248.499z" />
    <glyph glyph-name="Odieresis" unicode="&#xd6;" horiz-adv-x="679" 
d="M486 815c0 12 -7.00195 25.333 -21.002 40s-26.667 22 -38 22s-23.666 -7.33301 -36.999 -22s-20 -28 -20 -40c0 -11.333 6.83301 -24.166 20.5 -38.499s25.834 -21.5 36.501 -21.5c11.333 0 24 7.16699 38 21.5s21 27.166 21 38.499zM310.998 815
c0 12 -7.16699 25.333 -21.5 40s-27.166 22 -38.499 22c-10.667 0 -22.667 -7.33301 -36 -22s-20 -28 -20 -40c0 -11.333 6.66699 -24.166 20 -38.499s25.333 -21.5 36 -21.5c11.333 0 24.166 7.16699 38.499 21.5s21.5 27.166 21.5 38.499zM132.998 324
c0 86 19 157.999 57 215.999s89.667 87 155 87c37.333 0 69.833 -9.83301 97.5 -29.5s48.667 -45.167 63 -76.5s24.833 -63.166 31.5 -95.499s10 -64.5 10 -96.5c0 -82 -19 -150.5 -57 -205.5s-89.667 -82.5 -155 -82.5c-64.667 0 -114.5 26.667 -149.5 80
s-52.5 121 -52.5 203zM646.998 331.999c0 101.333 -26.5 184.5 -79.5 249.5s-129.167 97.5 -228.5 97.5s-175.166 -32.5 -227.499 -97.5s-78.5 -148.167 -78.5 -249.5s26.167 -184.166 78.5 -248.499s128.166 -96.5 227.499 -96.5s175.5 32.167 228.5 96.5
s79.5 147.166 79.5 248.499z" />
    <glyph glyph-name="multiply" unicode="&#xd7;" horiz-adv-x="636" 
d="M287 281l134 -134l50 50l-134 134l134 134l-50 50l-134 -134l-134 134l-50 -50l134 -134l-134 -134l50 -50z" />
    <glyph glyph-name="Oslash" unicode="&#xd8;" horiz-adv-x="679" 
d="M272 52l190 529c29.333 -28.667 50.833 -66.167 64.5 -112.5s20.5 -92.833 20.5 -139.5c0 -82 -19 -150.5 -57 -205.5s-89.667 -82.5 -155 -82.5c-22 0 -43 3.66699 -63 11zM133 324c0 86 19 158 57 216s89.667 87 155 87c18.667 0 39 -3.66699 61 -11l-188 -533
c-56.667 50 -85 130.333 -85 241zM233 -59l19.999 57.001c32 -7.33301 60.667 -11 86 -11c99.333 0 175.5 32.167 228.5 96.5s79.5 147.166 79.5 248.499c0 72 -13.667 135.667 -41 191s-67.666 96.333 -120.999 123l28 79h-67l-20 -57c-33.333 7.33301 -62.333 11 -87 11
c-99.333 0 -175.166 -32.5 -227.499 -97.5s-78.5 -148.167 -78.5 -249.5c0 -72.667 13.667 -136.667 41 -192s67.666 -96 120.999 -122l-27 -77h65z" />
    <glyph glyph-name="Ugrave" unicode="&#xd9;" horiz-adv-x="685" 
d="M434 765l-145 146c-26 -12.667 -39 -32.667 -39 -60s17.333 -49.333 52 -66l105 -51zM586 203l0.000976562 277.001c0 66.667 14 118 42 154l12 17l-12 15h-176l-12 -32l22 -5c24 -6.66699 39.833 -15.667 47.5 -27s11.5 -31 11.5 -59v-340
c0 -48.667 -15.333 -87 -46 -115s-69.334 -42 -116.001 -42c-47.333 0 -86.5 14 -117.5 42s-46.5 66.333 -46.5 115v277c0 66 13.667 117.333 41 154l12 17l-12 15h-202l-13 -32l23 -5c24 -6.66699 39.833 -15.667 47.5 -27s11.5 -31 11.5 -59v-340
c0 -72.667 22.5 -126.834 67.5 -162.501s103.833 -53.5 176.5 -53.5c71.333 0 129 18 173 54s66 90 66 162z" />
    <glyph glyph-name="Uacute" unicode="&#xda;" horiz-adv-x="685" 
d="M416 785c34 16.667 51 38.667 51 66s-13 47.333 -39 60l-144 -146l27 -31zM586 203l0.000976562 277.001c0 66.667 14 118 42 154l12 17l-12 15h-176l-12 -32l22 -5c24 -6.66699 39.833 -15.667 47.5 -27s11.5 -31 11.5 -59v-340c0 -48.667 -15.333 -87 -46 -115
s-69.334 -42 -116.001 -42c-47.333 0 -86.5 14 -117.5 42s-46.5 66.333 -46.5 115v277c0 66 13.667 117.333 41 154l12 17l-12 15h-202l-13 -32l23 -5c24 -6.66699 39.833 -15.667 47.5 -27s11.5 -31 11.5 -59v-340c0 -72.667 22.5 -126.834 67.5 -162.501
s103.833 -53.5 176.5 -53.5c71.333 0 129 18 173 54s66 90 66 162z" />
    <glyph glyph-name="Ucircumflex" unicode="&#xdb;" horiz-adv-x="685" 
d="M357 810l97.999 -76l30 25c-19.333 34 -40.5 65.167 -63.5 93.5s-40.167 45.833 -51.5 52.5h-24c-12.667 -7.33301 -30.167 -25 -52.5 -53s-43.166 -59 -62.499 -93l31 -25zM585.999 203l0.000976562 277.001c0 66.667 14 118 42 154l12 17l-12 15h-176l-12 -32l22 -5
c24 -6.66699 39.833 -15.667 47.5 -27s11.5 -31 11.5 -59v-340c0 -48.667 -15.333 -87 -46 -115s-69.334 -42 -116.001 -42c-47.333 0 -86.5 14 -117.5 42s-46.5 66.333 -46.5 115v277c0 66 13.667 117.333 41 154l12 17l-12 15h-202l-13 -32l23 -5
c24 -6.66699 39.833 -15.667 47.5 -27s11.5 -31 11.5 -59v-340c0 -72.667 22.5 -126.834 67.5 -162.501s103.833 -53.5 176.5 -53.5c71.333 0 129 18 173 54s66 90 66 162z" />
    <glyph glyph-name="Udieresis" unicode="&#xdc;" horiz-adv-x="685" 
d="M501 815c0 12 -7.00195 25.333 -21.002 40s-26.667 22 -38 22s-23.666 -7.33301 -36.999 -22s-20 -28 -20 -40c0 -11.333 6.83301 -24.166 20.5 -38.499s25.834 -21.5 36.501 -21.5c11.333 0 24 7.16699 38 21.5s21 27.166 21 38.499zM325.998 815
c0 12 -7.16699 25.333 -21.5 40s-27.166 22 -38.499 22c-10.667 0 -22.667 -7.33301 -36 -22s-20 -28 -20 -40c0 -11.333 6.66699 -24.166 20 -38.499s25.333 -21.5 36 -21.5c11.333 0 24.166 7.16699 38.499 21.5s21.5 27.166 21.5 38.499zM585.998 203
l0.000976562 277.001c0 66.667 14 118 42 154l12 17l-12 15h-176l-12 -32l22 -5c24 -6.66699 39.833 -15.667 47.5 -27s11.5 -31 11.5 -59v-340c0 -48.667 -15.333 -87 -46 -115s-69.334 -42 -116.001 -42c-47.333 0 -86.5 14 -117.5 42s-46.5 66.333 -46.5 115v277
c0 66 13.667 117.333 41 154l12 17l-12 15h-202l-13 -32l23 -5c24 -6.66699 39.833 -15.667 47.5 -27s11.5 -31 11.5 -59v-340c0 -72.667 22.5 -126.834 67.5 -162.501s103.833 -53.5 176.5 -53.5c71.333 0 129 18 173 54s66 90 66 162z" />
    <glyph glyph-name="Yacute" unicode="&#xdd;" horiz-adv-x="580" 
d="M374 785c34.667 16.667 52 38.667 52 66c0 26.667 -13.333 46.667 -40 60l-143 -146l26 -31zM405 0l11 32l-20 5c-24 6 -40.333 14.833 -49 26.5s-13 31.5 -13 59.5v158l145 255c19.333 36 41 68.667 65 98l13 17l-11 15h-177l-10 -32l20 -5c26 -6.66699 39 -23 39 -49
c0 -10.667 -3.66699 -23.334 -11 -38.001l-104 -188l-101 176c-19.333 30 -29 49.333 -29 58c0 21.333 14.333 35 43 41l20 5l-10 32h-210l-12 -15c30.667 -22.667 61.667 -61.667 93 -117l149 -261v-87c0 -36.667 -3.33301 -66.167 -10 -88.5s-18 -44.166 -34 -65.499
l-12 -17l12 -15h203z" />
    <glyph glyph-name="Thorn" unicode="&#xde;" horiz-adv-x="552" 
d="M276 0l8.99902 30.0029l-19 5c-22.667 6.66699 -37.667 15.167 -45 25.5s-11 29.166 -11 56.499v345c0 31.333 26.667 47 80 47c47.333 0 83.833 -16.333 109.5 -49s38.5 -74.667 38.5 -126c0 -50.667 -13 -90.834 -39 -120.501s-62.333 -44.5 -109 -44.5
c-10.667 0 -20.5 1.16699 -29.5 3.5s-14.167 3.5 -15.5 3.5c-10 0 -15 -8 -15 -24c0 -10 8 -17.667 24 -23s35.333 -8 58 -8c72.667 0 127.834 20.333 165.501 61s56.5 92 56.5 154s-20.667 114.333 -62 157s-93.333 64 -156 64c-36.667 0 -71 -6 -103 -18
c4.66699 35.333 17.667 67 39 95l12 17l-12 15h-204l-11 -32l22 -5c23.333 -6.66699 39 -15.667 47 -27s12 -31 12 -59v-420c0 -28.667 -3.83301 -48.334 -11.5 -59.001s-23.5 -19.667 -47.5 -27l-22 -5l11 -32h228z" />
    <glyph glyph-name="germandbls" unicode="&#xdf;" horiz-adv-x="589" 
d="M572 134c0 63.333 -39.332 114.995 -117.999 154.995l-65 33c-33.333 18 -50 42 -50 72c0 16 6.5 33 19.5 51s27.167 34 42.5 48s29.5 31.333 42.5 52s19.5 41 19.5 61c0 38.667 -13 68.334 -39 89.001s-59.333 31 -100 31c-69.333 0 -125.166 -21 -167.499 -63
s-63.5 -100.333 -63.5 -175v-365c0 -28.667 -3.83301 -48.334 -11.5 -59.001s-23.5 -19.667 -47.5 -27l-22 -5l11 -32h204l11 15l-11 17c-16 20.667 -27.167 42.167 -33.5 64.5s-9.5 52.166 -9.5 89.499v317c0 52.667 9.66699 95 29 127s49.333 48 90 48
c21.333 0 39.166 -5.66699 53.499 -17s21.5 -29.666 21.5 -54.999c0 -21.333 -6.33301 -43.666 -19 -66.999s-26.5 -43.5 -41.5 -60.5s-28.833 -36 -41.5 -57s-19 -39.5 -19 -55.5c0 -25.333 5.66699 -46.166 17 -62.499s29.666 -32.166 54.999 -47.499l70 -35
c60.667 -32.667 91 -70 91 -112c0 -25.333 -8.66699 -44.166 -26 -56.499s-37.333 -18.5 -60 -18.5c-26 0 -49.167 3 -69.5 9s-30.833 9 -31.5 9c-10 0 -15 -7.66699 -15 -23c0 -8.66699 3 -15 9 -19c30.667 -15.333 66 -23 106 -23c48.667 0 89 14.333 121 43
s48 63.334 48 104.001z" />
    <glyph glyph-name="agrave" unicode="&#xe0;" horiz-adv-x="559" 
d="M372 560l-144 145c-26.667 -13.333 -40 -33 -40 -59c0 -27.333 17.333 -49.333 52 -66l106 -51zM139 230c0 60.667 12.333 107.668 37 141.001s59.667 50 105 50c33.333 0 63.333 -9 90 -27v-251c-32 -56 -74 -84 -126 -84c-30 0 -55.167 13.667 -75.5 41
s-30.5 70.666 -30.5 129.999zM371 85.001c0 -34.667 5.83105 -59.667 17.498 -75s30.167 -23 55.5 -23c32.667 0 67 19.667 103 59l-18 24c-15.333 -11.333 -30.666 -17 -45.999 -17c-19.333 0 -29 9.66699 -29 29v302c0 10.667 4 23 12 37l13 17l-12 12
c-18.667 1.33301 -49 5.33301 -91 12s-73.333 10 -94 10c-74 0 -132.667 -23.167 -176 -69.5s-65 -109.5 -65 -189.5c0 -72 16.333 -127.667 49 -167s72.334 -59 119.001 -59c62.667 0 116.667 32.667 162 98z" />
    <glyph glyph-name="aacute" unicode="&#xe1;" horiz-adv-x="559" 
d="M320 580c34 16.667 51 38.666 51 65.999c0 26.667 -13 46.334 -39 59.001l-144 -145l27 -31zM139 229.999c0 60.667 12.333 107.668 37 141.001s59.667 50 105 50c33.333 0 63.333 -9 90 -27v-251c-32 -56 -74 -84 -126 -84c-30 0 -55.167 13.667 -75.5 41
s-30.5 70.666 -30.5 129.999zM371 85c0 -34.667 5.83105 -59.667 17.498 -75s30.167 -23 55.5 -23c32.667 0 67 19.667 103 59l-18 24c-15.333 -11.333 -30.666 -17 -45.999 -17c-19.333 0 -29 9.66699 -29 29v302c0 10.667 4 23 12 37l13 17l-12 12
c-18.667 1.33301 -49 5.33301 -91 12s-73.333 10 -94 10c-74 0 -132.667 -23.167 -176 -69.5s-65 -109.5 -65 -189.5c0 -72 16.333 -127.667 49 -167s72.334 -59 119.001 -59c62.667 0 116.667 32.667 162 98z" />
    <glyph glyph-name="acircumflex" unicode="&#xe2;" horiz-adv-x="559" 
d="M280 604l97.999 -75.001l29 24c-19.333 34.667 -40.333 66.167 -63 94.5s-39.667 45.833 -51 52.5h-25c-12.667 -7.33301 -30.167 -25.166 -52.5 -53.499s-43.166 -59.5 -62.499 -93.5l31 -24zM138.999 229.999c0 60.667 12.333 107.668 37 141.001s59.667 50 105 50
c33.333 0 63.333 -9 90 -27v-251c-32 -56 -74 -84 -126 -84c-30 0 -55.167 13.667 -75.5 41s-30.5 70.666 -30.5 129.999zM370.999 85c0 -34.667 5.83105 -59.667 17.498 -75s30.167 -23 55.5 -23c32.667 0 67 19.667 103 59l-18 24
c-15.333 -11.333 -30.666 -17 -45.999 -17c-19.333 0 -29 9.66699 -29 29v302c0 10.667 4 23 12 37l13 17l-12 12c-18.667 1.33301 -49 5.33301 -91 12s-73.333 10 -94 10c-74 0 -132.667 -23.167 -176 -69.5s-65 -109.5 -65 -189.5c0 -72 16.333 -127.667 49 -167
s72.334 -59 119.001 -59c62.667 0 116.667 32.667 162 98z" />
    <glyph glyph-name="atilde" unicode="&#xe3;" horiz-adv-x="559" 
d="M223 584c8.66699 0 21.833 -5.33203 39.5 -15.999s34.167 -16 49.5 -16c17.333 0 36.5 8.16699 57.5 24.5s41.167 38.166 60.5 65.499l-31 29c-25.333 -24.667 -46.666 -37 -63.999 -37c-8.66699 0 -21.834 5.5 -39.501 16.5s-33.5 16.5 -47.5 16.5
c-35.333 0 -75 -29.667 -119 -89l33 -30c22 24 42.333 36 61 36zM138.999 230.001c0 60.667 12.333 107.668 37 141.001s59.667 50 105 50c33.333 0 63.333 -9 90 -27v-251c-32 -56 -74 -84 -126 -84c-30 0 -55.167 13.667 -75.5 41s-30.5 70.666 -30.5 129.999z
M370.999 85.002c0 -34.667 5.83105 -59.667 17.498 -75s30.167 -23 55.5 -23c32.667 0 67 19.667 103 59l-18 24c-15.333 -11.333 -30.666 -17 -45.999 -17c-19.333 0 -29 9.66699 -29 29v302c0 10.667 4 23 12 37l13 17l-12 12c-18.667 1.33301 -49 5.33301 -91 12
s-73.333 10 -94 10c-74 0 -132.667 -23.167 -176 -69.5s-65 -109.5 -65 -189.5c0 -72 16.333 -127.667 49 -167s72.334 -59 119.001 -59c62.667 0 116.667 32.667 162 98z" />
    <glyph glyph-name="adieresis" unicode="&#xe4;" horiz-adv-x="559" 
d="M426 610c0 12 -7.16699 25.167 -21.5 39.5s-27.166 21.5 -38.499 21.5s-23.5 -7.16699 -36.5 -21.5s-19.5 -27.5 -19.5 -39.5c0 -11.333 6.66699 -24.166 20 -38.499s25.333 -21.5 36 -21.5c11.333 0 24.166 7.16699 38.499 21.5s21.5 27.166 21.5 38.499zM250 610
c0 12 -7.16699 25.167 -21.5 39.5s-27.166 21.5 -38.499 21.5s-23.5 -7.16699 -36.5 -21.5s-19.5 -27.5 -19.5 -39.5c0 -11.333 6.66699 -24.166 20 -38.499s25.333 -21.5 36 -21.5c11.333 0 24.166 7.16699 38.499 21.5s21.5 27.166 21.5 38.499zM139 230
c0 60.667 12.333 107.668 37 141.001s59.667 50 105 50c33.333 0 63.333 -9 90 -27v-251c-32 -56 -74 -84 -126 -84c-30 0 -55.167 13.667 -75.5 41s-30.5 70.666 -30.5 129.999zM371 85.001c0 -34.667 5.83105 -59.667 17.498 -75s30.167 -23 55.5 -23
c32.667 0 67 19.667 103 59l-18 24c-15.333 -11.333 -30.666 -17 -45.999 -17c-19.333 0 -29 9.66699 -29 29v302c0 10.667 4 23 12 37l13 17l-12 12c-18.667 1.33301 -49 5.33301 -91 12s-73.333 10 -94 10c-74 0 -132.667 -23.167 -176 -69.5s-65 -109.5 -65 -189.5
c0 -72 16.333 -127.667 49 -167s72.334 -59 119.001 -59c62.667 0 116.667 32.667 162 98z" />
    <glyph glyph-name="aring" unicode="&#xe5;" horiz-adv-x="559" 
d="M239 610c0 16 3.66699 29.165 11 39.498s17 15.5 29 15.5c12.667 0 22.5 -5.16699 29.5 -15.5s10.5 -23.5 10.5 -39.5c0 -15.333 -3.5 -28.166 -10.5 -38.499s-16.833 -15.5 -29.5 -15.5c-12 0 -21.667 5.33301 -29 16s-11 23.334 -11 38.001zM386 609.998
c0 29.333 -9.33301 53.333 -28 72s-45 28 -79 28c-32.667 0 -58.334 -9.33301 -77.001 -28s-28 -42.667 -28 -72c0 -28.667 9.33301 -52.167 28 -70.5s44.334 -27.5 77.001 -27.5c34 0 60.333 9.16699 79 27.5s28 41.833 28 70.5zM139 229.998
c0 60.667 12.333 107.668 37 141.001s59.667 50 105 50c33.333 0 63.333 -9 90 -27v-251c-32 -56 -74 -84 -126 -84c-30 0 -55.167 13.667 -75.5 41s-30.5 70.666 -30.5 129.999zM371 84.999c0 -34.667 5.83105 -59.667 17.498 -75s30.167 -23 55.5 -23
c32.667 0 67 19.667 103 59l-18 24c-15.333 -11.333 -30.666 -17 -45.999 -17c-19.333 0 -29 9.66699 -29 29v302c0 10.667 4 23 12 37l13 17l-12 12c-18.667 1.33301 -49 5.33301 -91 12s-73.333 10 -94 10c-74 0 -132.667 -23.167 -176 -69.5s-65 -109.5 -65 -189.5
c0 -72 16.333 -127.667 49 -167s72.334 -59 119.001 -59c62.667 0 116.667 32.667 162 98z" />
    <glyph glyph-name="ae" unicode="&#xe6;" horiz-adv-x="803" 
d="M380 98c18 -34.667 42.999 -61.834 74.999 -81.501s69 -29.5 111 -29.5c76 0 137.667 27.667 185 83c2 2 3 5 3 9c0 6 -2.66699 11.667 -8 17s-10.666 8 -15.999 8c-4 0 -7 -1 -9 -3c-36 -35.333 -81 -53 -135 -53c-44 0 -77.833 15.5 -101.5 46.5
s-35.5 74.167 -35.5 129.5c0 64.667 11.167 114.667 33.5 150s53.5 53 93.5 53c28 0 49.667 -8.83301 65 -26.5s23 -38.834 23 -63.501c0 -28.667 -10.333 -53.334 -31 -74.001s-49.667 -31 -87 -31c-14.667 0 -28 2 -40 6s-18.667 6 -20 6
c-3.33301 0 -6.66602 -2.16699 -9.99902 -6.5s-5 -9.16602 -5 -14.499c0 -14.667 12.167 -25.5 36.5 -32.5s46.833 -10.5 67.5 -10.5c54.667 0 97.834 15.667 129.501 47s47.5 67.666 47.5 108.999c0 37.333 -13.833 69.333 -41.5 96s-66.5 40 -116.5 40
c-82.667 0 -145.667 -27.667 -189 -83c-39.333 55.333 -96 83 -170 83c-32.667 0 -63.667 -5.16699 -93 -15.5s-51.333 -21.166 -66 -32.499s-22 -20.333 -22 -27c0 -6 2.83301 -12 8.5 -18s11.167 -9 16.5 -9c2 0 7.66699 3.5 17 10.5s24.166 14 44.499 21
s45.5 10.5 75.5 10.5c44.667 0 78.667 -15.5 102 -46.5s35 -74.5 35 -130.5c0 -63.333 -11.833 -112.166 -35.5 -146.499s-56.834 -51.5 -99.501 -51.5c-28 0 -49.667 8.33301 -65 25s-23 36.667 -23 60c0 30 10.333 55.833 31 77.5s49.334 32.5 86.001 32.5
c17.333 0 33 -2 47 -6s21.333 -6 22 -6c3.33301 0 6.5 2 9.5 6s4.5 8.66699 4.5 14c0 14 -13.333 24.833 -40 32.5s-50.334 11.5 -71.001 11.5c-54.667 0 -98 -16.333 -130 -49s-48 -70 -48 -112c0 -37.333 13.833 -69.333 41.5 -96s66.5 -40 116.5 -40
c42.667 0 79.5 9.83301 110.5 29.5s54.5 46.834 70.5 81.501z" />
    <glyph glyph-name="ccedilla" unicode="&#xe7;" horiz-adv-x="471" 
d="M340 -166c0 33.333 -9.99902 59.1611 -29.999 77.4941s-44.667 27.5 -74 27.5c-12.667 0 -24.334 -1.33301 -35.001 -4l41 53c2.66699 0 6.66699 -0.166992 12 -0.5s9.33301 -0.5 12 -0.5c66 0 121.667 25.667 167 77c1.33301 0.666992 2 3.33398 2 8.00098
c0 6 -2.5 11.833 -7.5 17.5s-10.167 8.5 -15.5 8.5c-4.66699 0 -7.66699 -0.666992 -9 -2c-37.333 -31.333 -78 -47 -122 -47s-78.833 16.833 -104.5 50.5s-38.5 79.167 -38.5 136.5c0 56.667 10.833 102.167 32.5 136.5s50.167 51.5 85.5 51.5
c26.667 0 48 -7.16699 64 -21.5s24 -33.5 24 -57.5c0 -15.333 -2 -28.666 -6 -39.999s-7.83301 -19.833 -11.5 -25.5s-5.5 -9.5 -5.5 -11.5c0 -6 5.66699 -9 17 -9c26.667 0 48.5 8.33301 65.5 25s25.5 38.334 25.5 65.001c0 36 -15.167 65.5 -45.5 88.5
s-69.5 34.5 -117.5 34.5c-68 0 -122.5 -22 -163.5 -66s-61.5 -103 -61.5 -177c0 -59.333 15.5 -110.166 46.5 -152.499s71.833 -69.5 122.5 -81.5l-69 -90l19 -16c17.333 10 34 15 50 15c20 0 35.333 -6.66699 46 -20s16 -29.666 16 -48.999
c0 -18.667 -5.16699 -34.834 -15.5 -48.501s-24.5 -20.5 -42.5 -20.5c-10 0 -18.833 3.33301 -26.5 10s-11.5 15.334 -11.5 26.001s2.16699 19.834 6.5 27.501s6.5 12.167 6.5 13.5c0 6 -5.66699 9 -17 9c-16 0 -29.667 -5 -41 -15s-17 -23 -17 -39c0 -22 10 -39.333 30 -52
s43.667 -19 71 -19c35.333 0 65 10.333 89 31s36 46 36 76z" />
    <glyph glyph-name="egrave" unicode="&#xe8;" horiz-adv-x="490" 
d="M337 560l-144 145c-26.667 -13.333 -40 -33 -40 -59c0 -27.333 17.333 -49.333 52 -66l106 -51zM439 70c2.66699 5.33301 4 8.33496 4 9.00195c0 6 -2.83301 11.667 -8.5 17s-11.167 8 -16.5 8c-3.33301 0 -6 -1 -8 -3c-36 -35.333 -81.333 -53 -136 -53
c-44.667 0 -78.667 15.5 -102 46.5s-35 74.167 -35 129.5c0 65.333 11.167 115.5 33.5 150.5s53.5 52.5 93.5 52.5c27.333 0 48.833 -8.83301 64.5 -26.5s23.5 -38.834 23.5 -63.501c0 -28.667 -10.333 -53.334 -31 -74.001s-49.667 -31 -87 -31c-14.667 0 -28 2 -40 6
s-18.667 6 -20 6c-8.66699 0 -13 -7 -13 -21c0 -14.667 11.833 -25.5 35.5 -32.5s45.834 -10.5 66.501 -10.5c54 0 97 15.667 129 47s48 67.666 48 108.999c0 38 -13.667 70.167 -41 96.5s-66.333 39.5 -117 39.5c-72.667 0 -131 -22.667 -175 -68s-66 -105.333 -66 -180
c0 -71.333 19.5 -128.666 58.5 -171.999s90.833 -65 155.5 -65c75.333 0 136.666 27.667 183.999 83z" />
    <glyph glyph-name="eacute" unicode="&#xe9;" horiz-adv-x="490" 
d="M285 580c34 16.667 51 38.666 51 65.999c0 26.667 -13 46.334 -39 59.001l-144 -145l27 -31zM439 69.999c2.66699 5.33301 4 8.33496 4 9.00195c0 6 -2.83301 11.667 -8.5 17s-11.167 8 -16.5 8c-3.33301 0 -6 -1 -8 -3c-36 -35.333 -81.333 -53 -136 -53
c-44.667 0 -78.667 15.5 -102 46.5s-35 74.167 -35 129.5c0 65.333 11.167 115.5 33.5 150.5s53.5 52.5 93.5 52.5c27.333 0 48.833 -8.83301 64.5 -26.5s23.5 -38.834 23.5 -63.501c0 -28.667 -10.333 -53.334 -31 -74.001s-49.667 -31 -87 -31c-14.667 0 -28 2 -40 6
s-18.667 6 -20 6c-8.66699 0 -13 -7 -13 -21c0 -14.667 11.833 -25.5 35.5 -32.5s45.834 -10.5 66.501 -10.5c54 0 97 15.667 129 47s48 67.666 48 108.999c0 38 -13.667 70.167 -41 96.5s-66.333 39.5 -117 39.5c-72.667 0 -131 -22.667 -175 -68s-66 -105.333 -66 -180
c0 -71.333 19.5 -128.666 58.5 -171.999s90.833 -65 155.5 -65c75.333 0 136.666 27.667 183.999 83z" />
    <glyph glyph-name="ecircumflex" unicode="&#xea;" horiz-adv-x="490" 
d="M246 604l97.999 -75.001l29 24c-19.333 34.667 -40.333 66.167 -63 94.5s-39.667 45.833 -51 52.5h-25c-12.667 -7.33301 -30.167 -25.166 -52.5 -53.499s-43.166 -59.5 -62.499 -93.5l31 -24zM438.999 69.999c2.66699 5.33301 4 8.33496 4 9.00195
c0 6 -2.83301 11.667 -8.5 17s-11.167 8 -16.5 8c-3.33301 0 -6 -1 -8 -3c-36 -35.333 -81.333 -53 -136 -53c-44.667 0 -78.667 15.5 -102 46.5s-35 74.167 -35 129.5c0 65.333 11.167 115.5 33.5 150.5s53.5 52.5 93.5 52.5c27.333 0 48.833 -8.83301 64.5 -26.5
s23.5 -38.834 23.5 -63.501c0 -28.667 -10.333 -53.334 -31 -74.001s-49.667 -31 -87 -31c-14.667 0 -28 2 -40 6s-18.667 6 -20 6c-8.66699 0 -13 -7 -13 -21c0 -14.667 11.833 -25.5 35.5 -32.5s45.834 -10.5 66.501 -10.5c54 0 97 15.667 129 47s48 67.666 48 108.999
c0 38 -13.667 70.167 -41 96.5s-66.333 39.5 -117 39.5c-72.667 0 -131 -22.667 -175 -68s-66 -105.333 -66 -180c0 -71.333 19.5 -128.666 58.5 -171.999s90.833 -65 155.5 -65c75.333 0 136.666 27.667 183.999 83z" />
    <glyph glyph-name="edieresis" unicode="&#xeb;" horiz-adv-x="490" 
d="M392 610c0 12 -7.16699 25.167 -21.5 39.5s-27.166 21.5 -38.499 21.5s-23.5 -7.16699 -36.5 -21.5s-19.5 -27.5 -19.5 -39.5c0 -11.333 6.66699 -24.166 20 -38.499s25.333 -21.5 36 -21.5c11.333 0 24.166 7.16699 38.499 21.5s21.5 27.166 21.5 38.499zM216 610
c0 12 -7.16699 25.167 -21.5 39.5s-27.166 21.5 -38.499 21.5s-23.5 -7.16699 -36.5 -21.5s-19.5 -27.5 -19.5 -39.5c0 -11.333 6.66699 -24.166 20 -38.499s25.333 -21.5 36 -21.5c11.333 0 24.166 7.16699 38.499 21.5s21.5 27.166 21.5 38.499zM439 70
c2.66699 5.33301 4 8.33496 4 9.00195c0 6 -2.83301 11.667 -8.5 17s-11.167 8 -16.5 8c-3.33301 0 -6 -1 -8 -3c-36 -35.333 -81.333 -53 -136 -53c-44.667 0 -78.667 15.5 -102 46.5s-35 74.167 -35 129.5c0 65.333 11.167 115.5 33.5 150.5s53.5 52.5 93.5 52.5
c27.333 0 48.833 -8.83301 64.5 -26.5s23.5 -38.834 23.5 -63.501c0 -28.667 -10.333 -53.334 -31 -74.001s-49.667 -31 -87 -31c-14.667 0 -28 2 -40 6s-18.667 6 -20 6c-8.66699 0 -13 -7 -13 -21c0 -14.667 11.833 -25.5 35.5 -32.5s45.834 -10.5 66.501 -10.5
c54 0 97 15.667 129 47s48 67.666 48 108.999c0 38 -13.667 70.167 -41 96.5s-66.333 39.5 -117 39.5c-72.667 0 -131 -22.667 -175 -68s-66 -105.333 -66 -180c0 -71.333 19.5 -128.666 58.5 -171.999s90.833 -65 155.5 -65c75.333 0 136.666 27.667 183.999 83z" />
    <glyph glyph-name="igrave" unicode="&#xec;" horiz-adv-x="289" 
d="M237 560l-144 145c-26.667 -13.333 -40 -33 -40 -59c0 -27.333 17.333 -49.333 52 -66l106 -51zM276 46l-17 24c-16 -13.333 -31.667 -20 -47 -20c-18.667 0 -28 10.667 -28 32v362c0 8.66699 -2.66699 15.5 -8 20.5s-12.666 7.5 -21.999 7.5
c-17.333 0 -37.333 -5.16699 -60 -15.5s-43 -23.5 -61 -39.5l7 -23h42c12 0 18 -7.33301 18 -22v-287c0 -34.667 5.66699 -59.667 17 -75s29.666 -23 54.999 -23c33.333 0 68 19.667 104 59z" />
    <glyph glyph-name="iacute" unicode="&#xed;" horiz-adv-x="289" 
d="M185 580c34 16.667 51 38.666 51 65.999c0 26.667 -13 46.334 -39 59.001l-144 -145l27 -31zM276 45.999l-17 24c-16 -13.333 -31.667 -20 -47 -20c-18.667 0 -28 10.667 -28 32v362c0 8.66699 -2.66699 15.5 -8 20.5s-12.666 7.5 -21.999 7.5
c-17.333 0 -37.333 -5.16699 -60 -15.5s-43 -23.5 -61 -39.5l7 -23h42c12 0 18 -7.33301 18 -22v-287c0 -34.667 5.66699 -59.667 17 -75s29.666 -23 54.999 -23c33.333 0 68 19.667 104 59z" />
    <glyph glyph-name="icircumflex" unicode="&#xee;" horiz-adv-x="289" 
d="M145 604l97.999 -75.002l29 24c-19.333 34 -40.5 65.333 -63.5 94s-40.167 46.334 -51.5 53.001h-24c-12.667 -7.33301 -30.167 -25.166 -52.5 -53.499s-43.166 -59.5 -62.499 -93.5l31 -24zM275.999 45.998l-17 24c-16 -13.333 -31.667 -20 -47 -20
c-18.667 0 -28 10.667 -28 32v362c0 8.66699 -2.66699 15.5 -8 20.5s-12.666 7.5 -21.999 7.5c-17.333 0 -37.333 -5.16699 -60 -15.5s-43 -23.5 -61 -39.5l7 -23h42c12 0 18 -7.33301 18 -22v-287c0 -34.667 5.66699 -59.667 17 -75s29.666 -23 54.999 -23
c33.333 0 68 19.667 104 59z" />
    <glyph glyph-name="idieresis" unicode="&#xef;" horiz-adv-x="289" 
d="M292 610c0 12 -7.16699 25.167 -21.5 39.5s-27.166 21.5 -38.499 21.5s-23.5 -7.16699 -36.5 -21.5s-19.5 -27.5 -19.5 -39.5c0 -11.333 6.66699 -24.166 20 -38.499s25.333 -21.5 36 -21.5c11.333 0 24.166 7.16699 38.499 21.5s21.5 27.166 21.5 38.499zM116 610
c0 12 -7.16699 25.167 -21.5 39.5s-27.166 21.5 -38.499 21.5s-23.5 -7.16699 -36.5 -21.5s-19.5 -27.5 -19.5 -39.5c0 -11.333 6.66699 -24.166 20 -38.499s25.333 -21.5 36 -21.5c11.333 0 24.166 7.16699 38.499 21.5s21.5 27.166 21.5 38.499zM276 46l-17 24
c-16 -13.333 -31.667 -20 -47 -20c-18.667 0 -28 10.667 -28 32v362c0 8.66699 -2.66699 15.5 -8 20.5s-12.666 7.5 -21.999 7.5c-17.333 0 -37.333 -5.16699 -60 -15.5s-43 -23.5 -61 -39.5l7 -23h42c12 0 18 -7.33301 18 -22v-287c0 -34.667 5.66699 -59.667 17 -75
s29.666 -23 54.999 -23c33.333 0 68 19.667 104 59z" />
    <glyph glyph-name="eth" unicode="&#xf0;" horiz-adv-x="541" 
d="M136 221c0 56.667 11.833 101.667 35.5 135s55.834 50 96.501 50c43.333 0 78.666 -17.833 105.999 -53.5s41 -82.167 41 -139.5c0 -54.667 -11.833 -97.667 -35.5 -129s-56.167 -47 -97.5 -47c-42.667 0 -77.667 16.833 -105 50.5s-41 78.167 -41 133.5zM502 221
c0 54 -6.66602 114.833 -19.999 182.5s-33.666 127.834 -60.999 180.501l77 37c8 4 13.333 11.5 16 22.5s4 29.167 4 54.5l-126 -64c-46 66 -103.333 99 -172 99c-48 0 -85.167 -11.5 -111.5 -34.5s-39.5 -50.167 -39.5 -81.5c0 -27.333 9.16699 -50.666 27.5 -69.999
s43.5 -29 75.5 -29c10 0 15 3.66699 15 11c0 2 -3.33301 6.16699 -10 12.5s-13.334 15.833 -20.001 28.5s-10 28 -10 46c0 20.667 6.5 38.167 19.5 52.5s30.5 21.5 52.5 21.5c41.333 0 78.666 -29 111.999 -87l-47 -23c-13.333 -6 -20 -31 -20 -75l92 46
c18 -44.667 32.667 -95.334 44 -152.001c-32.667 36.667 -75.667 55 -129 55c-71.333 0 -127.666 -20.833 -168.999 -62.5s-62 -98.5 -62 -170.5s20.667 -129 62 -171s97.666 -63 168.999 -63c70 0 126 21.167 168 63.5s63 99.166 63 170.499z" />
    <glyph glyph-name="ntilde" unicode="&#xf1;" horiz-adv-x="596" 
d="M242 584c8.66699 0 21.668 -5.33203 39.001 -15.999s33.666 -16 48.999 -16c17.333 0 36.5 8.16699 57.5 24.5s41.167 38.166 60.5 65.499l-31 29c-25.333 -24.667 -46.666 -37 -63.999 -37c-8.66699 0 -21.834 5.5 -39.501 16.5s-33.5 16.5 -47.5 16.5
c-35.333 0 -75 -29.667 -119 -89l33 -30c22 24 42.667 36 62 36zM579.001 46.001l-18.0029 24.002c-15.333 -13.333 -30.666 -20 -45.999 -20c-18.667 0 -28 10.667 -28 32v224c0 57.333 -10 99.333 -30 126s-51.333 40 -94 40c-35.333 0 -69.166 -12.833 -101.499 -38.5
s-56.5 -58.834 -72.5 -99.501v101c0 8.66699 -2.66699 15.667 -8 21s-12.333 8 -21 8c-17.333 0 -37.666 -5.16699 -60.999 -15.5s-44 -23.5 -62 -39.5l9 -25h40c12 0 18 -6.66699 18 -20v-261c0 -24 -2.5 -40.833 -7.5 -50.5s-15.5 -15.834 -31.5 -18.501l-18 -5l9 -29h163
l11 14l-11 15c-20 28 -30 67.667 -30 119c0 75.333 12.333 136.333 37 183s57 70 97 70c53.333 0 80 -31.667 80 -95v-221c0 -35.333 5.5 -60.5 16.5 -75.5s29.167 -22.5 54.5 -22.5c35.333 0 70.333 19.667 105 59z" />
    <glyph glyph-name="ograve" unicode="&#xf2;" horiz-adv-x="536" 
d="M355 560l-144 145c-26.667 -13.333 -40 -33 -40 -59c0 -27.333 17.333 -49.333 52 -66l106 -51zM138 229c0 58.667 12.167 105.832 36.5 141.499s56.5 53.5 96.5 53.5c30 0 55.167 -11.5 75.5 -34.5s33.833 -48.333 40.5 -76s10 -56.167 10 -85.5
c0 -57.333 -12.167 -103.5 -36.5 -138.5s-55.833 -52.5 -94.5 -52.5c-39.333 0 -70.5 17.333 -93.5 52s-34.5 81.334 -34.5 140.001zM495 229.998c0 74 -20.5 132.833 -61.5 176.5s-96.167 65.5 -165.5 65.5s-124.5 -21.667 -165.5 -65s-61.5 -102.333 -61.5 -177
c0 -74 20.5 -133 61.5 -177s96.167 -66 165.5 -66s124.5 22 165.5 66s61.5 103 61.5 177z" />
    <glyph glyph-name="oacute" unicode="&#xf3;" horiz-adv-x="536" 
d="M328 580c34 16.667 51 38.667 51 66c0 26 -13.333 45.667 -40 59l-143 -145l26 -31zM138 229c0 58.667 12.167 105.832 36.5 141.499s56.5 53.5 96.5 53.5c30 0 55.167 -11.5 75.5 -34.5s33.833 -48.333 40.5 -76s10 -56.167 10 -85.5
c0 -57.333 -12.167 -103.5 -36.5 -138.5s-55.833 -52.5 -94.5 -52.5c-39.333 0 -70.5 17.333 -93.5 52s-34.5 81.334 -34.5 140.001zM495 229.998c0 74 -20.5 132.833 -61.5 176.5s-96.167 65.5 -165.5 65.5s-124.5 -21.667 -165.5 -65s-61.5 -102.333 -61.5 -177
c0 -74 20.5 -133 61.5 -177s96.167 -66 165.5 -66s124.5 22 165.5 66s61.5 103 61.5 177z" />
    <glyph glyph-name="ocircumflex" unicode="&#xf4;" horiz-adv-x="536" 
d="M270 604l97.999 -75.002l30 24c-19.333 34 -40.5 65.333 -63.5 94s-40.167 46.334 -51.5 53.001h-24c-12.667 -7.33301 -30.167 -25.166 -52.5 -53.499s-43.166 -59.5 -62.499 -93.5l30 -24zM137.999 228.998c0 58.667 12.167 105.832 36.5 141.499s56.5 53.5 96.5 53.5
c30 0 55.167 -11.5 75.5 -34.5s33.833 -48.333 40.5 -76s10 -56.167 10 -85.5c0 -57.333 -12.167 -103.5 -36.5 -138.5s-55.833 -52.5 -94.5 -52.5c-39.333 0 -70.5 17.333 -93.5 52s-34.5 81.334 -34.5 140.001zM494.999 229.996c0 74 -20.5 132.833 -61.5 176.5
s-96.167 65.5 -165.5 65.5s-124.5 -21.667 -165.5 -65s-61.5 -102.333 -61.5 -177c0 -74 20.5 -133 61.5 -177s96.167 -66 165.5 -66s124.5 22 165.5 66s61.5 103 61.5 177z" />
    <glyph glyph-name="otilde" unicode="&#xf5;" horiz-adv-x="536" 
d="M215 584c8.66699 0 21.668 -5.33203 39.001 -15.999s33.666 -16 48.999 -16c17.333 0 36.5 8.16699 57.5 24.5s41.167 38.166 60.5 65.499l-31 29c-25.333 -24.667 -46.333 -37 -63 -37c-8.66699 0 -22 5.5 -40 16.5s-34 16.5 -48 16.5c-35.333 0 -75 -29.667 -119 -89
l33 -30c22 24 42.667 36 62 36zM138.001 229.001c0 58.667 12.167 105.832 36.5 141.499s56.5 53.5 96.5 53.5c30 0 55.167 -11.5 75.5 -34.5s33.833 -48.333 40.5 -76s10 -56.167 10 -85.5c0 -57.333 -12.167 -103.5 -36.5 -138.5s-55.833 -52.5 -94.5 -52.5
c-39.333 0 -70.5 17.333 -93.5 52s-34.5 81.334 -34.5 140.001zM495.001 229.999c0 74 -20.5 132.833 -61.5 176.5s-96.167 65.5 -165.5 65.5s-124.5 -21.667 -165.5 -65s-61.5 -102.333 -61.5 -177c0 -74 20.5 -133 61.5 -177s96.167 -66 165.5 -66s124.5 22 165.5 66
s61.5 103 61.5 177z" />
    <glyph glyph-name="odieresis" unicode="&#xf6;" horiz-adv-x="536" 
d="M417 610c0 12 -7.16699 25.167 -21.5 39.5s-27.166 21.5 -38.499 21.5s-23.5 -7.16699 -36.5 -21.5s-19.5 -27.5 -19.5 -39.5c0 -11.333 6.66699 -24.166 20 -38.499s25.333 -21.5 36 -21.5c11.333 0 24.166 7.16699 38.499 21.5s21.5 27.166 21.5 38.499zM242 610
c0 12 -7.16699 25.167 -21.5 39.5s-27.166 21.5 -38.499 21.5s-23.5 -7.16699 -36.5 -21.5s-19.5 -27.5 -19.5 -39.5c0 -11.333 6.66699 -24.166 20 -38.499s25.333 -21.5 36 -21.5c11.333 0 24.166 7.16699 38.499 21.5s21.5 27.166 21.5 38.499zM138 229
c0 58.667 12.167 105.832 36.5 141.499s56.5 53.5 96.5 53.5c30 0 55.167 -11.5 75.5 -34.5s33.833 -48.333 40.5 -76s10 -56.167 10 -85.5c0 -57.333 -12.167 -103.5 -36.5 -138.5s-55.833 -52.5 -94.5 -52.5c-39.333 0 -70.5 17.333 -93.5 52s-34.5 81.334 -34.5 140.001z
M495 229.998c0 74 -20.5 132.833 -61.5 176.5s-96.167 65.5 -165.5 65.5s-124.5 -21.667 -165.5 -65s-61.5 -102.333 -61.5 -177c0 -74 20.5 -133 61.5 -177s96.167 -66 165.5 -66s124.5 22 165.5 66s61.5 103 61.5 177z" />
    <glyph glyph-name="divide" unicode="&#xf7;" horiz-adv-x="636" 
d="M345 485c0 12.667 -7 26.167 -21 40.5s-26.667 21.5 -38 21.5s-23.5 -7.16699 -36.5 -21.5s-19.5 -27.833 -19.5 -40.5c0 -11.333 6.66699 -24 20 -38s25.333 -21 36 -21c11.333 0 24 7 38 21s21 26.667 21 38zM345 176c0 12.667 -7 26 -21 40s-26.667 21 -38 21
s-23.5 -7 -36.5 -21s-19.5 -27.333 -19.5 -40c0 -11.333 6.66699 -24.166 20 -38.499s25.333 -21.5 36 -21.5c11.333 0 24 7.16699 38 21.5s21 27.166 21 38.499zM484 297v69h-393v-69h393z" />
    <glyph glyph-name="oslash" unicode="&#xf8;" horiz-adv-x="536" 
d="M229 44l121 342.001c31.333 -38.667 47 -91.334 47 -158.001c0 -57.333 -12.167 -103.5 -36.5 -138.5s-55.833 -52.5 -94.5 -52.5c-10.667 0 -23 2.33301 -37 7zM138 229.001c0 58.667 12.166 105.833 36.499 141.5s56.5 53.5 96.5 53.5
c14.667 0 28.334 -2.66699 41.001 -8l-124 -347c-33.333 34.667 -50 88 -50 160zM189.999 -63l21 57c20.667 -4.66699 39.667 -7 57 -7c69.333 0 124.5 22 165.5 66s61.5 103 61.5 177c0 52.667 -10.667 98 -32 136s-51.333 66 -90 84l27 75h-50l-21 -60
c-22 4.66699 -42.333 7 -61 7c-69.333 0 -124.5 -21.667 -165.5 -65s-61.5 -102.333 -61.5 -177c0 -53.333 11 -99.5 33 -138.5s52.667 -67.167 92 -84.5l-25 -70h49z" />
    <glyph glyph-name="ugrave" unicode="&#xf9;" horiz-adv-x="570" 
d="M368 560l-145 145.001c-26 -12.667 -39 -32.334 -39 -59.001c0 -27.333 17.333 -49.333 52 -66l106 -51zM395 77.001c0 -31.333 5.49707 -54.166 16.4971 -68.499s28.833 -21.5 53.5 -21.5c36.667 0 71 19.667 103 59l-18 24c-14 -11.333 -29.333 -17 -46 -17
s-25 9.66699 -25 29v390l-114 -11l-12 -14l12 -14c14 -24.667 23.5 -49.667 28.5 -75s7.5 -60.666 7.5 -105.999c0 -63.333 -11.667 -113 -35 -149s-55.666 -54 -96.999 -54c-59.333 0 -89 38 -89 114v281c0 8.66699 -2.66699 15.5 -8 20.5s-12.666 7.5 -21.999 7.5
c-19.333 0 -40.5 -5.16699 -63.5 -15.5s-42.167 -23.5 -57.5 -39.5l7 -23h42c12 0 18 -7.33301 18 -22v-232c0 -48.667 12.333 -86.334 37 -113.001s59.334 -40 104.001 -40c34 0 65.167 8.16699 93.5 24.5s49.833 38.166 64.5 65.499z" />
    <glyph glyph-name="uacute" unicode="&#xfa;" horiz-adv-x="570" 
d="M351 580c34 16.667 51 38.666 51 65.999c0 26.667 -13 46.334 -39 59.001l-144 -145l27 -31zM395 76.999c0 -31.333 5.49707 -54.166 16.4971 -68.499s28.833 -21.5 53.5 -21.5c36.667 0 71 19.667 103 59l-18 24c-14 -11.333 -29.333 -17 -46 -17s-25 9.66699 -25 29
v390l-114 -11l-12 -14l12 -14c14 -24.667 23.5 -49.667 28.5 -75s7.5 -60.666 7.5 -105.999c0 -63.333 -11.667 -113 -35 -149s-55.666 -54 -96.999 -54c-59.333 0 -89 38 -89 114v281c0 8.66699 -2.66699 15.5 -8 20.5s-12.666 7.5 -21.999 7.5
c-19.333 0 -40.5 -5.16699 -63.5 -15.5s-42.167 -23.5 -57.5 -39.5l7 -23h42c12 0 18 -7.33301 18 -22v-232c0 -48.667 12.333 -86.334 37 -113.001s59.334 -40 104.001 -40c34 0 65.167 8.16699 93.5 24.5s49.833 38.166 64.5 65.499z" />
    <glyph glyph-name="ucircumflex" unicode="&#xfb;" horiz-adv-x="570" 
d="M284 604l97.999 -75.002l30 24c-19.333 34 -40.5 65.333 -63.5 94s-40.167 46.334 -51.5 53.001h-25c-12.667 -7.33301 -30.167 -25.166 -52.5 -53.499s-43.166 -59.5 -62.499 -93.5l31 -24zM394.999 76.998c0 -31.333 5.49707 -54.166 16.4971 -68.499
s28.833 -21.5 53.5 -21.5c36.667 0 71 19.667 103 59l-18 24c-14 -11.333 -29.333 -17 -46 -17s-25 9.66699 -25 29v390l-114 -11l-12 -14l12 -14c14 -24.667 23.5 -49.667 28.5 -75s7.5 -60.666 7.5 -105.999c0 -63.333 -11.667 -113 -35 -149s-55.666 -54 -96.999 -54
c-59.333 0 -89 38 -89 114v281c0 8.66699 -2.66699 15.5 -8 20.5s-12.666 7.5 -21.999 7.5c-19.333 0 -40.5 -5.16699 -63.5 -15.5s-42.167 -23.5 -57.5 -39.5l7 -23h42c12 0 18 -7.33301 18 -22v-232c0 -48.667 12.333 -86.334 37 -113.001s59.334 -40 104.001 -40
c34 0 65.167 8.16699 93.5 24.5s49.833 38.166 64.5 65.499z" />
    <glyph glyph-name="udieresis" unicode="&#xfc;" horiz-adv-x="570" 
d="M431 610c0 12 -7.16699 25.167 -21.5 39.5s-27.166 21.5 -38.499 21.5s-23.5 -7.16699 -36.5 -21.5s-19.5 -27.5 -19.5 -39.5c0 -11.333 6.66699 -24.166 20 -38.499s25.333 -21.5 36 -21.5c11.333 0 24.166 7.16699 38.499 21.5s21.5 27.166 21.5 38.499zM255 610
c0 12 -7.00195 25.167 -21.002 39.5s-26.667 21.5 -38 21.5s-23.666 -7.16699 -36.999 -21.5s-20 -27.5 -20 -39.5c0 -11.333 6.83301 -24.166 20.5 -38.499s25.834 -21.5 36.501 -21.5c11.333 0 24 7.16699 38 21.5s21 27.166 21 38.499zM394.998 77
c0 -31.333 5.49707 -54.166 16.4971 -68.499s28.833 -21.5 53.5 -21.5c36.667 0 71 19.667 103 59l-18 24c-14 -11.333 -29.333 -17 -46 -17s-25 9.66699 -25 29v390l-114 -11l-12 -14l12 -14c14 -24.667 23.5 -49.667 28.5 -75s7.5 -60.666 7.5 -105.999
c0 -63.333 -11.667 -113 -35 -149s-55.666 -54 -96.999 -54c-59.333 0 -89 38 -89 114v281c0 8.66699 -2.66699 15.5 -8 20.5s-12.666 7.5 -21.999 7.5c-19.333 0 -40.5 -5.16699 -63.5 -15.5s-42.167 -23.5 -57.5 -39.5l7 -23h42c12 0 18 -7.33301 18 -22v-232
c0 -48.667 12.333 -86.334 37 -113.001s59.334 -40 104.001 -40c34 0 65.167 8.16699 93.5 24.5s49.833 38.166 64.5 65.499z" />
    <glyph glyph-name="yacute" unicode="&#xfd;" horiz-adv-x="564" 
d="M351 580c34 16.667 51 38.666 51 65.999c0 26.667 -13 46.334 -39 59.001l-144 -145l27 -31zM476 -20.001l-0.000976562 493l-113 -11l-11 -14l11 -14c16 -20.667 26 -43.334 30 -68.001s6 -62.334 6 -113.001c0 -56 -11.667 -99.333 -35 -130s-55.666 -46 -96.999 -46
c-58 0 -87 37.333 -87 112v256c0 8.66699 -2.66699 15.5 -8 20.5s-12.666 7.5 -21.999 7.5c-19.333 0 -40.5 -5.16699 -63.5 -15.5s-42.167 -23.5 -57.5 -39.5l7 -23h42c12 0 18 -7.33301 18 -22v-205c0 -48.667 12.167 -86.5 36.5 -113.5s58.5 -40.5 102.5 -40.5
c34.667 0 66.167 7.83301 94.5 23.5s49.833 37.167 64.5 64.5v-137c0 -53.333 -9.16699 -95.833 -27.5 -127.5s-46.5 -47.5 -84.5 -47.5c-24.667 0 -44.334 8.33301 -59.001 25s-22 37.334 -22 62.001c0 20 3.66699 37.333 11 52s14.833 25.834 22.5 33.501
s11.5 12.5 11.5 14.5c0 6.66699 -5.66699 10 -17 10c-36.667 0 -65.5 -11 -86.5 -33s-31.5 -48.667 -31.5 -80c0 -35.333 14 -66.333 42 -93s67 -40 117 -40c64 0 114.333 20.833 151 62.5s55 100.5 55 176.5z" />
    <glyph glyph-name="thorn" unicode="&#xfe;" horiz-adv-x="552" 
d="M228 -246l8.99707 27.999l-19 4c-16 3.33301 -26.5 9.83301 -31.5 19.5s-7.5 26.5 -7.5 50.5v520c30.667 24 65.334 36 104.001 36s69.834 -16.833 93.501 -50.5s35.5 -77.5 35.5 -131.5c0 -56 -11.833 -102.167 -35.5 -138.5s-54.5 -54.5 -92.5 -54.5
c-16 0 -30.667 2.5 -44 7.5s-20.333 7.5 -21 7.5c-9.33301 0 -14 -7.66699 -14 -23c0 -8 3 -13.667 9 -17c25.333 -16.667 56 -25 92 -25c58.667 0 107.334 24.833 146.001 74.5s58 111.834 58 186.501c0 66 -18.5 119.833 -55.5 161.5s-84.167 62.5 -141.5 62.5
c-50 0 -94.667 -19 -134 -57v268c0 28.667 -7.66699 43 -23 43c-20 0 -43.833 -4.16699 -71.5 -12.5s-46.167 -16.833 -55.5 -25.5v-31l48 -10c12.667 -2.66699 19 -12.667 19 -30v-715c0 -51.333 -10.333 -91.333 -31 -120l-11 -15l11 -13h163z" />
    <glyph glyph-name="ydieresis" unicode="&#xff;" horiz-adv-x="564" 
d="M429 610c0 12 -7.16699 25.167 -21.5 39.5s-27.166 21.5 -38.499 21.5s-23.5 -7.16699 -36.5 -21.5s-19.5 -27.5 -19.5 -39.5c0 -11.333 6.66699 -24.166 20 -38.499s25.333 -21.5 36 -21.5c11.333 0 24.166 7.16699 38.499 21.5s21.5 27.166 21.5 38.499zM253 610
c0 12 -7.00195 25.167 -21.002 39.5s-26.667 21.5 -38 21.5s-23.666 -7.16699 -36.999 -21.5s-20 -27.5 -20 -39.5c0 -11.333 6.83301 -24.166 20.5 -38.499s25.834 -21.5 36.501 -21.5c11.333 0 24 7.16699 38 21.5s21 27.166 21 38.499zM475.998 -20l-0.000976562 493
l-113 -11l-11 -14l11 -14c16 -20.667 26 -43.334 30 -68.001s6 -62.334 6 -113.001c0 -56 -11.667 -99.333 -35 -130s-55.666 -46 -96.999 -46c-58 0 -87 37.333 -87 112v256c0 8.66699 -2.66699 15.5 -8 20.5s-12.666 7.5 -21.999 7.5
c-19.333 0 -40.5 -5.16699 -63.5 -15.5s-42.167 -23.5 -57.5 -39.5l7 -23h42c12 0 18 -7.33301 18 -22v-205c0 -48.667 12.167 -86.5 36.5 -113.5s58.5 -40.5 102.5 -40.5c34.667 0 66.167 7.83301 94.5 23.5s49.833 37.167 64.5 64.5v-137
c0 -53.333 -9.16699 -95.833 -27.5 -127.5s-46.5 -47.5 -84.5 -47.5c-24.667 0 -44.334 8.33301 -59.001 25s-22 37.334 -22 62.001c0 20 3.66699 37.333 11 52s14.833 25.834 22.5 33.501s11.5 12.5 11.5 14.5c0 6.66699 -5.66699 10 -17 10c-36.667 0 -65.5 -11 -86.5 -33
s-31.5 -48.667 -31.5 -80c0 -35.333 14 -66.333 42 -93s67 -40 117 -40c64 0 114.333 20.833 151 62.5s55 100.5 55 176.5z" />
    <glyph glyph-name="Amacron" unicode="&#x100;" horiz-adv-x="654" 
d="M424 778c16.667 13.333 25 38 25 74h-250c-16.667 -16 -25 -40.667 -25 -74h250zM313 571l89 -260h-175zM167 0l17.001 15.001l-7 17c-8.66699 14.667 -13 33.334 -13 56.001s6.66699 55 20 97l23 68h214l44 -130c7.33301 -24.667 11 -39.334 11 -44.001
c0 -21.333 -13.667 -35.333 -41 -42l-22 -5l10 -32h210l12 15c-22.667 17.333 -39.834 33.333 -51.501 48s-22.5 36.667 -32.5 66l-187 537h-178l-12 -32l22 -5c27.333 -6 41 -19.667 41 -41c0 -8.66699 -3.33301 -23.667 -10 -45l-146 -420
c-9.33301 -28.667 -19.5 -48.334 -30.5 -59.001s-29.167 -19.667 -54.5 -27l-21 -5l12 -32h170z" />
    <glyph glyph-name="amacron" unicode="&#x101;" horiz-adv-x="559" 
d="M402 572c16 14 24 38.667 24 74h-249c-16.667 -14 -25 -38.667 -25 -74h250zM139 230c0 60.667 12.333 107.668 37 141.001s59.667 50 105 50c33.333 0 63.333 -9 90 -27v-251c-32 -56 -74 -84 -126 -84c-30 0 -55.167 13.667 -75.5 41s-30.5 70.666 -30.5 129.999z
M371 85.001c0 -34.667 5.83105 -59.667 17.498 -75s30.167 -23 55.5 -23c32.667 0 67 19.667 103 59l-18 24c-15.333 -11.333 -30.666 -17 -45.999 -17c-19.333 0 -29 9.66699 -29 29v302c0 10.667 4 23 12 37l13 17l-12 12c-18.667 1.33301 -49 5.33301 -91 12
s-73.333 10 -94 10c-74 0 -132.667 -23.167 -176 -69.5s-65 -109.5 -65 -189.5c0 -72 16.333 -127.667 49 -167s72.334 -59 119.001 -59c62.667 0 116.667 32.667 162 98z" />
    <glyph glyph-name="Abreve" unicode="&#x102;" horiz-adv-x="654" 
d="M428 872h-51.001c0 -18 -6 -32.167 -18 -42.5s-27 -15.5 -45 -15.5c-19.333 0 -35.166 5.16699 -47.499 15.5s-18.5 24.5 -18.5 42.5h-51c0 -42 10.833 -74 32.5 -96s49.834 -33 84.501 -33c33.333 0 60.666 11 81.999 33s32 54 32 96zM312.999 571l89 -260h-175z
M166.999 0l17.001 15.001l-7 17c-8.66699 14.667 -13 33.334 -13 56.001s6.66699 55 20 97l23 68h214l44 -130c7.33301 -24.667 11 -39.334 11 -44.001c0 -21.333 -13.667 -35.333 -41 -42l-22 -5l10 -32h210l12 15c-22.667 17.333 -39.834 33.333 -51.501 48
s-22.5 36.667 -32.5 66l-187 537h-178l-12 -32l22 -5c27.333 -6 41 -19.667 41 -41c0 -8.66699 -3.33301 -23.667 -10 -45l-146 -420c-9.33301 -28.667 -19.5 -48.334 -30.5 -59.001s-29.167 -19.667 -54.5 -27l-21 -5l12 -32h170z" />
    <glyph glyph-name="abreve" unicode="&#x103;" horiz-adv-x="559" 
d="M400 668h-51c0 -18 -6.16699 -32.333 -18.5 -43s-27.5 -16 -45.5 -16c-18.667 0 -34.167 5.33301 -46.5 16s-18.5 25 -18.5 43h-51c0 -42 10.667 -74.167 32 -96.5s49.333 -33.5 84 -33.5c34 0 61.667 11.167 83 33.5s32 54.5 32 96.5zM139 230
c0 60.667 12.333 107.668 37 141.001s59.667 50 105 50c33.333 0 63.333 -9 90 -27v-251c-32 -56 -74 -84 -126 -84c-30 0 -55.167 13.667 -75.5 41s-30.5 70.666 -30.5 129.999zM371 85.001c0 -34.667 5.83105 -59.667 17.498 -75s30.167 -23 55.5 -23
c32.667 0 67 19.667 103 59l-18 24c-15.333 -11.333 -30.666 -17 -45.999 -17c-19.333 0 -29 9.66699 -29 29v302c0 10.667 4 23 12 37l13 17l-12 12c-18.667 1.33301 -49 5.33301 -91 12s-73.333 10 -94 10c-74 0 -132.667 -23.167 -176 -69.5s-65 -109.5 -65 -189.5
c0 -72 16.333 -127.667 49 -167s72.334 -59 119.001 -59c62.667 0 116.667 32.667 162 98z" />
    <glyph glyph-name="Aogonek" unicode="&#x104;" horiz-adv-x="654" 
d="M313 571l89 -260h-175zM645 -164l-31.001 28.002c-33.333 -39.333 -69.333 -59 -108 -59c-35.333 0 -53 18.333 -53 55c0 43.333 37.333 90 112 140h68l12 15c-22.667 17.333 -39.834 33.333 -51.501 48s-22.5 36.667 -32.5 66l-187 537h-178l-12 -32l22 -5
c27.333 -6 41 -19.667 41 -41c0 -8.66699 -3.33301 -23.667 -10 -45l-146 -420c-9.33301 -28.667 -19.5 -48.334 -30.5 -59.001s-29.167 -19.667 -54.5 -27l-21 -5l12 -32h170l17 15l-7 17c-8.66699 14.667 -13 33.334 -13 56.001s6.66699 55 20 97l23 68h214l44 -130
c7.33301 -24.667 11 -39.334 11 -44.001c0 -21.333 -13.667 -35.333 -41 -42l-22 -5l10 -32h72c-41.333 -29.333 -71.166 -56.333 -89.499 -81s-27.5 -51.334 -27.5 -80.001c0 -30 9.66699 -53.833 29 -71.5s44 -26.5 74 -26.5c58.667 0 113.334 31.667 164.001 95z" />
    <glyph glyph-name="aogonek" unicode="&#x105;" horiz-adv-x="559" 
d="M139 230c0 60.667 12.333 107.668 37 141.001s59.667 50 105 50c33.333 0 63.333 -9 90 -27v-251c-32 -56 -74 -84 -126 -84c-30 0 -55.167 13.667 -75.5 41s-30.5 70.666 -30.5 129.999zM569 -163.999l-31.0029 28.002c-33.333 -39.333 -69 -59 -107 -59
c-35.333 0 -53 18.333 -53 55c0 44 37 90.667 111 140c21.333 11.333 40.666 26.666 57.999 45.999l-18 24c-15.333 -11.333 -30.666 -17 -45.999 -17c-19.333 0 -29 9.66699 -29 29v302c0 10.667 4 23 12 37l13 17l-12 12c-18.667 1.33301 -49 5.33301 -91 12
s-73.333 10 -94 10c-74 0 -132.667 -23.167 -176 -69.5s-65 -109.5 -65 -189.5c0 -72 16.333 -127.667 49 -167s72.334 -59 119.001 -59c62.667 0 116.667 32.667 162 98c0 -50.667 13 -81.334 39 -92.001c-37.333 -27.333 -64.666 -53 -81.999 -77s-26 -49.667 -26 -77
c0 -30 9.66699 -53.833 29 -71.5s44 -26.5 74 -26.5c58.667 0 113.334 31.667 164.001 95z" />
    <glyph glyph-name="Cacute" unicode="&#x106;" horiz-adv-x="572" 
d="M374 784c35.333 17.333 53 40.001 53 68.001c0 25.333 -13.333 44.666 -40 57.999l-144 -145l26 -32zM546 104.001c1.33301 4 2.00098 6.66895 2.00098 8.00195c0 6 -3.33301 11.833 -10 17.5s-13.334 8.5 -20.001 8.5c-2 0 -4 -1.33301 -6 -4
c-37.333 -55.333 -95.666 -83 -174.999 -83c-60 0 -108.333 27 -145 81s-55 120.667 -55 200c0 36.667 3.5 71.667 10.5 105s17.667 64.833 32 94.5s34.666 53.167 60.999 70.5s56.833 26 91.5 26c35.333 0 63.833 -9.16699 85.5 -27.5s32.5 -41.833 32.5 -70.5
c0 -14.667 -2.33301 -28.334 -7 -41.001s-9.5 -22.5 -14.5 -29.5s-7.5 -11.5 -7.5 -13.5c0 -7.33301 7 -11 21 -11c28 0 51.333 10 70 30s28 46 28 78c0 40.667 -19.333 73.5 -58 98.5s-88.667 37.5 -150 37.5c-97.333 0 -171.5 -32.5 -222.5 -97.5
s-76.5 -148.167 -76.5 -249.5c0 -65.333 10.5 -123.333 31.5 -174s54.167 -91.834 99.5 -123.501s100.333 -47.5 165 -47.5c90 0 162.333 39 217 117z" />
    <glyph glyph-name="cacute" unicode="&#x107;" horiz-adv-x="471" 
d="M324 580c34.667 16.667 52 38.667 52 66c0 26 -13.333 45.667 -40 59l-143 -145l26 -31zM433 64c1.33301 0.666992 2.00098 3.33105 2.00098 7.99805c0 6 -2.5 11.833 -7.5 17.5s-10.167 8.5 -15.5 8.5c-4.66699 0 -7.66699 -0.666992 -9 -2
c-37.333 -31.333 -78 -47 -122 -47s-78.833 16.833 -104.5 50.5s-38.5 79.167 -38.5 136.5c0 56.667 10.833 102.167 32.5 136.5s50.167 51.5 85.5 51.5c26.667 0 48 -7.16699 64 -21.5s24 -33.5 24 -57.5c0 -15.333 -2 -28.666 -6 -39.999s-7.83301 -19.833 -11.5 -25.5
s-5.5 -9.5 -5.5 -11.5c0 -6 5.66699 -9 17 -9c26.667 0 48.5 8.33301 65.5 25s25.5 38.334 25.5 65.001c0 36 -15.167 65.5 -45.5 88.5s-69.5 34.5 -117.5 34.5c-68 0 -122.5 -22 -163.5 -66s-61.5 -103 -61.5 -177c0 -70 21.167 -127.833 63.5 -173.5
s96.166 -68.5 161.499 -68.5c66 0 121.667 25.667 167 77z" />
    <glyph glyph-name="Ccircumflex" unicode="&#x108;" horiz-adv-x="572" 
d="M331 810l96.999 -76.999l29 27c-18.667 33.333 -39.5 64.166 -62.5 92.499s-40.167 45.833 -51.5 52.5h-25c-12.667 -7.33301 -30.167 -25 -52.5 -53s-43.166 -58.667 -62.499 -92l31 -27zM545.999 104.001c1.33301 4 2.00098 6.66895 2.00098 8.00195
c0 6 -3.33301 11.833 -10 17.5s-13.334 8.5 -20.001 8.5c-2 0 -4 -1.33301 -6 -4c-37.333 -55.333 -95.666 -83 -174.999 -83c-60 0 -108.333 27 -145 81s-55 120.667 -55 200c0 36.667 3.5 71.667 10.5 105s17.667 64.833 32 94.5s34.666 53.167 60.999 70.5
s56.833 26 91.5 26c35.333 0 63.833 -9.16699 85.5 -27.5s32.5 -41.833 32.5 -70.5c0 -14.667 -2.33301 -28.334 -7 -41.001s-9.5 -22.5 -14.5 -29.5s-7.5 -11.5 -7.5 -13.5c0 -7.33301 7 -11 21 -11c28 0 51.333 10 70 30s28 46 28 78c0 40.667 -19.333 73.5 -58 98.5
s-88.667 37.5 -150 37.5c-97.333 0 -171.5 -32.5 -222.5 -97.5s-76.5 -148.167 -76.5 -249.5c0 -65.333 10.5 -123.333 31.5 -174s54.167 -91.834 99.5 -123.501s100.333 -47.5 165 -47.5c90 0 162.333 39 217 117z" />
    <glyph glyph-name="ccircumflex" unicode="&#x109;" horiz-adv-x="471" 
d="M266 604l97.999 -75.002l30 24c-19.333 34 -40.5 65.333 -63.5 94s-40.167 46.334 -51.5 53.001h-25c-12.667 -7.33301 -30.167 -25.166 -52.5 -53.499s-43.166 -59.5 -62.499 -93.5l31 -24zM432.999 63.998c1.33301 0.666992 2.00098 3.33105 2.00098 7.99805
c0 6 -2.5 11.833 -7.5 17.5s-10.167 8.5 -15.5 8.5c-4.66699 0 -7.66699 -0.666992 -9 -2c-37.333 -31.333 -78 -47 -122 -47s-78.833 16.833 -104.5 50.5s-38.5 79.167 -38.5 136.5c0 56.667 10.833 102.167 32.5 136.5s50.167 51.5 85.5 51.5
c26.667 0 48 -7.16699 64 -21.5s24 -33.5 24 -57.5c0 -15.333 -2 -28.666 -6 -39.999s-7.83301 -19.833 -11.5 -25.5s-5.5 -9.5 -5.5 -11.5c0 -6 5.66699 -9 17 -9c26.667 0 48.5 8.33301 65.5 25s25.5 38.334 25.5 65.001c0 36 -15.167 65.5 -45.5 88.5
s-69.5 34.5 -117.5 34.5c-68 0 -122.5 -22 -163.5 -66s-61.5 -103 -61.5 -177c0 -70 21.167 -127.833 63.5 -173.5s96.166 -68.5 161.499 -68.5c66 0 121.667 25.667 167 77z" />
    <glyph glyph-name="Cdotaccent" unicode="&#x10a;" horiz-adv-x="572" 
d="M397 815c0 14.667 -7.66699 30.167 -23 46.5s-29.666 24.5 -42.999 24.5s-27.666 -8.16699 -42.999 -24.5s-23 -31.833 -23 -46.5c0 -14 7.66699 -29 23 -45s29.666 -24 42.999 -24s27.666 8 42.999 24s23 31 23 45zM546 104c1.33301 4 2.00098 6.66895 2.00098 8.00195
c0 6 -3.33301 11.833 -10 17.5s-13.334 8.5 -20.001 8.5c-2 0 -4 -1.33301 -6 -4c-37.333 -55.333 -95.666 -83 -174.999 -83c-60 0 -108.333 27 -145 81s-55 120.667 -55 200c0 36.667 3.5 71.667 10.5 105s17.667 64.833 32 94.5s34.666 53.167 60.999 70.5
s56.833 26 91.5 26c35.333 0 63.833 -9.16699 85.5 -27.5s32.5 -41.833 32.5 -70.5c0 -14.667 -2.33301 -28.334 -7 -41.001s-9.5 -22.5 -14.5 -29.5s-7.5 -11.5 -7.5 -13.5c0 -7.33301 7 -11 21 -11c28 0 51.333 10 70 30s28 46 28 78c0 40.667 -19.333 73.5 -58 98.5
s-88.667 37.5 -150 37.5c-97.333 0 -171.5 -32.5 -222.5 -97.5s-76.5 -148.167 -76.5 -249.5c0 -65.333 10.5 -123.333 31.5 -174s54.167 -91.834 99.5 -123.501s100.333 -47.5 165 -47.5c90 0 162.333 39 217 117z" />
    <glyph glyph-name="cdotaccent" unicode="&#x10b;" horiz-adv-x="471" 
d="M333 610c0 14.667 -7.66699 30.167 -23 46.5s-30 24.5 -44 24.5c-13.333 0 -27.5 -8.16699 -42.5 -24.5s-22.5 -31.833 -22.5 -46.5c0 -13.333 7.83301 -28.333 23.5 -45s29.5 -25 41.5 -25c14 0 28.667 8.16699 44 24.5s23 31.5 23 45.5zM433 64
c1.33301 0.666992 2.00098 3.33105 2.00098 7.99805c0 6 -2.5 11.833 -7.5 17.5s-10.167 8.5 -15.5 8.5c-4.66699 0 -7.66699 -0.666992 -9 -2c-37.333 -31.333 -78 -47 -122 -47s-78.833 16.833 -104.5 50.5s-38.5 79.167 -38.5 136.5c0 56.667 10.833 102.167 32.5 136.5
s50.167 51.5 85.5 51.5c26.667 0 48 -7.16699 64 -21.5s24 -33.5 24 -57.5c0 -15.333 -2 -28.666 -6 -39.999s-7.83301 -19.833 -11.5 -25.5s-5.5 -9.5 -5.5 -11.5c0 -6 5.66699 -9 17 -9c26.667 0 48.5 8.33301 65.5 25s25.5 38.334 25.5 65.001
c0 36 -15.167 65.5 -45.5 88.5s-69.5 34.5 -117.5 34.5c-68 0 -122.5 -22 -163.5 -66s-61.5 -103 -61.5 -177c0 -70 21.167 -127.833 63.5 -173.5s96.166 -68.5 161.499 -68.5c66 0 121.667 25.667 167 77z" />
    <glyph glyph-name="Ccaron" unicode="&#x10c;" horiz-adv-x="572" 
d="M343 740c12 7.33301 29.333 25.333 52 54s43.334 60 62.001 94l-29 26l-97 -79l-97 79l-31 -26c19.333 -34 40.166 -65.167 62.499 -93.5s39.833 -46.5 52.5 -54.5h25zM546 104c1.33301 4 2.00098 6.66895 2.00098 8.00195c0 6 -3.33301 11.833 -10 17.5
s-13.334 8.5 -20.001 8.5c-2 0 -4 -1.33301 -6 -4c-37.333 -55.333 -95.666 -83 -174.999 -83c-60 0 -108.333 27 -145 81s-55 120.667 -55 200c0 36.667 3.5 71.667 10.5 105s17.667 64.833 32 94.5s34.666 53.167 60.999 70.5s56.833 26 91.5 26
c35.333 0 63.833 -9.16699 85.5 -27.5s32.5 -41.833 32.5 -70.5c0 -14.667 -2.33301 -28.334 -7 -41.001s-9.5 -22.5 -14.5 -29.5s-7.5 -11.5 -7.5 -13.5c0 -7.33301 7 -11 21 -11c28 0 51.333 10 70 30s28 46 28 78c0 40.667 -19.333 73.5 -58 98.5s-88.667 37.5 -150 37.5
c-97.333 0 -171.5 -32.5 -222.5 -97.5s-76.5 -148.167 -76.5 -249.5c0 -65.333 10.5 -123.333 31.5 -174s54.167 -91.834 99.5 -123.501s100.333 -47.5 165 -47.5c90 0 162.333 39 217 117z" />
    <glyph glyph-name="ccaron" unicode="&#x10d;" horiz-adv-x="471" 
d="M279 536c11.333 6.66699 28.501 24.332 51.501 52.999s44.167 60 63.5 94l-30 27l-98 -79l-96 79l-31 -27c19.333 -34 40.166 -65.167 62.499 -93.5s39.833 -46.166 52.5 -53.499h25zM433.001 63.998c1.33301 0.666992 2.00098 3.33105 2.00098 7.99805
c0 6 -2.5 11.833 -7.5 17.5s-10.167 8.5 -15.5 8.5c-4.66699 0 -7.66699 -0.666992 -9 -2c-37.333 -31.333 -78 -47 -122 -47s-78.833 16.833 -104.5 50.5s-38.5 79.167 -38.5 136.5c0 56.667 10.833 102.167 32.5 136.5s50.167 51.5 85.5 51.5
c26.667 0 48 -7.16699 64 -21.5s24 -33.5 24 -57.5c0 -15.333 -2 -28.666 -6 -39.999s-7.83301 -19.833 -11.5 -25.5s-5.5 -9.5 -5.5 -11.5c0 -6 5.66699 -9 17 -9c26.667 0 48.5 8.33301 65.5 25s25.5 38.334 25.5 65.001c0 36 -15.167 65.5 -45.5 88.5
s-69.5 34.5 -117.5 34.5c-68 0 -122.5 -22 -163.5 -66s-61.5 -103 -61.5 -177c0 -70 21.167 -127.833 63.5 -173.5s96.166 -68.5 161.499 -68.5c66 0 121.667 25.667 167 77z" />
    <glyph glyph-name="Dcaron" unicode="&#x10e;" horiz-adv-x="679" 
d="M352 740c12 7.33301 29.501 25.333 52.501 54s43.833 60 62.5 94l-30 26l-97 -79l-96 79l-31 -26c19.333 -34 40.166 -65.167 62.499 -93.5s39.833 -46.5 52.5 -54.5h24zM210.001 163v421c0 29.333 30.333 44 91 44c54 0 100.167 -14.333 138.5 -43
s65.833 -64.667 82.5 -108s25 -91 25 -143c0 -191.333 -79 -287 -237 -287c-30 0 -54.167 8.16699 -72.5 24.5s-27.5 46.833 -27.5 91.5zM339.001 0c99.333 0 175.5 31 228.5 93s79.5 141.667 79.5 239c0 38.667 -3.66699 74.334 -11 107.001s-19.833 64 -37.5 94
s-40 55.667 -67 77s-61.5 38.166 -103.5 50.499s-90 18.5 -144 18.5c-90 0 -173.667 -13.667 -251 -41l11 -35h53c14 0 21 -7 21 -21v-469c0 -23.333 -5 -40.333 -15 -51s-24.667 -19 -44 -25l-22 -5l11 -32h291z" />
    <glyph glyph-name="dcaron" unicode="&#x10f;" horiz-adv-x="606" 
d="M554 593c26 28.667 45.167 52 57.5 70s18.5 35.667 18.5 53c0 41.333 -20.333 62 -61 62c-14.667 0 -31.667 -3.66699 -51 -11l-17 -6l4 -22l18 -12c14 -10 21 -21 21 -33c0 -10 -3.66699 -23 -11 -39l-43 -84l28 -18zM139 230c0 60.667 12.333 107.668 37 141.001
s59.667 50 105 50c33.333 0 63.333 -9 90 -27v-251c-32 -56 -74 -84 -126 -84c-30 0 -55.167 13.667 -75.5 41s-30.5 70.666 -30.5 129.999zM371 85.001c0 -34.667 5.83008 -59.666 17.4971 -74.999s30.167 -23 55.5 -23c32.667 0 67 19.667 103 59l-18 24
c-15.333 -11.333 -30.666 -17 -45.999 -17c-19.333 0 -29 9.66699 -29 29v614c0 9.33301 -2.66699 16.666 -8 21.999s-12.666 8 -21.999 8c-17.333 0 -37.5 -5.33301 -60.5 -16s-43.167 -24 -60.5 -40l8 -24h41c12 0 18 -6.66699 18 -20v-165c-22.667 7.33301 -52 11 -88 11
c-74 0 -132.667 -23.167 -176 -69.5s-65 -109.5 -65 -189.5c0 -72 16.333 -127.667 49 -167s72.334 -59 119.001 -59c62.667 0 116.667 32.667 162 98z" />
    <glyph glyph-name="Dcroat" unicode="&#x110;" horiz-adv-x="679" 
d="M210 163v146h159c14 11.333 21 30.333 21 57h-180v218c0 29.333 30.333 44 91 44c54 0 100.167 -14.333 138.5 -43s65.833 -64.667 82.5 -108s25 -91 25 -143c0 -191.333 -79 -287 -237 -287c-30 0 -54.167 8.16699 -72.5 24.5s-27.5 46.833 -27.5 91.5zM339 0
c99.333 0 175.5 31 228.5 93s79.5 141.667 79.5 239c0 38.667 -3.66699 74.334 -11 107.001s-19.833 64 -37.5 94s-40 55.667 -67 77s-61.5 38.166 -103.5 50.499s-90 18.5 -144 18.5c-90 0 -173.667 -13.667 -251 -41l11 -35h53c14 0 21 -7 21 -21v-216h-87
c-14 -10 -21 -29 -21 -57h108v-196c0 -23.333 -5 -40.333 -15 -51s-24.667 -19 -44 -25l-22 -5l11 -32h291z" />
    <glyph glyph-name="dcroat" unicode="&#x111;" horiz-adv-x="559" 
d="M139 230c0 60.667 12.333 107.668 37 141.001s59.667 50 105 50c33.333 0 63.333 -9 90 -27v-251c-32 -56 -74 -84 -126 -84c-30 0 -55.167 13.667 -75.5 41s-30.5 70.666 -30.5 129.999zM371 85.001c0 -34.667 5.83008 -59.667 17.4971 -75s30.167 -23 55.5 -23
c32.667 0 67 19.667 103 59l-18 24c-15.333 -11.333 -30.666 -17 -45.999 -17c-19.333 0 -29 9.66699 -29 29v461h68c13.333 10.667 20 28 20 52h-88v101c0 9.33301 -2.66699 16.666 -8 21.999s-12.666 8 -21.999 8c-17.333 0 -37.5 -5.33301 -60.5 -16
s-43.167 -24 -60.5 -40l8 -24h41c12 0 18 -6.66699 18 -20v-31h-152c-12.667 -9.33301 -19 -26.666 -19 -51.999h171v-82c-22.667 7.33301 -52 11 -88 11c-74 0 -132.667 -23.167 -176 -69.5s-65 -109.5 -65 -189.5c0 -72 16.333 -127.667 49 -167s72.334 -59 119.001 -59
c62.667 0 116.667 32.667 162 98z" />
    <glyph glyph-name="Emacron" unicode="&#x112;" horiz-adv-x="564" 
d="M406 778c16.667 13.333 25 38 25 74h-250c-16.667 -16 -25 -40.667 -25 -74h250zM507 -13v158.999l-31 10l-6 -21c-8.66699 -32.667 -19.5 -54.5 -32.5 -65.5s-35.833 -16.5 -68.5 -16.5h-100c-24 0 -39.833 4.33301 -47.5 13s-11.5 27.667 -11.5 57v189h78
c34 0 58 -3.33301 72 -10s24 -20.667 30 -42l6 -23l31 11v159l-18 10l-8 -10c-19.333 -28 -43.666 -42 -72.999 -42h-118v178c0 28.667 3.83301 47.667 11.5 57s23.5 14 47.5 14h91c32 0 54.5 -5.5 67.5 -16.5s23.833 -33.167 32.5 -66.5l5 -22l32 11v165l-14 12l-18 -12
c-16 -12.667 -51 -19 -105 -19h-283l-13 -15l13 -17c27.333 -36.667 41 -88 41 -154v-363c0 -27.333 -3.83301 -46.166 -11.5 -56.499s-22.834 -18.833 -45.501 -25.5l-20 -5l11 -30h391c18 0 31 -4.33301 39 -13l7 -10z" />
    <glyph glyph-name="emacron" unicode="&#x113;" horiz-adv-x="490" 
d="M377 572c15.333 13.333 23 38 23 74h-249c-16 -13.333 -24 -38 -24 -74h250zM439 70c2.66699 5.33301 4 8.33496 4 9.00195c0 6 -2.83301 11.667 -8.5 17s-11.167 8 -16.5 8c-3.33301 0 -6 -1 -8 -3c-36 -35.333 -81.333 -53 -136 -53c-44.667 0 -78.667 15.5 -102 46.5
s-35 74.167 -35 129.5c0 65.333 11.167 115.5 33.5 150.5s53.5 52.5 93.5 52.5c27.333 0 48.833 -8.83301 64.5 -26.5s23.5 -38.834 23.5 -63.501c0 -28.667 -10.333 -53.334 -31 -74.001s-49.667 -31 -87 -31c-14.667 0 -28 2 -40 6s-18.667 6 -20 6
c-8.66699 0 -13 -7 -13 -21c0 -14.667 11.833 -25.5 35.5 -32.5s45.834 -10.5 66.501 -10.5c54 0 97 15.667 129 47s48 67.666 48 108.999c0 38 -13.667 70.167 -41 96.5s-66.333 39.5 -117 39.5c-72.667 0 -131 -22.667 -175 -68s-66 -105.333 -66 -180
c0 -71.333 19.5 -128.666 58.5 -171.999s90.833 -65 155.5 -65c75.333 0 136.666 27.667 183.999 83z" />
    <glyph glyph-name="Ebreve" unicode="&#x114;" horiz-adv-x="564" 
d="M409 872h-52.001c0 -18 -5.83301 -32.167 -17.5 -42.5s-26.5 -15.5 -44.5 -15.5c-19.333 0 -35.166 5.16699 -47.499 15.5s-18.5 24.5 -18.5 42.5h-51c0 -42 10.833 -74 32.5 -96s49.834 -33 84.501 -33c33.333 0 60.666 11 81.999 33s32 54 32 96zM506.999 -13v158.999
l-31 10l-6 -21c-8.66699 -32.667 -19.5 -54.5 -32.5 -65.5s-35.833 -16.5 -68.5 -16.5h-100c-24 0 -39.833 4.33301 -47.5 13s-11.5 27.667 -11.5 57v189h78c34 0 58 -3.33301 72 -10s24 -20.667 30 -42l6 -23l31 11v159l-18 10l-8 -10c-19.333 -28 -43.666 -42 -72.999 -42
h-118v178c0 28.667 3.83301 47.667 11.5 57s23.5 14 47.5 14h91c32 0 54.5 -5.5 67.5 -16.5s23.833 -33.167 32.5 -66.5l5 -22l32 11v165l-14 12l-18 -12c-16 -12.667 -51 -19 -105 -19h-283l-13 -15l13 -17c27.333 -36.667 41 -88 41 -154v-363
c0 -27.333 -3.83301 -46.166 -11.5 -56.499s-22.834 -18.833 -45.501 -25.5l-20 -5l11 -30h391c18 0 31 -4.33301 39 -13l7 -10z" />
    <glyph glyph-name="ebreve" unicode="&#x115;" horiz-adv-x="490" 
d="M378 668h-51c0 -18 -6.16699 -32.333 -18.5 -43s-27.5 -16 -45.5 -16c-18.667 0 -34.167 5.33301 -46.5 16s-18.5 25 -18.5 43h-51c0 -42 10.667 -74.167 32 -96.5s49.333 -33.5 84 -33.5c34 0 61.667 11.167 83 33.5s32 54.5 32 96.5zM439 70
c2.66699 5.33301 4 8.33496 4 9.00195c0 6 -2.83301 11.667 -8.5 17s-11.167 8 -16.5 8c-3.33301 0 -6 -1 -8 -3c-36 -35.333 -81.333 -53 -136 -53c-44.667 0 -78.667 15.5 -102 46.5s-35 74.167 -35 129.5c0 65.333 11.167 115.5 33.5 150.5s53.5 52.5 93.5 52.5
c27.333 0 48.833 -8.83301 64.5 -26.5s23.5 -38.834 23.5 -63.501c0 -28.667 -10.333 -53.334 -31 -74.001s-49.667 -31 -87 -31c-14.667 0 -28 2 -40 6s-18.667 6 -20 6c-8.66699 0 -13 -7 -13 -21c0 -14.667 11.833 -25.5 35.5 -32.5s45.834 -10.5 66.501 -10.5
c54 0 97 15.667 129 47s48 67.666 48 108.999c0 38 -13.667 70.167 -41 96.5s-66.333 39.5 -117 39.5c-72.667 0 -131 -22.667 -175 -68s-66 -105.333 -66 -180c0 -71.333 19.5 -128.666 58.5 -171.999s90.833 -65 155.5 -65c75.333 0 136.666 27.667 183.999 83z" />
    <glyph glyph-name="Edotaccent" unicode="&#x116;" horiz-adv-x="564" 
d="M361 815c0 14.667 -7.66699 30.167 -23 46.5s-29.666 24.5 -42.999 24.5s-27.666 -8.16699 -42.999 -24.5s-23 -31.833 -23 -46.5c0 -14 7.66699 -29 23 -45s29.666 -24 42.999 -24s27.666 8 42.999 24s23 31 23 45zM507 -13v158.999l-31 10l-6 -21
c-8.66699 -32.667 -19.5 -54.5 -32.5 -65.5s-35.833 -16.5 -68.5 -16.5h-100c-24 0 -39.833 4.33301 -47.5 13s-11.5 27.667 -11.5 57v189h78c34 0 58 -3.33301 72 -10s24 -20.667 30 -42l6 -23l31 11v159l-18 10l-8 -10c-19.333 -28 -43.666 -42 -72.999 -42h-118v178
c0 28.667 3.83301 47.667 11.5 57s23.5 14 47.5 14h91c32 0 54.5 -5.5 67.5 -16.5s23.833 -33.167 32.5 -66.5l5 -22l32 11v165l-14 12l-18 -12c-16 -12.667 -51 -19 -105 -19h-283l-13 -15l13 -17c27.333 -36.667 41 -88 41 -154v-363
c0 -27.333 -3.83301 -46.166 -11.5 -56.499s-22.834 -18.833 -45.501 -25.5l-20 -5l11 -30h391c18 0 31 -4.33301 39 -13l7 -10z" />
    <glyph glyph-name="edotaccent" unicode="&#x117;" horiz-adv-x="490" 
d="M326 610c0 14.667 -7.66699 30.167 -23 46.5s-30 24.5 -44 24.5c-13.333 0 -27.5 -8.16699 -42.5 -24.5s-22.5 -31.833 -22.5 -46.5c0 -13.333 7.83301 -28.333 23.5 -45s29.5 -25 41.5 -25c14 0 28.667 8.16699 44 24.5s23 31.5 23 45.5zM439 70
c2.66699 5.33301 4 8.33496 4 9.00195c0 6 -2.83301 11.667 -8.5 17s-11.167 8 -16.5 8c-3.33301 0 -6 -1 -8 -3c-36 -35.333 -81.333 -53 -136 -53c-44.667 0 -78.667 15.5 -102 46.5s-35 74.167 -35 129.5c0 65.333 11.167 115.5 33.5 150.5s53.5 52.5 93.5 52.5
c27.333 0 48.833 -8.83301 64.5 -26.5s23.5 -38.834 23.5 -63.501c0 -28.667 -10.333 -53.334 -31 -74.001s-49.667 -31 -87 -31c-14.667 0 -28 2 -40 6s-18.667 6 -20 6c-8.66699 0 -13 -7 -13 -21c0 -14.667 11.833 -25.5 35.5 -32.5s45.834 -10.5 66.501 -10.5
c54 0 97 15.667 129 47s48 67.666 48 108.999c0 38 -13.667 70.167 -41 96.5s-66.333 39.5 -117 39.5c-72.667 0 -131 -22.667 -175 -68s-66 -105.333 -66 -180c0 -71.333 19.5 -128.666 58.5 -171.999s90.833 -65 155.5 -65c75.333 0 136.666 27.667 183.999 83z" />
    <glyph glyph-name="Eogonek" unicode="&#x118;" horiz-adv-x="564" 
d="M533 -164l-31.002 28c-33.333 -39.333 -69 -59 -107 -59c-35.333 0 -53 18.333 -53 55c0 44 37 90.667 111 140c11.333 -0.666992 21 -5 29 -13l7 -10l18 10v159l-31 10l-6 -21c-8.66699 -32.667 -19.5 -54.5 -32.5 -65.5s-35.833 -16.5 -68.5 -16.5h-100
c-24 0 -39.833 4.33301 -47.5 13s-11.5 27.667 -11.5 57v189h78c34 0 58 -3.33301 72 -10s24 -20.667 30 -42l6 -23l31 11v159l-18 10l-8 -10c-19.333 -28 -43.666 -42 -72.999 -42h-118v178c0 28.667 3.83301 47.667 11.5 57s23.5 14 47.5 14h91c32 0 54.5 -5.5 67.5 -16.5
s23.833 -33.167 32.5 -66.5l5 -22l32 11v165l-14 12l-18 -12c-16 -12.667 -51 -19 -105 -19h-283l-13 -15l13 -17c27.333 -36.667 41 -88 41 -154v-363c0 -27.333 -3.83301 -46.166 -11.5 -56.499s-22.834 -18.833 -45.501 -25.5l-20 -5l11 -30h331
c-41.333 -29.333 -71.166 -56.333 -89.499 -81s-27.5 -51.334 -27.5 -80.001c0 -30 9.66699 -53.833 29 -71.5s44 -26.5 74 -26.5c58.667 0 113.334 31.667 164.001 95z" />
    <glyph glyph-name="eogonek" unicode="&#x119;" horiz-adv-x="490" 
d="M422 -161l-30.002 28.002c-33.333 -39.333 -69.333 -59 -108 -59c-35.333 0 -53 18.333 -53 55c0 43.333 36 89.333 108 138c38.667 13.333 72 36.333 100 69c2.66699 5.33301 4 8.33301 4 9c0 6 -2.83301 11.667 -8.5 17s-11.167 8 -16.5 8c-3.33301 0 -6 -1 -8 -3
c-36 -35.333 -81.333 -53 -136 -53c-44.667 0 -78.667 15.5 -102 46.5s-35 74.167 -35 129.5c0 65.333 11.167 115.5 33.5 150.5s53.5 52.5 93.5 52.5c27.333 0 48.833 -8.83301 64.5 -26.5s23.5 -38.834 23.5 -63.501c0 -28.667 -10.333 -53.334 -31 -74.001
s-49.667 -31 -87 -31c-14.667 0 -28 2 -40 6s-18.667 6 -20 6c-8.66699 0 -13 -7 -13 -21c0 -14.667 11.833 -25.5 35.5 -32.5s45.834 -10.5 66.501 -10.5c54 0 97 15.667 129 47s48 67.666 48 108.999c0 38 -13.667 70.167 -41 96.5s-66.333 39.5 -117 39.5
c-72.667 0 -131 -22.667 -175 -68s-66 -105.333 -66 -180c0 -70.667 19 -127.667 57 -171s89 -65.333 153 -66c-33.333 -26 -57.666 -50.167 -72.999 -72.5s-23 -46.166 -23 -71.499c0 -30 9.83301 -53.833 29.5 -71.5s44.5 -26.5 74.5 -26.5c58.667 0 113 31.333 163 94z
" />
    <glyph glyph-name="Ecaron" unicode="&#x11a;" horiz-adv-x="564" 
d="M309 740c12 7.33301 29.333 25.333 52 54s43.334 60 62.001 94l-29 26l-97 -79l-97 79l-31 -26c19.333 -34 40.166 -65.167 62.499 -93.5s39.833 -46.5 52.5 -54.5h25zM507 -13v158.999l-31 10l-6 -21c-8.66699 -32.667 -19.5 -54.5 -32.5 -65.5
s-35.833 -16.5 -68.5 -16.5h-100c-24 0 -39.833 4.33301 -47.5 13s-11.5 27.667 -11.5 57v189h78c34 0 58 -3.33301 72 -10s24 -20.667 30 -42l6 -23l31 11v159l-18 10l-8 -10c-19.333 -28 -43.666 -42 -72.999 -42h-118v178c0 28.667 3.83301 47.667 11.5 57
s23.5 14 47.5 14h91c32 0 54.5 -5.5 67.5 -16.5s23.833 -33.167 32.5 -66.5l5 -22l32 11v165l-14 12l-18 -12c-16 -12.667 -51 -19 -105 -19h-283l-13 -15l13 -17c27.333 -36.667 41 -88 41 -154v-363c0 -27.333 -3.83301 -46.166 -11.5 -56.499
s-22.834 -18.833 -45.501 -25.5l-20 -5l11 -30h391c18 0 31 -4.33301 39 -13l7 -10z" />
    <glyph glyph-name="ecaron" unicode="&#x11b;" horiz-adv-x="490" 
d="M272 536c11.333 6.66699 28.501 24.332 51.501 52.999s44.167 60 63.5 94l-30 27l-97 -79l-96 79l-31 -27c19.333 -34 40.166 -65.167 62.499 -93.5s39.833 -46.166 52.5 -53.499h24zM439.001 69.998c2.66699 5.33301 4 8.33496 4 9.00195c0 6 -2.83301 11.667 -8.5 17
s-11.167 8 -16.5 8c-3.33301 0 -6 -1 -8 -3c-36 -35.333 -81.333 -53 -136 -53c-44.667 0 -78.667 15.5 -102 46.5s-35 74.167 -35 129.5c0 65.333 11.167 115.5 33.5 150.5s53.5 52.5 93.5 52.5c27.333 0 48.833 -8.83301 64.5 -26.5s23.5 -38.834 23.5 -63.501
c0 -28.667 -10.333 -53.334 -31 -74.001s-49.667 -31 -87 -31c-14.667 0 -28 2 -40 6s-18.667 6 -20 6c-8.66699 0 -13 -7 -13 -21c0 -14.667 11.833 -25.5 35.5 -32.5s45.834 -10.5 66.501 -10.5c54 0 97 15.667 129 47s48 67.666 48 108.999c0 38 -13.667 70.167 -41 96.5
s-66.333 39.5 -117 39.5c-72.667 0 -131 -22.667 -175 -68s-66 -105.333 -66 -180c0 -71.333 19.5 -128.666 58.5 -171.999s90.833 -65 155.5 -65c75.333 0 136.666 27.667 183.999 83z" />
    <glyph glyph-name="Gcircumflex" unicode="&#x11c;" horiz-adv-x="640" 
d="M339 810l96.998 -76.999l30 27c-18.667 33.333 -39.667 64.166 -63 92.499s-40.666 45.833 -51.999 52.5h-24c-12.667 -7.33301 -30.167 -25 -52.5 -53s-43.166 -58.667 -62.499 -92l31 -27zM565.998 15.001l-0.000976562 106.995c0 66 14.333 118 43 156l12 16l-12 16
h-195l-11 -32l20 -7c24 -6.66699 40.167 -15.667 48.5 -27s12.5 -31 12.5 -59v-47c-41.333 -41.333 -93.333 -62 -156 -62c-58.667 0 -105.834 26.5 -141.501 79.5s-53.5 118.833 -53.5 197.5c0 32 3.66699 63.167 11 93.5s18.5 59.5 33.5 87.5s36.5 50.667 64.5 68
s60.333 26 97 26c40 0 72 -10 96 -30s36 -46 36 -78c0 -15.333 -2.16699 -29.166 -6.5 -41.499s-8.66602 -22 -12.999 -29s-6.5 -11.5 -6.5 -13.5c0 -5.33301 0.833008 -8.66602 2.5 -9.99902s7.16699 -2 16.5 -2c28 0 51.5 10.333 70.5 31s28.5 47 28.5 79
c0 42.667 -20.833 77.5 -62.5 104.5s-95.5 40.5 -161.5 40.5c-98 0 -173.5 -31.667 -226.5 -95s-79.5 -141.666 -79.5 -234.999c0 -97.333 24.667 -177.333 74 -240s120.333 -94 213 -94c59.333 0 114 20.667 164 62v-88c0 -70.667 -10.167 -121.5 -30.5 -152.5
s-50.833 -46.5 -91.5 -46.5c-29.333 0 -52.5 8.33301 -69.5 25s-25.5 37.334 -25.5 62.001c0 20 3.83301 37.333 11.5 52s15.334 25.834 23.001 33.501s11.5 12.5 11.5 14.5c0 6.66699 -5.66699 10 -17 10c-37.333 0 -66.333 -11 -87 -33s-31 -48.667 -31 -80
c0 -36 14.667 -67.167 44 -93.5s71 -39.5 125 -39.5c146 0 219 91.333 219 274z" />
    <glyph glyph-name="gcircumflex" unicode="&#x11d;" horiz-adv-x="558" 
d="M299 604l97.999 -75.002l30 24c-19.333 34 -40.5 65.333 -63.5 94s-40.167 46.334 -51.5 53.001h-25c-12.667 -7.33301 -30.167 -25.166 -52.5 -53.499s-43.166 -59.5 -62.499 -93.5l31 -24zM151.999 229.998c0 60.667 12.666 107.667 37.999 141s60.666 50 105.999 50
c32.667 0 62.334 -9 89.001 -27v-224c-31.333 -56.667 -73 -85 -125 -85c-31.333 0 -57.166 11.833 -77.499 35.5s-30.5 60.167 -30.5 109.5zM467.998 -20.002v403.999c0 13.333 4.33301 25.666 13 36.999l11 17l-10 12c-19.333 1.33301 -50 5.33301 -92 12s-73 10 -93 10
c-74.667 0 -133.667 -23.167 -177 -69.5s-65 -109.5 -65 -189.5c0 -63.333 16.167 -112.333 48.5 -147s71.833 -52 118.5 -52c62 0 116.333 32.667 163 98v-147c0 -53.333 -9 -95.833 -27 -127.5s-46 -47.5 -84 -47.5c-24.667 0 -44.167 8.33301 -58.5 25
s-21.5 37.334 -21.5 62.001c0 20 3.66699 37.333 11 52s14.833 25.834 22.5 33.501s11.5 12.5 11.5 14.5c0 6.66699 -5.66699 10 -17 10c-37.333 0 -66.5 -11 -87.5 -33s-31.5 -48.667 -31.5 -80c0 -36 13.833 -67.167 41.5 -93.5s67.167 -39.5 118.5 -39.5
c64 0 114.167 20.833 150.5 62.5s54.5 100.5 54.5 176.5z" />
    <glyph glyph-name="Gbreve" unicode="&#x11e;" horiz-adv-x="640" 
d="M452 872h-51.001c0 -18 -6 -32.167 -18 -42.5s-27 -15.5 -45 -15.5c-19.333 0 -35.166 5.16699 -47.499 15.5s-18.5 24.5 -18.5 42.5h-51c0 -42 10.833 -74 32.5 -96s49.834 -33 84.501 -33c33.333 0 60.666 11 81.999 33s32 54 32 96zM565.999 15l-0.000976562 106.995
c0 66 14.333 118 43 156l12 16l-12 16h-195l-11 -32l20 -7c24 -6.66699 40.167 -15.667 48.5 -27s12.5 -31 12.5 -59v-47c-41.333 -41.333 -93.333 -62 -156 -62c-58.667 0 -105.834 26.5 -141.501 79.5s-53.5 118.833 -53.5 197.5c0 32 3.66699 63.167 11 93.5
s18.5 59.5 33.5 87.5s36.5 50.667 64.5 68s60.333 26 97 26c40 0 72 -10 96 -30s36 -46 36 -78c0 -15.333 -2.16699 -29.166 -6.5 -41.499s-8.66602 -22 -12.999 -29s-6.5 -11.5 -6.5 -13.5c0 -5.33301 0.833008 -8.66602 2.5 -9.99902s7.16699 -2 16.5 -2
c28 0 51.5 10.333 70.5 31s28.5 47 28.5 79c0 42.667 -20.833 77.5 -62.5 104.5s-95.5 40.5 -161.5 40.5c-98 0 -173.5 -31.667 -226.5 -95s-79.5 -141.666 -79.5 -234.999c0 -97.333 24.667 -177.333 74 -240s120.333 -94 213 -94c59.333 0 114 20.667 164 62v-88
c0 -70.667 -10.167 -121.5 -30.5 -152.5s-50.833 -46.5 -91.5 -46.5c-29.333 0 -52.5 8.33301 -69.5 25s-25.5 37.334 -25.5 62.001c0 20 3.83301 37.333 11.5 52s15.334 25.834 23.001 33.501s11.5 12.5 11.5 14.5c0 6.66699 -5.66699 10 -17 10
c-37.333 0 -66.333 -11 -87 -33s-31 -48.667 -31 -80c0 -36 14.667 -67.167 44 -93.5s71 -39.5 125 -39.5c146 0 219 91.333 219 274z" />
    <glyph glyph-name="gbreve" unicode="&#x11f;" horiz-adv-x="558" 
d="M407 668h-51c0 -18 -6 -32.333 -18 -43s-27 -16 -45 -16c-18.667 0 -34.167 5.33301 -46.5 16s-18.5 25 -18.5 43h-51c0 -42 10.667 -74.167 32 -96.5s49.333 -33.5 84 -33.5c34 0 61.5 11.167 82.5 33.5s31.5 54.5 31.5 96.5zM152 230
c0 60.667 12.666 107.667 37.999 141s60.666 50 105.999 50c32.667 0 62.334 -9 89.001 -27v-224c-31.333 -56.667 -73 -85 -125 -85c-31.333 0 -57.166 11.833 -77.499 35.5s-30.5 60.167 -30.5 109.5zM467.999 -20v403.999c0 13.333 4.33301 25.666 13 36.999l11 17
l-10 12c-19.333 1.33301 -50 5.33301 -92 12s-73 10 -93 10c-74.667 0 -133.667 -23.167 -177 -69.5s-65 -109.5 -65 -189.5c0 -63.333 16.167 -112.333 48.5 -147s71.833 -52 118.5 -52c62 0 116.333 32.667 163 98v-147c0 -53.333 -9 -95.833 -27 -127.5
s-46 -47.5 -84 -47.5c-24.667 0 -44.167 8.33301 -58.5 25s-21.5 37.334 -21.5 62.001c0 20 3.66699 37.333 11 52s14.833 25.834 22.5 33.501s11.5 12.5 11.5 14.5c0 6.66699 -5.66699 10 -17 10c-37.333 0 -66.5 -11 -87.5 -33s-31.5 -48.667 -31.5 -80
c0 -36 13.833 -67.167 41.5 -93.5s67.167 -39.5 118.5 -39.5c64 0 114.167 20.833 150.5 62.5s54.5 100.5 54.5 176.5z" />
    <glyph glyph-name="Gdotaccent" unicode="&#x120;" horiz-adv-x="640" 
d="M404 815c0 14.667 -7.66699 30.167 -23 46.5s-29.666 24.5 -42.999 24.5s-27.666 -8.16699 -42.999 -24.5s-23 -31.833 -23 -46.5c0 -14 7.66699 -29 23 -45s29.666 -24 42.999 -24s27.666 8 42.999 24s23 31 23 45zM566 15l-0.000976562 106.995c0 66 14.333 118 43 156
l12 16l-12 16h-195l-11 -32l20 -7c24 -6.66699 40.167 -15.667 48.5 -27s12.5 -31 12.5 -59v-47c-41.333 -41.333 -93.333 -62 -156 -62c-58.667 0 -105.834 26.5 -141.501 79.5s-53.5 118.833 -53.5 197.5c0 32 3.66699 63.167 11 93.5s18.5 59.5 33.5 87.5
s36.5 50.667 64.5 68s60.333 26 97 26c40 0 72 -10 96 -30s36 -46 36 -78c0 -15.333 -2.16699 -29.166 -6.5 -41.499s-8.66602 -22 -12.999 -29s-6.5 -11.5 -6.5 -13.5c0 -5.33301 0.833008 -8.66602 2.5 -9.99902s7.16699 -2 16.5 -2c28 0 51.5 10.333 70.5 31
s28.5 47 28.5 79c0 42.667 -20.833 77.5 -62.5 104.5s-95.5 40.5 -161.5 40.5c-98 0 -173.5 -31.667 -226.5 -95s-79.5 -141.666 -79.5 -234.999c0 -97.333 24.667 -177.333 74 -240s120.333 -94 213 -94c59.333 0 114 20.667 164 62v-88
c0 -70.667 -10.167 -121.5 -30.5 -152.5s-50.833 -46.5 -91.5 -46.5c-29.333 0 -52.5 8.33301 -69.5 25s-25.5 37.334 -25.5 62.001c0 20 3.83301 37.333 11.5 52s15.334 25.834 23.001 33.501s11.5 12.5 11.5 14.5c0 6.66699 -5.66699 10 -17 10
c-37.333 0 -66.333 -11 -87 -33s-31 -48.667 -31 -80c0 -36 14.667 -67.167 44 -93.5s71 -39.5 125 -39.5c146 0 219 91.333 219 274z" />
    <glyph glyph-name="gdotaccent" unicode="&#x121;" horiz-adv-x="558" 
d="M360 610c0 14.667 -7.66699 30.167 -23 46.5s-30 24.5 -44 24.5c-13.333 0 -27.5 -8.16699 -42.5 -24.5s-22.5 -31.833 -22.5 -46.5c0 -13.333 7.83301 -28.333 23.5 -45s29.5 -25 41.5 -25c14 0 28.667 8.16699 44 24.5s23 31.5 23 45.5zM152 230
c0 60.667 12.666 107.667 37.999 141s60.666 50 105.999 50c32.667 0 62.334 -9 89.001 -27v-224c-31.333 -56.667 -73 -85 -125 -85c-31.333 0 -57.166 11.833 -77.499 35.5s-30.5 60.167 -30.5 109.5zM467.999 -20v403.999c0 13.333 4.33301 25.666 13 36.999l11 17
l-10 12c-19.333 1.33301 -50 5.33301 -92 12s-73 10 -93 10c-74.667 0 -133.667 -23.167 -177 -69.5s-65 -109.5 -65 -189.5c0 -63.333 16.167 -112.333 48.5 -147s71.833 -52 118.5 -52c62 0 116.333 32.667 163 98v-147c0 -53.333 -9 -95.833 -27 -127.5
s-46 -47.5 -84 -47.5c-24.667 0 -44.167 8.33301 -58.5 25s-21.5 37.334 -21.5 62.001c0 20 3.66699 37.333 11 52s14.833 25.834 22.5 33.501s11.5 12.5 11.5 14.5c0 6.66699 -5.66699 10 -17 10c-37.333 0 -66.5 -11 -87.5 -33s-31.5 -48.667 -31.5 -80
c0 -36 13.833 -67.167 41.5 -93.5s67.167 -39.5 118.5 -39.5c64 0 114.167 20.833 150.5 62.5s54.5 100.5 54.5 176.5z" />
    <glyph glyph-name="uni0122" unicode="&#x122;" horiz-adv-x="640" 
d="M385 753l17 6.99902l-4 22l-18 11c-13.333 10.667 -20 22.334 -20 35.001c0 10 3.33301 22.667 10 38l43 83l-28 18l-36 -39c-26 -28 -45.167 -51.333 -57.5 -70s-18.5 -36.667 -18.5 -54c0 -40.667 20.333 -61 61 -61c16 0 33 3.33301 51 10zM566 14.999
l-0.000976562 106.995c0 66 14.333 118 43 156l12 16l-12 16h-195l-11 -32l20 -7c24 -6.66699 40.167 -15.667 48.5 -27s12.5 -31 12.5 -59v-47c-41.333 -41.333 -93.333 -62 -156 -62c-58.667 0 -105.834 26.5 -141.501 79.5s-53.5 118.833 -53.5 197.5
c0 32 3.66699 63.167 11 93.5s18.5 59.5 33.5 87.5s36.5 50.667 64.5 68s60.333 26 97 26c40 0 72 -10 96 -30s36 -46 36 -78c0 -15.333 -2.16699 -29.166 -6.5 -41.499s-8.66602 -22 -12.999 -29s-6.5 -11.5 -6.5 -13.5c0 -5.33301 0.833008 -8.66602 2.5 -9.99902
s7.16699 -2 16.5 -2c28 0 51.5 10.333 70.5 31s28.5 47 28.5 79c0 42.667 -20.833 77.5 -62.5 104.5s-95.5 40.5 -161.5 40.5c-98 0 -173.5 -31.667 -226.5 -95s-79.5 -141.666 -79.5 -234.999c0 -97.333 24.667 -177.333 74 -240s120.333 -94 213 -94
c59.333 0 114 20.667 164 62v-88c0 -70.667 -10.167 -121.5 -30.5 -152.5s-50.833 -46.5 -91.5 -46.5c-29.333 0 -52.5 8.33301 -69.5 25s-25.5 37.334 -25.5 62.001c0 20 3.83301 37.333 11.5 52s15.334 25.834 23.001 33.501s11.5 12.5 11.5 14.5
c0 6.66699 -5.66699 10 -17 10c-37.333 0 -66.333 -11 -87 -33s-31 -48.667 -31 -80c0 -36 14.667 -67.167 44 -93.5s71 -39.5 125 -39.5c146 0 219 91.333 219 274z" />
    <glyph glyph-name="uni0123" unicode="&#x123;" horiz-adv-x="558" 
d="M340 536l16.999 6.99805l-4 22l-18 11c-13.333 10.667 -20 22.334 -20 35.001c0 8.66699 3.66699 21.334 11 38.001l42 83l-28 18l-36 -39c-25.333 -27.333 -44.166 -50.5 -56.499 -69.5s-18.5 -37.167 -18.5 -54.5c0 -40.667 20 -61 60 -61c16 0 33 3.33301 51 10z
M151.999 229.998c0 60.667 12.666 107.667 37.999 141s60.666 50 105.999 50c32.667 0 62.334 -9 89.001 -27v-224c-31.333 -56.667 -73 -85 -125 -85c-31.333 0 -57.166 11.833 -77.499 35.5s-30.5 60.167 -30.5 109.5zM467.998 -20.002v403.999
c0 13.333 4.33301 25.666 13 36.999l11 17l-10 12c-19.333 1.33301 -50 5.33301 -92 12s-73 10 -93 10c-74.667 0 -133.667 -23.167 -177 -69.5s-65 -109.5 -65 -189.5c0 -63.333 16.167 -112.333 48.5 -147s71.833 -52 118.5 -52c62 0 116.333 32.667 163 98v-147
c0 -53.333 -9 -95.833 -27 -127.5s-46 -47.5 -84 -47.5c-24.667 0 -44.167 8.33301 -58.5 25s-21.5 37.334 -21.5 62.001c0 20 3.66699 37.333 11 52s14.833 25.834 22.5 33.501s11.5 12.5 11.5 14.5c0 6.66699 -5.66699 10 -17 10c-37.333 0 -66.5 -11 -87.5 -33
s-31.5 -48.667 -31.5 -80c0 -36 13.833 -67.167 41.5 -93.5s67.167 -39.5 118.5 -39.5c64 0 114.167 20.833 150.5 62.5s54.5 100.5 54.5 176.5z" />
    <glyph glyph-name="Hcircumflex" unicode="&#x124;" horiz-adv-x="722" 
d="M362 810l96.998 -76.999l29 27c-18.667 33.333 -39.667 64.166 -63 92.499s-40.666 45.833 -51.999 52.5h-24c-12.667 -7.33301 -30.167 -25 -52.5 -53s-43.166 -58.667 -62.499 -92l31 -27zM275.998 0.000976562l9 30.002l-19 5
c-22.667 6.66699 -37.667 15.167 -45 25.5s-11 29.166 -11 56.499v193h303v-187c0 -28.667 -4 -48.334 -12 -59.001s-24 -19.667 -48 -27l-20 -5l11 -32h227l10 30l-19 5c-23.333 6.66699 -38.833 15.334 -46.5 26.001s-11.5 29.334 -11.5 56.001v363
c0 65.333 14 116.666 42 153.999l14 17l-14 15h-202l-11 -32l20 -5c24 -6.66699 40 -15.667 48 -27s12 -31 12 -59v-177h-303v114c0 66.667 14 118 42 154l12 17l-12 15h-204l-11 -32l22 -5c23.333 -6.66699 39 -15.667 47 -27s12 -31 12 -59v-420
c0 -28.667 -3.83301 -48.334 -11.5 -59.001s-23.5 -19.667 -47.5 -27l-22 -5l11 -32h228z" />
    <glyph glyph-name="hcircumflex" unicode="&#x125;" horiz-adv-x="592" 
d="M131 810l96.999 -76.999l29 27c-18.667 33.333 -39.5 64.166 -62.5 92.499s-40.167 45.833 -51.5 52.5h-25c-12.667 -7.33301 -30.167 -25 -52.5 -53s-43.166 -58.667 -62.499 -92l31 -27zM574.999 44.001l-19.002 23.0029c-15.333 -12.667 -30.666 -19 -45.999 -19
c-18 0 -27 10.667 -27 32v224c0 59.333 -9.33301 102.166 -28 128.499s-50.667 39.5 -96 39.5c-35.333 0 -69.333 -12.833 -102 -38.5s-57 -58.834 -73 -99.501v362c0 9.33301 -2.66699 16.666 -8 21.999s-12.666 8 -21.999 8c-16.667 0 -36.5 -5.33301 -59.5 -16
s-43.5 -24 -61.5 -40l7 -24h42c12 0 18 -6.66699 18 -20v-523c0 -24 -2.5 -40.833 -7.5 -50.5s-15.5 -15.834 -31.5 -18.501l-20 -5l11 -29h163l11 14l-11 15c-20.667 28 -31 67.667 -31 119c0 75.333 12.5 136.333 37.5 183s57.5 70 97.5 70c28.667 0 49.167 -8 61.5 -24
s18.5 -40.333 18.5 -73v-220c0 -35.333 5.5 -60.666 16.5 -75.999s29.167 -23 54.5 -23c34 0 69 19.667 105 59z" />
    <glyph glyph-name="Hbar" unicode="&#x126;" horiz-adv-x="722" 
d="M210 461h303v-95h-303v95zM276 0l8.99805 30.001l-19 5c-22.667 6.66699 -37.667 15.167 -45 25.5s-11 29.166 -11 56.499v193h303v-187c0 -28.667 -4 -48.334 -12 -59.001s-24 -19.667 -48 -27l-20 -5l11 -32h227l10 30l-19 5
c-23.333 6.66699 -38.833 15.334 -46.5 26.001s-11.5 29.334 -11.5 56.001v344h52c25.333 12 38 31 38 57h-89c2.66699 43.333 16.334 82 41.001 116l14 17l-14 15h-202l-11 -32l20 -5c24 -6.66699 40 -15.667 48 -27s12 -31 12 -59v-25h-302
c2.66699 46 16.334 84.667 41.001 116l12 17l-12 15h-204l-11 -32l22 -5c23.333 -6.66699 39 -15.667 47 -27s12 -31 12 -59v-25h-53c-24.667 -10 -37 -29 -37 -57h90v-338c0 -28.667 -3.83301 -48.334 -11.5 -59.001s-23.5 -19.667 -47.5 -27l-22 -5l11 -32h228z" />
    <glyph glyph-name="hbar" unicode="&#x127;" horiz-adv-x="592" 
d="M575 44l-19.002 23.002c-15.333 -12.667 -30.666 -19 -45.999 -19c-18 0 -27 10.667 -27 32v224c0 59.333 -9.33301 102.166 -28 128.499s-50.667 39.5 -96 39.5c-35.333 0 -69.333 -12.833 -102 -38.5s-57 -58.834 -73 -99.501v209h152c12.667 10 19 27.333 19 52h-171
v101c0 9.33301 -2.66699 16.666 -8 21.999s-12.666 8 -21.999 8c-16.667 0 -36.5 -5.33301 -59.5 -16s-43.5 -24 -61.5 -40l7 -24h42c12 0 18 -6.66699 18 -20v-31h-68c-12.667 -9.33301 -19 -26.666 -19 -51.999h87v-440c0 -24 -2.5 -40.833 -7.5 -50.5
s-15.5 -15.834 -31.5 -18.501l-20 -5l11 -29h163l11 14l-11 15c-20.667 28 -31 67.667 -31 119c0 75.333 12.5 136.333 37.5 183s57.5 70 97.5 70c28.667 0 49.167 -8 61.5 -24s18.5 -40.333 18.5 -73v-220c0 -35.333 5.5 -60.666 16.5 -75.999s29.167 -23 54.5 -23
c34 0 69 19.667 105 59z" />
    <glyph glyph-name="Itilde" unicode="&#x128;" horiz-adv-x="327" 
d="M109 789c8.66699 0 21.666 -5.33301 38.999 -16s33.333 -16 48 -16c17.333 0 36.5 8 57.5 24s41.167 38 60.5 66l-32 29c-24 -24 -44.667 -36 -62 -36c-9.33301 0 -22.666 5.16699 -39.999 15.5s-33 15.5 -47 15.5c-37.333 0 -77.333 -29.667 -120 -89l33 -29
c26 24 47 36 63 36zM275.999 0l9 30.002l-19 5c-22.667 6.66699 -37.667 15.167 -45 25.5s-11 29.166 -11 56.499v363c0 66.667 14 118 42 154l12 17l-12 15h-204l-11 -32l22 -5c23.333 -6.66699 39 -15.667 47 -27s12 -31 12 -59v-420
c0 -28.667 -3.83301 -48.334 -11.5 -59.001s-23.5 -19.667 -47.5 -27l-22 -5l11 -32h228z" />
    <glyph glyph-name="itilde" unicode="&#x129;" horiz-adv-x="269" 
d="M78 584c8.66699 0 21.668 -5.33203 39.001 -15.999s33.666 -16 48.999 -16c17.333 0 36.5 8.16699 57.5 24.5s41.167 38.166 60.5 65.499l-31 29c-25.333 -24.667 -46.666 -37 -63.999 -37c-8.66699 0 -21.834 5.5 -39.501 16.5s-33.5 16.5 -47.5 16.5
c-35.333 0 -75 -29.667 -119 -89l33 -30c22 24 42.667 36 62 36zM276.001 46.001l-17 24c-16 -13.333 -31.667 -20 -47 -20c-18.667 0 -28 10.667 -28 32v362c0 8.66699 -2.66699 15.5 -8 20.5s-12.666 7.5 -21.999 7.5c-17.333 0 -37.333 -5.16699 -60 -15.5
s-43 -23.5 -61 -39.5l7 -23h42c12 0 18 -7.33301 18 -22v-287c0 -34.667 5.66699 -59.667 17 -75s29.666 -23 54.999 -23c33.333 0 68 19.667 104 59z" />
    <glyph glyph-name="Imacron" unicode="&#x12a;" horiz-adv-x="327" 
d="M277 778c16 12.667 24 37.333 24 74h-250c-16 -15.333 -24 -40 -24 -74h250zM276 -0.000976562l9 30.002l-19 5c-22.667 6.66699 -37.667 15.167 -45 25.5s-11 29.166 -11 56.499v363c0 66.667 14 118 42 154l12 17l-12 15h-204l-11 -32l22 -5
c23.333 -6.66699 39 -15.667 47 -27s12 -31 12 -59v-420c0 -28.667 -3.83301 -48.334 -11.5 -59.001s-23.5 -19.667 -47.5 -27l-22 -5l11 -32h228z" />
    <glyph glyph-name="imacron" unicode="&#x12b;" horiz-adv-x="269" 
d="M263 572c15.333 13.333 23 38 23 74h-249c-16 -13.333 -24 -38 -24 -74h250zM276 46l-17 24c-16 -13.333 -31.667 -20 -47 -20c-18.667 0 -28 10.667 -28 32v362c0 8.66699 -2.66699 15.5 -8 20.5s-12.666 7.5 -21.999 7.5c-17.333 0 -37.333 -5.16699 -60 -15.5
s-43 -23.5 -61 -39.5l7 -23h42c12 0 18 -7.33301 18 -22v-287c0 -34.667 5.66699 -59.667 17 -75s29.666 -23 54.999 -23c33.333 0 68 19.667 104 59z" />
    <glyph glyph-name="Ibreve" unicode="&#x12c;" horiz-adv-x="327" 
d="M279 872h-51.001c0 -18 -6 -32.167 -18 -42.5s-27 -15.5 -45 -15.5c-19.333 0 -35.166 5.16699 -47.499 15.5s-18.5 24.5 -18.5 42.5h-51c0 -42 10.833 -74 32.5 -96s49.834 -33 84.501 -33c33.333 0 60.666 11 81.999 33s32 54 32 96zM275.999 0l9 30.002l-19 5
c-22.667 6.66699 -37.667 15.167 -45 25.5s-11 29.166 -11 56.499v363c0 66.667 14 118 42 154l12 17l-12 15h-204l-11 -32l22 -5c23.333 -6.66699 39 -15.667 47 -27s12 -31 12 -59v-420c0 -28.667 -3.83301 -48.334 -11.5 -59.001s-23.5 -19.667 -47.5 -27l-22 -5l11 -32
h228z" />
    <glyph glyph-name="ibreve" unicode="&#x12d;" horiz-adv-x="289" 
d="M260 668h-51c0 -18 -6.16699 -32.333 -18.5 -43s-27.5 -16 -45.5 -16c-18.667 0 -34.167 5.33301 -46.5 16s-18.5 25 -18.5 43h-51c0 -42 10.667 -74.167 32 -96.5s49.333 -33.5 84 -33.5c34 0 61.667 11.167 83 33.5s32 54.5 32 96.5zM276 46l-17 24
c-16 -13.333 -31.667 -20 -47 -20c-18.667 0 -28 10.667 -28 32v362c0 8.66699 -2.66699 15.5 -8 20.5s-12.666 7.5 -21.999 7.5c-17.333 0 -37.333 -5.16699 -60 -15.5s-43 -23.5 -61 -39.5l7 -23h42c12 0 18 -7.33301 18 -22v-287c0 -34.667 5.66699 -59.667 17 -75
s29.666 -23 54.999 -23c33.333 0 68 19.667 104 59z" />
    <glyph glyph-name="Iogonek" unicode="&#x12e;" horiz-adv-x="327" 
d="M316 -164l-31.001 28.0029c-33.333 -39.333 -69 -59 -107 -59c-16.667 0 -29.834 4.66699 -39.501 14s-14.5 23 -14.5 41c0 43.333 37.333 90 112 140h40l9 30l-19 5c-22.667 6.66699 -37.667 15.167 -45 25.5s-11 29.166 -11 56.499v363c0 66.667 14 118 42 154l12 17
l-12 15h-204l-11 -32l22 -5c23.333 -6.66699 39 -15.667 47 -27s12 -31 12 -59v-420c0 -28.667 -3.83301 -48.334 -11.5 -59.001s-23.5 -19.667 -47.5 -27l-22 -5l11 -32h118c-41.333 -29.333 -71.166 -56.333 -89.499 -81s-27.5 -51.334 -27.5 -80.001
c0 -30 9.66699 -53.833 29 -71.5s44 -26.5 74 -26.5c58.667 0 113.334 31.667 164.001 95z" />
    <glyph glyph-name="iogonek" unicode="&#x12f;" horiz-adv-x="289" 
d="M200 610c0 12 -6.83301 25.167 -20.5 39.5s-26.5 21.5 -38.5 21.5c-10.667 0 -22.667 -7.16699 -36 -21.5s-20 -27.5 -20 -39.5c0 -11.333 6.83301 -24.166 20.5 -38.499s25.5 -21.5 35.5 -21.5c12 0 24.833 7.16699 38.5 21.5s20.5 27.166 20.5 38.499zM298 -164
l-31 28.001c-33.333 -39.333 -69 -59 -107 -59c-16.667 0 -29.834 4.66699 -39.501 14s-14.5 23 -14.5 41c0 43.333 37.333 90 112 140c21.333 11.333 40.666 26.666 57.999 45.999l-17 24c-16 -13.333 -31.667 -20 -47 -20c-18.667 0 -28 10.667 -28 32v362
c0 8.66699 -2.66699 15.5 -8 20.5s-12.666 7.5 -21.999 7.5c-17.333 0 -37.333 -5.16699 -60 -15.5s-43 -23.5 -61 -39.5l7 -23h42c12 0 18 -7.33301 18 -22v-287c0 -51.333 12.667 -82 38 -92c-37.333 -27.333 -64.5 -53 -81.5 -77s-25.5 -49.667 -25.5 -77
c0 -30 9.66699 -53.833 29 -71.5s44 -26.5 74 -26.5c58.667 0 113.334 31.667 164.001 95z" />
    <glyph glyph-name="Idotaccent" unicode="&#x130;" horiz-adv-x="327" 
d="M229 815c0 14.667 -7.66699 30.167 -23 46.5s-29.666 24.5 -42.999 24.5s-27.666 -8.16699 -42.999 -24.5s-23 -31.833 -23 -46.5c0 -14 7.66699 -29 23 -45s29.666 -24 42.999 -24s27.666 8 42.999 24s23 31 23 45zM276 0l9 30.002l-19 5
c-22.667 6.66699 -37.667 15.167 -45 25.5s-11 29.166 -11 56.499v363c0 66.667 14 118 42 154l12 17l-12 15h-204l-11 -32l22 -5c23.333 -6.66699 39 -15.667 47 -27s12 -31 12 -59v-420c0 -28.667 -3.83301 -48.334 -11.5 -59.001s-23.5 -19.667 -47.5 -27l-22 -5l11 -32
h228z" />
    <glyph glyph-name="dotlessi" unicode="&#x131;" horiz-adv-x="289" 
d="M276 46l-17 24c-16 -13.333 -31.667 -20 -47 -20c-18.667 0 -28 10.667 -28 32v362c0 8.66699 -2.66699 15.5 -8 20.5s-12.666 7.5 -21.999 7.5c-17.333 0 -37.333 -5.16699 -60 -15.5s-43 -23.5 -61 -39.5l7 -23h42c12 0 18 -7.33301 18 -22v-287
c0 -34.667 5.66699 -59.667 17 -75s29.666 -23 54.999 -23c33.333 0 68 19.667 104 59z" />
    <glyph glyph-name="IJ" unicode="&#x132;" horiz-adv-x="762" 
d="M276 0l9 30.002l-19 5c-22.667 6.66699 -37.667 15.167 -45 25.5s-11 29.166 -11 56.499v363c0 66.667 14 118 42 154l12 17l-12 15h-204l-11 -32l22 -5c23.333 -6.66699 39 -15.667 47 -27s12 -31 12 -59v-420c0 -28.667 -3.83301 -48.334 -11.5 -59.001
s-23.5 -19.667 -47.5 -27l-22 -5l11 -32h228zM672 219.002l0.00195312 260.997c0 66 13.667 117.333 41 154l13 17l-13 15h-202l-11 -32l20 -5c24 -6.66699 40.167 -15.667 48.5 -27s12.5 -31 12.5 -59v-380c0 -85.333 -32.333 -128 -97 -128c-26 0 -46.5 8.33301 -61.5 25
s-22.5 37.334 -22.5 62.001c0 19.333 3.66699 36.333 11 51s14.833 25.834 22.5 33.501s11.5 12.834 11.5 15.501c0 6.66699 -6 10 -18 10c-36.667 0 -65.334 -11 -86.001 -33s-31 -48.333 -31 -79c0 -36 14.667 -67.167 44 -93.5s70.666 -39.5 123.999 -39.5
c129.333 0 194 77.333 194 232z" />
    <glyph glyph-name="ij" unicode="&#x133;" horiz-adv-x="558" 
d="M485 610c0 12 -6.83301 25.167 -20.5 39.5s-26.167 21.5 -37.5 21.5c-10.667 0 -22.834 -7.16699 -36.501 -21.5s-20.5 -27.5 -20.5 -39.5c0 -11.333 6.83301 -24.166 20.5 -38.499s25.834 -21.5 36.501 -21.5c11.333 0 23.833 7.16699 37.5 21.5
s20.5 27.166 20.5 38.499zM200 610c0 12 -6.83301 25.167 -20.5 39.5s-26.5 21.5 -38.5 21.5c-10.667 0 -22.667 -7.16699 -36 -21.5s-20 -27.5 -20 -39.5c0 -11.333 6.83301 -24.166 20.5 -38.499s25.5 -21.5 35.5 -21.5c12 0 24.833 7.16699 38.5 21.5
s20.5 27.166 20.5 38.499zM276 46l-17 24c-16 -13.333 -31.667 -20 -47 -20c-18.667 0 -28 10.667 -28 32v362c0 8.66699 -2.66699 15.5 -8 20.5s-12.666 7.5 -21.999 7.5c-17.333 0 -37.333 -5.16699 -60 -15.5s-43 -23.5 -61 -39.5l7 -23h42c12 0 18 -7.33301 18 -22v-287
c0 -34.667 5.66699 -59.667 17 -75s29.666 -23 54.999 -23c33.333 0 68 19.667 104 59zM469 -49l0.00195312 492.999c0 8.66699 -2.66699 15.5 -8 20.5s-12.666 7.5 -21.999 7.5c-17.333 0 -37.5 -5.16699 -60.5 -15.5s-43.167 -23.5 -60.5 -39.5l8 -23h41
c12 0 18 -7.33301 18 -22v-493c0 -31.333 -6.16699 -55.333 -18.5 -72s-27.833 -25 -46.5 -25c-14.667 0 -26.834 5.5 -36.501 16.5s-14.5 26.167 -14.5 45.5c0 12.667 2.16699 24 6.5 34s8.66602 17.5 12.999 22.5s6.5 8.16699 6.5 9.5c0 6.66699 -5.66699 10 -17 10
c-26.667 0 -48.667 -8 -66 -24s-26 -36 -26 -60c0 -28.667 10.833 -51.667 32.5 -69s49.167 -26 82.5 -26c55.333 0 97.166 18.833 125.499 56.5s42.5 88.834 42.5 153.501z" />
    <glyph glyph-name="Jcircumflex" unicode="&#x134;" horiz-adv-x="435" 
d="M292 810l95.998 -76.999l30 27c-18.667 33.333 -39.667 64.166 -63 92.499s-40.666 45.833 -51.999 52.5h-24c-12.667 -7.33301 -30.167 -25 -52.5 -53s-43.166 -58.667 -62.499 -92l31 -27zM344.998 219.001l0.00195312 260.998c0 67.333 13.333 118.666 40 153.999
l13 17l-13 15h-202l-11 -32l21 -5c24 -6.66699 40 -15.667 48 -27s12 -31 12 -59v-380c0 -85.333 -32.333 -128 -97 -128c-26 0 -46.5 8.33301 -61.5 25s-22.5 37.334 -22.5 62.001c0 19.333 3.66699 36.333 11 51s14.833 25.834 22.5 33.501s11.5 12.834 11.5 15.501
c0 6.66699 -6 10 -18 10c-36.667 0 -65.334 -11 -86.001 -33s-31 -48.333 -31 -79c0 -36 14.667 -67.167 44 -93.5s70.666 -39.5 123.999 -39.5c130 0 195 77.333 195 232z" />
    <glyph glyph-name="jcircumflex" unicode="&#x135;" horiz-adv-x="270" 
d="M137 604l97.999 -75.002l30 24c-19.333 34 -40.5 65.333 -63.5 94s-40.167 46.334 -51.5 53.001h-24c-12.667 -7.33301 -30.167 -25.166 -52.5 -53.499s-43.166 -59.5 -62.499 -93.5l30 -24zM179.999 -49.002l0.000976562 492.999c0 8.66699 -2.66699 15.5 -8 20.5
s-12.666 7.5 -21.999 7.5c-17.333 0 -37.5 -5.16699 -60.5 -15.5s-43.167 -23.5 -60.5 -39.5l7 -23h42c12 0 18 -7.33301 18 -22v-493c0 -31.333 -6.16699 -55.333 -18.5 -72s-27.833 -25 -46.5 -25c-14.667 0 -26.834 5.5 -36.501 16.5s-14.5 26.167 -14.5 45.5
c0 12.667 2 24 6 34s8.16699 17.5 12.5 22.5s6.5 8.16699 6.5 9.5c0 6.66699 -5.66699 10 -17 10c-26.667 0 -48.5 -8 -65.5 -24s-25.5 -36 -25.5 -60c0 -28.667 10.833 -51.667 32.5 -69s49.167 -26 82.5 -26c55.333 0 97.166 18.833 125.499 56.5
s42.5 88.834 42.5 153.501z" />
    <glyph glyph-name="uni0136" unicode="&#x136;" horiz-adv-x="620" 
d="M276 0l9 30.002l-19 5c-22.667 6.66699 -37.667 15.167 -45 25.5s-11 29.166 -11 56.499v363c0 66.667 14 118 42 154l12 17l-12 15h-204l-11 -32l22 -5c23.333 -6.66699 39 -15.667 47 -27s12 -31 12 -59v-420c0 -28.667 -3.83301 -48.334 -11.5 -59.001
s-23.5 -19.667 -47.5 -27l-22 -5l11 -32h228zM323 -231.998c26 28.667 45.167 52.002 57.5 70.002s18.5 35.667 18.5 53c0 41.333 -20.333 62 -61 62c-16 0 -33 -3.33301 -51 -10l-17 -7l4 -22l19 -11c13.333 -10.667 20 -22.334 20 -35.001
c0 -8.66699 -3.66699 -21.334 -11 -38.001l-42 -83l27 -18zM603 24.0039l-15.002 26.999c-11.333 -8.66699 -23.333 -13 -36 -13c-11.333 0 -23.333 9.33301 -36 28l-118 212c-15.333 26.667 -36.666 46.334 -63.999 59.001l167 242c18.667 26.667 42.667 43.334 72 50.001
l22 5l-11 32h-169l-17 -15l8 -17c8 -20 12 -33.667 12 -41c0 -14.667 -6.33301 -32.334 -19 -53.001l-127 -187h-21c-12.667 0 -19 -7.33301 -19 -22c0 -6 1.33301 -9.33301 4 -10c22 -10.667 38 -24.667 48 -42l111 -201c16.667 -30.667 34.334 -53.5 53.001 -68.5
s42 -22.5 70 -22.5c32.667 0 61 12.333 85 37z" />
    <glyph glyph-name="uni0137" unicode="&#x137;" horiz-adv-x="541" 
d="M265 -232c25.333 28 44.167 51.1689 56.5 69.502s18.5 36.166 18.5 53.499c0 41.333 -20 62 -60 62c-16 0 -33 -3.33301 -51 -10l-17 -7l4 -22l18 -11c13.333 -10.667 20 -22.334 20 -35.001c0 -10 -3.33301 -22.667 -10 -38l-43 -83l28 -18zM523.001 46.002l-20 24.002
c-14 -16 -30.333 -24 -49 -24c-16.667 0 -29.667 8.66699 -39 26l-71 138c42.667 4.66699 76.167 20.834 100.5 48.501s36.5 58.834 36.5 93.501c0 34 -11.167 62.5 -33.5 85.5s-53.833 34.5 -94.5 34.5c-34 0 -66.667 -12.833 -98 -38.5s-55 -58.834 -71 -99.501v362
c0 9.33301 -2.66699 16.666 -8 21.999s-12.666 8 -21.999 8c-16.667 0 -36.5 -5.33301 -59.5 -16s-43.5 -24 -61.5 -40l7 -24h42c12 0 18 -6.66699 18 -20v-523c0 -24 -2.5 -40.833 -7.5 -50.5s-15.5 -15.834 -31.5 -18.501l-20 -5l11 -29h163l11 14l-11 15
c-20.667 26 -31 65.667 -31 119c0 78.667 13.5 142 40.5 190s63.5 72 109.5 72c20 0 35.5 -6.33301 46.5 -19s16.5 -28.334 16.5 -47.001c0 -24.667 -9.5 -47 -28.5 -67s-45.167 -30 -78.5 -30c-14.667 0 -27.834 1.5 -39.501 4.5s-18.167 4.5 -19.5 4.5
c-9.33301 0 -14 -6 -14 -18c0 -10 5.66699 -16.333 17 -19l9 -3l69 -131c10.667 -20 18.667 -34.333 24 -43s12.5 -18.167 21.5 -28.5s18.5 -17.333 28.5 -21s22.333 -5.5 37 -5.5c38 0 71.333 19.667 100 59z" />
    <glyph glyph-name="kgreenlandic" unicode="&#x138;" horiz-adv-x="523" 
d="M246 0l9 28l-18 5c-21.333 6.66699 -35.333 14.5 -42 23.5s-10 25.833 -10 50.5v182c0 60.667 12.667 108.667 38 144l11 15l-11 13h-185l-9 -28l18 -6c22 -6 36.667 -14.167 44 -24.5s11 -28.5 11 -54.5v-235c0 -26 -3.66699 -44 -11 -54s-22 -18 -44 -24l-18 -6l9 -29
h208zM514 21l-14.999 26.001c-10.667 -8 -22 -12 -34 -12c-10 0 -20.333 8.33301 -31 25l-72 117c-11.333 24.667 -30.333 43.667 -57 57l106 146c18 25.333 40.667 41 68 47l18 5l-10 29h-151l-15 -14l7 -15c4.66699 -10 7 -20.667 7 -32c0 -16 -6.33301 -33.667 -19 -53
l-73 -101h-17c-10.667 0 -16 -6.33301 -16 -19c0 -6 1.33301 -9.66699 4 -11c17.333 -8 31.666 -20.667 42.999 -38l64 -107c16.667 -28.667 33.5 -49.834 50.5 -63.501s38.167 -20.5 63.5 -20.5c30 0 56.333 11.333 79 34z" />
    <glyph glyph-name="Lacute" unicode="&#x139;" horiz-adv-x="509" 
d="M200 784c34.667 17.333 52 40.001 52 68.001c0 25.333 -13 44.666 -39 57.999l-145 -145l27 -32zM488 -12.999l0.000976562 158.999l-32 10l-5 -21c-8.66699 -32.667 -19.667 -54.5 -33 -65.5s-36 -16.5 -68 -16.5h-81c-24 0 -39.833 4.33301 -47.5 13
s-11.5 27.667 -11.5 57v357c0 66.667 14 118 42 154l12 17l-12 15h-204l-11 -32l22 -5c23.333 -6.66699 39 -15.667 47 -27s12 -31 12 -59v-426c0 -27.333 -3.83301 -46.166 -11.5 -56.499s-22.834 -18.833 -45.501 -25.5l-20 -5l11 -30h370c20.667 0 34 -4.33301 40 -13
l7 -10z" />
    <glyph glyph-name="lacute" unicode="&#x13a;" horiz-adv-x="279" 
d="M159 784c34.667 17.333 52 40.001 52 68.001c0 25.333 -13.333 44.666 -40 57.999l-144 -145l26 -32zM266 46.001l-18.002 24.001c-14 -13.333 -29.333 -20 -46 -20c-18.667 0 -28 10.667 -28 32l2 614c0 9.33301 -2.66699 16.666 -8 21.999s-12.666 8 -21.999 8
c-18 0 -38.667 -5.33301 -62 -16s-43.666 -24 -60.999 -40l9 -24h40c12 0 18 -6.66699 18 -20v-541c0 -34.667 5.66699 -59.667 17 -75s30 -23 56 -23c34 0 68.333 19.667 103 59z" />
    <glyph glyph-name="uni013B" unicode="&#x13b;" horiz-adv-x="509" 
d="M267 -232c26 28.667 45.167 52.001 57.5 70.001s18.5 35.667 18.5 53c0 41.333 -20.333 62 -61 62c-16 0 -33 -3.33301 -51 -10l-17 -7l4 -22l18 -11c13.333 -10.667 20 -22.334 20 -35.001c0 -10 -3.33301 -22.667 -10 -38l-43 -83l28 -18zM488 -12.999
l0.000976562 158.999l-32 10l-5 -21c-8.66699 -32.667 -19.667 -54.5 -33 -65.5s-36 -16.5 -68 -16.5h-81c-24 0 -39.833 4.33301 -47.5 13s-11.5 27.667 -11.5 57v357c0 66.667 14 118 42 154l12 17l-12 15h-204l-11 -32l22 -5c23.333 -6.66699 39 -15.667 47 -27
s12 -31 12 -59v-426c0 -27.333 -3.83301 -46.166 -11.5 -56.499s-22.834 -18.833 -45.501 -25.5l-20 -5l11 -30h370c20.667 0 34 -4.33301 40 -13l7 -10z" />
    <glyph glyph-name="uni013C" unicode="&#x13c;" horiz-adv-x="279" 
d="M134 -232c26 28.667 45.167 52.001 57.5 70.001s18.5 35.667 18.5 53c0 41.333 -20.333 62 -61 62c-16 0 -33 -3.33301 -51 -10l-17 -7l4 -22l18 -11c13.333 -10.667 20 -22.334 20 -35.001c0 -10 -3.33301 -22.667 -10 -38l-43 -83l28 -18zM266 46.001l-18.002 24.001
c-14 -13.333 -29.333 -20 -46 -20c-18.667 0 -28 10.667 -28 32l2 614c0 9.33301 -2.66699 16.666 -8 21.999s-12.666 8 -21.999 8c-18 0 -38.667 -5.33301 -62 -16s-43.666 -24 -60.999 -40l9 -24h40c12 0 18 -6.66699 18 -20v-541c0 -34.667 5.66699 -59.667 17 -75
s30 -23 56 -23c34 0 68.333 19.667 103 59z" />
    <glyph glyph-name="Lcaron" unicode="&#x13d;" horiz-adv-x="509" 
d="M368 593c26 28.667 45.167 52 57.5 70s18.5 35.667 18.5 53c0 41.333 -20.333 62 -61 62c-14.667 0 -31.667 -3.66699 -51 -11l-17 -6l4 -22l18 -12c13.333 -9.33301 20 -20.333 20 -33c0 -12 -3.33301 -25 -10 -39l-43 -84l28 -18zM488 -13l0.000976562 158.999l-32 10
l-5 -21c-8.66699 -32.667 -19.667 -54.5 -33 -65.5s-36 -16.5 -68 -16.5h-81c-24 0 -39.833 4.33301 -47.5 13s-11.5 27.667 -11.5 57v357c0 66.667 14 118 42 154l12 17l-12 15h-204l-11 -32l22 -5c23.333 -6.66699 39 -15.667 47 -27s12 -31 12 -59v-426
c0 -27.333 -3.83301 -46.166 -11.5 -56.499s-22.834 -18.833 -45.501 -25.5l-20 -5l11 -30h370c20.667 0 34 -4.33301 40 -13l7 -10z" />
    <glyph glyph-name="lcaron" unicode="&#x13e;" horiz-adv-x="327" 
d="M276 593c25.333 28 44.167 51.168 56.5 69.501s18.5 36.166 18.5 53.499c0 41.333 -20.333 62 -61 62c-14.667 0 -31.667 -3.66699 -51 -11l-17 -6l5 -22l18 -12c13.333 -9.33301 20 -20.333 20 -33c0 -10 -3.66699 -23 -11 -39l-42 -84l27 -18zM266.001 46.001
l-18.002 24.001c-14 -13.333 -29.333 -20 -46 -20c-18.667 0 -28 10.667 -28 32l2 614c0 9.33301 -2.66699 16.666 -8 21.999s-12.666 8 -21.999 8c-18 0 -38.667 -5.33301 -62 -16s-43.666 -24 -60.999 -40l9 -24h40c12 0 18 -6.66699 18 -20v-541
c0 -34.667 5.66699 -59.667 17 -75s30 -23 56 -23c34 0 68.333 19.667 103 59z" />
    <glyph glyph-name="Ldot" unicode="&#x13f;" horiz-adv-x="509" 
d="M431 392c0 12.667 -7 26 -21 40s-26.667 21 -38 21s-23.5 -7 -36.5 -21s-19.5 -27.333 -19.5 -40c0 -11.333 6.66699 -24.166 20 -38.499s25.333 -21.5 36 -21.5c11.333 0 24 7.16699 38 21.5s21 27.166 21 38.499zM488 -13l0.000976562 158.999l-32 10l-5 -21
c-8.66699 -32.667 -19.667 -54.5 -33 -65.5s-36 -16.5 -68 -16.5h-81c-24 0 -39.833 4.33301 -47.5 13s-11.5 27.667 -11.5 57v357c0 66.667 14 118 42 154l12 17l-12 15h-204l-11 -32l22 -5c23.333 -6.66699 39 -15.667 47 -27s12 -31 12 -59v-426
c0 -27.333 -3.83301 -46.166 -11.5 -56.499s-22.834 -18.833 -45.501 -25.5l-20 -5l11 -30h370c20.667 0 34 -4.33301 40 -13l7 -10z" />
    <glyph glyph-name="ldot" unicode="&#x140;" horiz-adv-x="338" 
d="M338 392c0 12.667 -6.83496 26 -20.502 40s-26.167 21 -37.5 21s-23.666 -7 -36.999 -21s-20 -27.333 -20 -40c0 -11.333 6.83301 -24.166 20.5 -38.499s25.834 -21.5 36.501 -21.5c11.333 0 23.833 7.16699 37.5 21.5s20.5 27.166 20.5 38.499zM265.998 46
l-18.002 24.001c-14 -13.333 -29.333 -20 -46 -20c-18.667 0 -28 10.667 -28 32l2 614c0 9.33301 -2.66699 16.666 -8 21.999s-12.666 8 -21.999 8c-18 0 -38.667 -5.33301 -62 -16s-43.666 -24 -60.999 -40l9 -24h40c12 0 18 -6.66699 18 -20v-541
c0 -34.667 5.66699 -59.667 17 -75s30 -23 56 -23c34 0 68.333 19.667 103 59z" />
    <glyph glyph-name="Lslash" unicode="&#x141;" horiz-adv-x="509" 
d="M488 -13l0.000976562 158.999l-32 10l-5 -21c-8.66699 -32.667 -19.667 -54.5 -33 -65.5s-36 -16.5 -68 -16.5h-81c-24 0 -39.833 4.33301 -47.5 13s-11.5 27.667 -11.5 57v196l73 37c9.33301 4.66699 15.5 13 18.5 25s4.5 31.667 4.5 59l-96 -48v88
c0 66.667 14 118 42 154l12 17l-12 15h-204l-11 -32l22 -5c23.333 -6.66699 39 -15.667 47 -27s12 -31 12 -59v-197l-72 -36c-8.66699 -4.66699 -14.667 -13 -18 -25s-5 -31.333 -5 -58l95 46v-156c0 -27.333 -3.83301 -46.166 -11.5 -56.499s-22.834 -18.833 -45.501 -25.5
l-20 -5l11 -30h370c20.667 0 34 -4.33301 40 -13l7 -10z" />
    <glyph glyph-name="lslash" unicode="&#x142;" horiz-adv-x="279" 
d="M266 46l-18.001 24.001c-14 -13.333 -29.333 -20 -46 -20c-18.667 0 -28 10.667 -28 32v234l80 40c9.33301 4.66699 15.666 13 18.999 25s5 31.667 5 59l-104 -52l2 308c0 9.33301 -2.66699 16.666 -8 21.999s-12.666 8 -21.999 8c-18 0 -38.667 -5.33301 -62 -16
s-43.666 -24 -60.999 -40l9 -24h40c12 0 18 -6.66699 18 -20v-280l-73 -36c-8.66699 -4.66699 -14.5 -13 -17.5 -25s-4.5 -31.333 -4.5 -58l95 47v-189c0 -34.667 5.66699 -59.667 17 -75s30 -23 56 -23c34 0 68.333 19.667 103 59z" />
    <glyph glyph-name="Nacute" unicode="&#x143;" horiz-adv-x="722" 
d="M426 784c34.667 17.333 52 40.001 52 68.001c0 25.333 -13.333 44.666 -40 57.999l-144 -145l26 -32zM219 0.000976562l12 15.001l-12 17c-15.333 20 -26 41.167 -32 63.5s-9 52.5 -9 90.5v339l353 -525h94l11 15l-11 17c-9.33301 13.333 -14 30 -14 50v398
c0 66 13.667 117.333 41 154l14 17l-14 15h-174l-13 -32l22 -5c24 -6.66699 40 -15.667 48 -27s12 -31 12 -59v-403l-355 526h-149l-11 -32l21 -5c23.333 -6.66699 39 -15.667 47 -27s12 -31 12 -59v-420c0 -28.667 -3.83301 -48.334 -11.5 -59.001s-23.5 -19.667 -47.5 -27
l-21 -5l11 -32h176z" />
    <glyph glyph-name="nacute" unicode="&#x144;" horiz-adv-x="596" 
d="M371 580c34 16.667 51 38.666 51 65.999c0 26.667 -13 46.334 -39 59.001l-144 -145l27 -31zM579 45.999l-18.0029 24.002c-15.333 -13.333 -30.666 -20 -45.999 -20c-18.667 0 -28 10.667 -28 32v224c0 57.333 -10 99.333 -30 126s-51.333 40 -94 40
c-35.333 0 -69.166 -12.833 -101.499 -38.5s-56.5 -58.834 -72.5 -99.501v101c0 8.66699 -2.66699 15.667 -8 21s-12.333 8 -21 8c-17.333 0 -37.666 -5.16699 -60.999 -15.5s-44 -23.5 -62 -39.5l9 -25h40c12 0 18 -6.66699 18 -20v-261c0 -24 -2.5 -40.833 -7.5 -50.5
s-15.5 -15.834 -31.5 -18.501l-18 -5l9 -29h163l11 14l-11 15c-20 28 -30 67.667 -30 119c0 75.333 12.333 136.333 37 183s57 70 97 70c53.333 0 80 -31.667 80 -95v-221c0 -35.333 5.5 -60.5 16.5 -75.5s29.167 -22.5 54.5 -22.5c35.333 0 70.333 19.667 105 59z" />
    <glyph glyph-name="uni0145" unicode="&#x145;" horiz-adv-x="722" 
d="M354 -232c26 28.667 45.167 52.002 57.5 70.002s18.5 35.667 18.5 53c0 41.333 -20.333 62 -61 62c-16 0 -33 -3.33301 -51 -10l-17 -7l4 -22l18 -11c14 -10.667 21 -22.334 21 -35.001c0 -8.66699 -3.66699 -21.334 -11 -38.001l-43 -83l28 -18zM219 0.00195312
l12 15.001l-12 17c-15.333 20 -26 41.167 -32 63.5s-9 52.5 -9 90.5v339l353 -525h94l11 15l-11 17c-9.33301 13.333 -14 30 -14 50v398c0 66 13.667 117.333 41 154l14 17l-14 15h-174l-13 -32l22 -5c24 -6.66699 40 -15.667 48 -27s12 -31 12 -59v-403l-355 526h-149
l-11 -32l21 -5c23.333 -6.66699 39 -15.667 47 -27s12 -31 12 -59v-420c0 -28.667 -3.83301 -48.334 -11.5 -59.001s-23.5 -19.667 -47.5 -27l-21 -5l11 -32h176z" />
    <glyph glyph-name="uni0146" unicode="&#x146;" horiz-adv-x="596" 
d="M293 -232c25.333 28 44.167 51.1699 56.5 69.5029s18.5 36.166 18.5 53.499c0 41.333 -20.333 62 -61 62c-16 0 -33 -3.33301 -51 -10l-17 -7l5 -22l18 -11c13.333 -10.667 20 -22.334 20 -35.001c0 -8.66699 -3.66699 -21.334 -11 -38.001l-42 -83l27 -18z
M579.001 46.0029l-18.0029 24.002c-15.333 -13.333 -30.666 -20 -45.999 -20c-18.667 0 -28 10.667 -28 32v224c0 57.333 -10 99.333 -30 126s-51.333 40 -94 40c-35.333 0 -69.166 -12.833 -101.499 -38.5s-56.5 -58.834 -72.5 -99.501v101
c0 8.66699 -2.66699 15.667 -8 21s-12.333 8 -21 8c-17.333 0 -37.666 -5.16699 -60.999 -15.5s-44 -23.5 -62 -39.5l9 -25h40c12 0 18 -6.66699 18 -20v-261c0 -24 -2.5 -40.833 -7.5 -50.5s-15.5 -15.834 -31.5 -18.501l-18 -5l9 -29h163l11 14l-11 15
c-20 28 -30 67.667 -30 119c0 75.333 12.333 136.333 37 183s57 70 97 70c53.333 0 80 -31.667 80 -95v-221c0 -35.333 5.5 -60.5 16.5 -75.5s29.167 -22.5 54.5 -22.5c35.333 0 70.333 19.667 105 59z" />
    <glyph glyph-name="Ncaron" unicode="&#x147;" horiz-adv-x="722" 
d="M373 740c12 7.33301 29.501 25.333 52.501 54s43.833 60 62.5 94l-29 26l-97 -79l-97 79l-31 -26c19.333 -34 40.166 -65.167 62.499 -93.5s39.833 -46.5 52.5 -54.5h24zM219.001 0l12 15.001l-12 17c-15.333 20 -26 41.167 -32 63.5s-9 52.5 -9 90.5v339l353 -525h94
l11 15l-11 17c-9.33301 13.333 -14 30 -14 50v398c0 66 13.667 117.333 41 154l14 17l-14 15h-174l-13 -32l22 -5c24 -6.66699 40 -15.667 48 -27s12 -31 12 -59v-403l-355 526h-149l-11 -32l21 -5c23.333 -6.66699 39 -15.667 47 -27s12 -31 12 -59v-420
c0 -28.667 -3.83301 -48.334 -11.5 -59.001s-23.5 -19.667 -47.5 -27l-21 -5l11 -32h176z" />
    </font>
</defs>
</svg>
